<svg xmlns="http://www.w3.org/2000/svg" width="76.0mm" height="10.0mm" viewBox="0 0 76.0 10.0">
<line x1="0.0000" y1="0.0000" x2="0.0000" y2="3.0000" stroke="black" stroke-width="0.2"/>
<line x1="1.0486" y1="0.0000" x2="1.0486" y2="1.0000" stroke="black" stroke-width="0.1"/>
<line x1="2.0059" y1="0.0000" x2="2.0059" y2="1.0000" stroke="black" stroke-width="0.1"/>
<line x1="2.8866" y1="0.0000" x2="2.8866" y2="1.0000" stroke="black" stroke-width="0.1"/>
<line x1="3.7019" y1="0.0000" x2="3.7019" y2="1.0000" stroke="black" stroke-width="0.1"/>
<line x1="4.4610" y1="0.0000" x2="4.4610" y2="1.5000" stroke="black" stroke-width="0.1"/>
<line x1="5.1710" y1="0.0000" x2="5.1710" y2="1.0000" stroke="black" stroke-width="0.1"/>
<line x1="5.8380" y1="0.0000" x2="5.8380" y2="1.0000" stroke="black" stroke-width="0.1"/>
<line x1="6.4669" y1="0.0000" x2="6.4669" y2="1.0000" stroke="black" stroke-width="0.1"/>
<line x1="7.0618" y1="0.0000" x2="7.0618" y2="1.0000" stroke="black" stroke-width="0.1"/>
<line x1="7.6261" y1="0.0000" x2="7.6261" y2="3.0000" stroke="black" stroke-width="0.2"/>
<line x1="8.1629" y1="0.0000" x2="8.1629" y2="1.0000" stroke="black" stroke-width="0.1"/>
<line x1="8.6747" y1="0.0000" x2="8.6747" y2="1.0000" stroke="black" stroke-width="0.1"/>
<line x1="9.1638" y1="0.0000" x2="9.1638" y2="1.0000" stroke="black" stroke-width="0.1"/>
<line x1="9.6320" y1="0.0000" x2="9.6320" y2="1.0000" stroke="black" stroke-width="0.1"/>
<line x1="10.0811" y1="0.0000" x2="10.0811" y2="1.5000" stroke="black" stroke-width="0.1"/>
<line x1="10.5127" y1="0.0000" x2="10.5127" y2="1.0000" stroke="black" stroke-width="0.1"/>
<line x1="10.9279" y1="0.0000" x2="10.9279" y2="1.0000" stroke="black" stroke-width="0.1"/>
<line x1="11.3280" y1="0.0000" x2="11.3280" y2="1.0000" stroke="black" stroke-width="0.1"/>
<line x1="11.7141" y1="0.0000" x2="11.7141" y2="1.0000" stroke="black" stroke-width="0.1"/>
<line x1="12.0871" y1="0.0000" x2="12.0871" y2="3.0000" stroke="black" stroke-width="0.2"/>
<line x1="12.4478" y1="0.0000" x2="12.4478" y2="1.0000" stroke="black" stroke-width="0.1"/>
<line x1="12.7971" y1="0.0000" x2="12.7971" y2="1.0000" stroke="black" stroke-width="0.1"/>
<line x1="13.1357" y1="0.0000" x2="13.1357" y2="1.0000" stroke="black" stroke-width="0.1"/>
<line x1="13.4641" y1="0.0000" x2="13.4641" y2="1.0000" stroke="black" stroke-width="0.1"/>
<line x1="13.7831" y1="0.0000" x2="13.7831" y2="1.5000" stroke="black" stroke-width="0.1"/>
<line x1="14.0930" y1="0.0000" x2="14.0930" y2="1.0000" stroke="black" stroke-width="0.1"/>
<line x1="14.3944" y1="0.0000" x2="14.3944" y2="1.0000" stroke="black" stroke-width="0.1"/>
<line x1="14.6879" y1="0.0000" x2="14.6879" y2="1.0000" stroke="black" stroke-width="0.1"/>
<line x1="14.9736" y1="0.0000" x2="14.9736" y2="1.0000" stroke="black" stroke-width="0.1"/>
<line x1="15.2522" y1="0.0000" x2="15.2522" y2="3.0000" stroke="black" stroke-width="0.2"/>
<line x1="15.5239" y1="0.0000" x2="15.5239" y2="1.0000" stroke="black" stroke-width="0.1"/>
<line x1="15.7890" y1="0.0000" x2="15.7890" y2="1.0000" stroke="black" stroke-width="0.1"/>
<line x1="16.0479" y1="0.0000" x2="16.0479" y2="1.0000" stroke="black" stroke-width="0.1"/>
<line x1="16.3008" y1="0.0000" x2="16.3008" y2="1.0000" stroke="black" stroke-width="0.1"/>
<line x1="16.5481" y1="0.0000" x2="16.5481" y2="1.5000" stroke="black" stroke-width="0.1"/>
<line x1="16.7899" y1="0.0000" x2="16.7899" y2="1.0000" stroke="black" stroke-width="0.1"/>
<line x1="17.0265" y1="0.0000" x2="17.0265" y2="1.0000" stroke="black" stroke-width="0.1"/>
<line x1="17.2581" y1="0.0000" x2="17.2581" y2="1.0000" stroke="black" stroke-width="0.1"/>
<line x1="17.4850" y1="0.0000" x2="17.4850" y2="1.0000" stroke="black" stroke-width="0.1"/>
<line x1="17.7072" y1="0.0000" x2="17.7072" y2="3.0000" stroke="black" stroke-width="0.2"/>
<line x1="17.9251" y1="0.0000" x2="17.9251" y2="1.0000" stroke="black" stroke-width="0.1"/>
<line x1="18.1388" y1="0.0000" x2="18.1388" y2="1.0000" stroke="black" stroke-width="0.1"/>
<line x1="18.3483" y1="0.0000" x2="18.3483" y2="1.0000" stroke="black" stroke-width="0.1"/>
<line x1="18.5540" y1="0.0000" x2="18.5540" y2="1.0000" stroke="black" stroke-width="0.1"/>
<line x1="18.7559" y1="0.0000" x2="18.7559" y2="1.5000" stroke="black" stroke-width="0.1"/>
<line x1="18.9541" y1="0.0000" x2="18.9541" y2="1.0000" stroke="black" stroke-width="0.1"/>
<line x1="19.1488" y1="0.0000" x2="19.1488" y2="1.0000" stroke="black" stroke-width="0.1"/>
<line x1="19.3402" y1="0.0000" x2="19.3402" y2="1.0000" stroke="black" stroke-width="0.1"/>
<line x1="19.5283" y1="0.0000" x2="19.5283" y2="1.0000" stroke="black" stroke-width="0.1"/>
<line x1="19.7132" y1="0.0000" x2="19.7132" y2="3.0000" stroke="black" stroke-width="0.2"/>
<line x1="19.8950" y1="0.0000" x2="19.8950" y2="1.0000" stroke="black" stroke-width="0.1"/>
<line x1="20.0739" y1="0.0000" x2="20.0739" y2="1.0000" stroke="black" stroke-width="0.1"/>
<line x1="20.2500" y1="0.0000" x2="20.2500" y2="1.0000" stroke="black" stroke-width="0.1"/>
<line x1="20.4232" y1="0.0000" x2="20.4232" y2="1.0000" stroke="black" stroke-width="0.1"/>
<line x1="20.5938" y1="0.0000" x2="20.5938" y2="1.5000" stroke="black" stroke-width="0.1"/>
<line x1="20.7618" y1="0.0000" x2="20.7618" y2="1.0000" stroke="black" stroke-width="0.1"/>
<line x1="20.9272" y1="0.0000" x2="20.9272" y2="1.0000" stroke="black" stroke-width="0.1"/>
<line x1="21.0902" y1="0.0000" x2="21.0902" y2="1.0000" stroke="black" stroke-width="0.1"/>
<line x1="21.2508" y1="0.0000" x2="21.2508" y2="1.0000" stroke="black" stroke-width="0.1"/>
<line x1="21.4092" y1="0.0000" x2="21.4092" y2="3.0000" stroke="black" stroke-width="0.2"/>
<line x1="21.5652" y1="0.0000" x2="21.5652" y2="1.0000" stroke="black" stroke-width="0.1"/>
<line x1="21.7191" y1="0.0000" x2="21.7191" y2="1.0000" stroke="black" stroke-width="0.1"/>
<line x1="21.8708" y1="0.0000" x2="21.8708" y2="1.0000" stroke="black" stroke-width="0.1"/>
<line x1="22.0205" y1="0.0000" x2="22.0205" y2="1.0000" stroke="black" stroke-width="0.1"/>
<line x1="22.1682" y1="0.0000" x2="22.1682" y2="1.5000" stroke="black" stroke-width="0.1"/>
<line x1="22.3139" y1="0.0000" x2="22.3139" y2="1.0000" stroke="black" stroke-width="0.1"/>
<line x1="22.4578" y1="0.0000" x2="22.4578" y2="1.0000" stroke="black" stroke-width="0.1"/>
<line x1="22.5997" y1="0.0000" x2="22.5997" y2="1.0000" stroke="black" stroke-width="0.1"/>
<line x1="22.7399" y1="0.0000" x2="22.7399" y2="1.0000" stroke="black" stroke-width="0.1"/>
<line x1="22.8783" y1="0.0000" x2="22.8783" y2="3.0000" stroke="black" stroke-width="0.2"/>
<line x1="23.0150" y1="0.0000" x2="23.0150" y2="1.0000" stroke="black" stroke-width="0.1"/>
<line x1="23.1500" y1="0.0000" x2="23.1500" y2="1.0000" stroke="black" stroke-width="0.1"/>
<line x1="23.2833" y1="0.0000" x2="23.2833" y2="1.0000" stroke="black" stroke-width="0.1"/>
<line x1="23.4151" y1="0.0000" x2="23.4151" y2="1.0000" stroke="black" stroke-width="0.1"/>
<line x1="23.5453" y1="0.0000" x2="23.5453" y2="1.5000" stroke="black" stroke-width="0.1"/>
<line x1="23.6740" y1="0.0000" x2="23.6740" y2="1.0000" stroke="black" stroke-width="0.1"/>
<line x1="23.8012" y1="0.0000" x2="23.8012" y2="1.0000" stroke="black" stroke-width="0.1"/>
<line x1="23.9269" y1="0.0000" x2="23.9269" y2="1.0000" stroke="black" stroke-width="0.1"/>
<line x1="24.0512" y1="0.0000" x2="24.0512" y2="1.0000" stroke="black" stroke-width="0.1"/>
<line x1="24.1741" y1="0.0000" x2="24.1741" y2="3.0000" stroke="black" stroke-width="0.2"/>
<line x1="24.2957" y1="0.0000" x2="24.2957" y2="1.0000" stroke="black" stroke-width="0.1"/>
<line x1="24.4160" y1="0.0000" x2="24.4160" y2="1.0000" stroke="black" stroke-width="0.1"/>
<line x1="24.5349" y1="0.0000" x2="24.5349" y2="1.0000" stroke="black" stroke-width="0.1"/>
<line x1="24.6526" y1="0.0000" x2="24.6526" y2="1.0000" stroke="black" stroke-width="0.1"/>
<line x1="24.7690" y1="0.0000" x2="24.7690" y2="1.5000" stroke="black" stroke-width="0.1"/>
<line x1="24.8842" y1="0.0000" x2="24.8842" y2="1.0000" stroke="black" stroke-width="0.1"/>
<line x1="24.9982" y1="0.0000" x2="24.9982" y2="1.0000" stroke="black" stroke-width="0.1"/>
<line x1="25.1111" y1="0.0000" x2="25.1111" y2="1.0000" stroke="black" stroke-width="0.1"/>
<line x1="25.2228" y1="0.0000" x2="25.2228" y2="1.0000" stroke="black" stroke-width="0.1"/>
<line x1="25.3333" y1="0.0000" x2="25.3333" y2="3.0000" stroke="black" stroke-width="0.2"/>
<line x1="26.3819" y1="0.0000" x2="26.3819" y2="1.0000" stroke="black" stroke-width="0.1"/>
<line x1="27.3393" y1="0.0000" x2="27.3393" y2="1.0000" stroke="black" stroke-width="0.1"/>
<line x1="28.2199" y1="0.0000" x2="28.2199" y2="1.0000" stroke="black" stroke-width="0.1"/>
<line x1="29.0352" y1="0.0000" x2="29.0352" y2="1.0000" stroke="black" stroke-width="0.1"/>
<line x1="29.7943" y1="0.0000" x2="29.7943" y2="1.5000" stroke="black" stroke-width="0.1"/>
<line x1="30.5044" y1="0.0000" x2="30.5044" y2="1.0000" stroke="black" stroke-width="0.1"/>
<line x1="31.1714" y1="0.0000" x2="31.1714" y2="1.0000" stroke="black" stroke-width="0.1"/>
<line x1="31.8002" y1="0.0000" x2="31.8002" y2="1.0000" stroke="black" stroke-width="0.1"/>
<line x1="32.3951" y1="0.0000" x2="32.3951" y2="1.0000" stroke="black" stroke-width="0.1"/>
<line x1="32.9594" y1="0.0000" x2="32.9594" y2="3.0000" stroke="black" stroke-width="0.2"/>
<line x1="33.4962" y1="0.0000" x2="33.4962" y2="1.0000" stroke="black" stroke-width="0.1"/>
<line x1="34.0080" y1="0.0000" x2="34.0080" y2="1.0000" stroke="black" stroke-width="0.1"/>
<line x1="34.4971" y1="0.0000" x2="34.4971" y2="1.0000" stroke="black" stroke-width="0.1"/>
<line x1="34.9654" y1="0.0000" x2="34.9654" y2="1.0000" stroke="black" stroke-width="0.1"/>
<line x1="35.4145" y1="0.0000" x2="35.4145" y2="1.5000" stroke="black" stroke-width="0.1"/>
<line x1="35.8460" y1="0.0000" x2="35.8460" y2="1.0000" stroke="black" stroke-width="0.1"/>
<line x1="36.2612" y1="0.0000" x2="36.2612" y2="1.0000" stroke="black" stroke-width="0.1"/>
<line x1="36.6613" y1="0.0000" x2="36.6613" y2="1.0000" stroke="black" stroke-width="0.1"/>
<line x1="37.0474" y1="0.0000" x2="37.0474" y2="1.0000" stroke="black" stroke-width="0.1"/>
<line x1="37.4204" y1="0.0000" x2="37.4204" y2="3.0000" stroke="black" stroke-width="0.2"/>
<line x1="37.7812" y1="0.0000" x2="37.7812" y2="1.0000" stroke="black" stroke-width="0.1"/>
<line x1="38.1305" y1="0.0000" x2="38.1305" y2="1.0000" stroke="black" stroke-width="0.1"/>
<line x1="38.4690" y1="0.0000" x2="38.4690" y2="1.0000" stroke="black" stroke-width="0.1"/>
<line x1="38.7975" y1="0.0000" x2="38.7975" y2="1.0000" stroke="black" stroke-width="0.1"/>
<line x1="39.1164" y1="0.0000" x2="39.1164" y2="1.5000" stroke="black" stroke-width="0.1"/>
<line x1="39.4263" y1="0.0000" x2="39.4263" y2="1.0000" stroke="black" stroke-width="0.1"/>
<line x1="39.7278" y1="0.0000" x2="39.7278" y2="1.0000" stroke="black" stroke-width="0.1"/>
<line x1="40.0212" y1="0.0000" x2="40.0212" y2="1.0000" stroke="black" stroke-width="0.1"/>
<line x1="40.3070" y1="0.0000" x2="40.3070" y2="1.0000" stroke="black" stroke-width="0.1"/>
<line x1="40.5855" y1="0.0000" x2="40.5855" y2="3.0000" stroke="black" stroke-width="0.2"/>
<line x1="40.8572" y1="0.0000" x2="40.8572" y2="1.0000" stroke="black" stroke-width="0.1"/>
<line x1="41.1223" y1="0.0000" x2="41.1223" y2="1.0000" stroke="black" stroke-width="0.1"/>
<line x1="41.3812" y1="0.0000" x2="41.3812" y2="1.0000" stroke="black" stroke-width="0.1"/>
<line x1="41.6341" y1="0.0000" x2="41.6341" y2="1.0000" stroke="black" stroke-width="0.1"/>
<line x1="41.8814" y1="0.0000" x2="41.8814" y2="1.5000" stroke="black" stroke-width="0.1"/>
<line x1="42.1232" y1="0.0000" x2="42.1232" y2="1.0000" stroke="black" stroke-width="0.1"/>
<line x1="42.3598" y1="0.0000" x2="42.3598" y2="1.0000" stroke="black" stroke-width="0.1"/>
<line x1="42.5914" y1="0.0000" x2="42.5914" y2="1.0000" stroke="black" stroke-width="0.1"/>
<line x1="42.8183" y1="0.0000" x2="42.8183" y2="1.0000" stroke="black" stroke-width="0.1"/>
<line x1="43.0406" y1="0.0000" x2="43.0406" y2="3.0000" stroke="black" stroke-width="0.2"/>
<line x1="43.2584" y1="0.0000" x2="43.2584" y2="1.0000" stroke="black" stroke-width="0.1"/>
<line x1="43.4721" y1="0.0000" x2="43.4721" y2="1.0000" stroke="black" stroke-width="0.1"/>
<line x1="43.6817" y1="0.0000" x2="43.6817" y2="1.0000" stroke="black" stroke-width="0.1"/>
<line x1="43.8873" y1="0.0000" x2="43.8873" y2="1.0000" stroke="black" stroke-width="0.1"/>
<line x1="44.0892" y1="0.0000" x2="44.0892" y2="1.5000" stroke="black" stroke-width="0.1"/>
<line x1="44.2874" y1="0.0000" x2="44.2874" y2="1.0000" stroke="black" stroke-width="0.1"/>
<line x1="44.4822" y1="0.0000" x2="44.4822" y2="1.0000" stroke="black" stroke-width="0.1"/>
<line x1="44.6735" y1="0.0000" x2="44.6735" y2="1.0000" stroke="black" stroke-width="0.1"/>
<line x1="44.8616" y1="0.0000" x2="44.8616" y2="1.0000" stroke="black" stroke-width="0.1"/>
<line x1="45.0465" y1="0.0000" x2="45.0465" y2="3.0000" stroke="black" stroke-width="0.2"/>
<line x1="45.2284" y1="0.0000" x2="45.2284" y2="1.0000" stroke="black" stroke-width="0.1"/>
<line x1="45.4073" y1="0.0000" x2="45.4073" y2="1.0000" stroke="black" stroke-width="0.1"/>
<line x1="45.5833" y1="0.0000" x2="45.5833" y2="1.0000" stroke="black" stroke-width="0.1"/>
<line x1="45.7566" y1="0.0000" x2="45.7566" y2="1.0000" stroke="black" stroke-width="0.1"/>
<line x1="45.9271" y1="0.0000" x2="45.9271" y2="1.5000" stroke="black" stroke-width="0.1"/>
<line x1="46.0951" y1="0.0000" x2="46.0951" y2="1.0000" stroke="black" stroke-width="0.1"/>
<line x1="46.2606" y1="0.0000" x2="46.2606" y2="1.0000" stroke="black" stroke-width="0.1"/>
<line x1="46.4236" y1="0.0000" x2="46.4236" y2="1.0000" stroke="black" stroke-width="0.1"/>
<line x1="46.5842" y1="0.0000" x2="46.5842" y2="1.0000" stroke="black" stroke-width="0.1"/>
<line x1="46.7425" y1="0.0000" x2="46.7425" y2="3.0000" stroke="black" stroke-width="0.2"/>
<line x1="46.8985" y1="0.0000" x2="46.8985" y2="1.0000" stroke="black" stroke-width="0.1"/>
<line x1="47.0524" y1="0.0000" x2="47.0524" y2="1.0000" stroke="black" stroke-width="0.1"/>
<line x1="47.2042" y1="0.0000" x2="47.2042" y2="1.0000" stroke="black" stroke-width="0.1"/>
<line x1="47.3539" y1="0.0000" x2="47.3539" y2="1.0000" stroke="black" stroke-width="0.1"/>
<line x1="47.5016" y1="0.0000" x2="47.5016" y2="1.5000" stroke="black" stroke-width="0.1"/>
<line x1="47.6473" y1="0.0000" x2="47.6473" y2="1.0000" stroke="black" stroke-width="0.1"/>
<line x1="47.7911" y1="0.0000" x2="47.7911" y2="1.0000" stroke="black" stroke-width="0.1"/>
<line x1="47.9331" y1="0.0000" x2="47.9331" y2="1.0000" stroke="black" stroke-width="0.1"/>
<line x1="48.0732" y1="0.0000" x2="48.0732" y2="1.0000" stroke="black" stroke-width="0.1"/>
<line x1="48.2116" y1="0.0000" x2="48.2116" y2="3.0000" stroke="black" stroke-width="0.2"/>
<line x1="48.3483" y1="0.0000" x2="48.3483" y2="1.0000" stroke="black" stroke-width="0.1"/>
<line x1="48.4833" y1="0.0000" x2="48.4833" y2="1.0000" stroke="black" stroke-width="0.1"/>
<line x1="48.6166" y1="0.0000" x2="48.6166" y2="1.0000" stroke="black" stroke-width="0.1"/>
<line x1="48.7484" y1="0.0000" x2="48.7484" y2="1.0000" stroke="black" stroke-width="0.1"/>
<line x1="48.8786" y1="0.0000" x2="48.8786" y2="1.5000" stroke="black" stroke-width="0.1"/>
<line x1="49.0073" y1="0.0000" x2="49.0073" y2="1.0000" stroke="black" stroke-width="0.1"/>
<line x1="49.1345" y1="0.0000" x2="49.1345" y2="1.0000" stroke="black" stroke-width="0.1"/>
<line x1="49.2602" y1="0.0000" x2="49.2602" y2="1.0000" stroke="black" stroke-width="0.1"/>
<line x1="49.3845" y1="0.0000" x2="49.3845" y2="1.0000" stroke="black" stroke-width="0.1"/>
<line x1="49.5075" y1="0.0000" x2="49.5075" y2="3.0000" stroke="black" stroke-width="0.2"/>
<line x1="49.6290" y1="0.0000" x2="49.6290" y2="1.0000" stroke="black" stroke-width="0.1"/>
<line x1="49.7493" y1="0.0000" x2="49.7493" y2="1.0000" stroke="black" stroke-width="0.1"/>
<line x1="49.8682" y1="0.0000" x2="49.8682" y2="1.0000" stroke="black" stroke-width="0.1"/>
<line x1="49.9859" y1="0.0000" x2="49.9859" y2="1.0000" stroke="black" stroke-width="0.1"/>
<line x1="50.1023" y1="0.0000" x2="50.1023" y2="1.5000" stroke="black" stroke-width="0.1"/>
<line x1="50.2175" y1="0.0000" x2="50.2175" y2="1.0000" stroke="black" stroke-width="0.1"/>
<line x1="50.3316" y1="0.0000" x2="50.3316" y2="1.0000" stroke="black" stroke-width="0.1"/>
<line x1="50.4444" y1="0.0000" x2="50.4444" y2="1.0000" stroke="black" stroke-width="0.1"/>
<line x1="50.5561" y1="0.0000" x2="50.5561" y2="1.0000" stroke="black" stroke-width="0.1"/>
<line x1="50.6667" y1="0.0000" x2="50.6667" y2="3.0000" stroke="black" stroke-width="0.2"/>
<line x1="51.7153" y1="0.0000" x2="51.7153" y2="1.0000" stroke="black" stroke-width="0.1"/>
<line x1="52.6726" y1="0.0000" x2="52.6726" y2="1.0000" stroke="black" stroke-width="0.1"/>
<line x1="53.5532" y1="0.0000" x2="53.5532" y2="1.0000" stroke="black" stroke-width="0.1"/>
<line x1="54.3686" y1="0.0000" x2="54.3686" y2="1.0000" stroke="black" stroke-width="0.1"/>
<line x1="55.1276" y1="0.0000" x2="55.1276" y2="1.5000" stroke="black" stroke-width="0.1"/>
<line x1="55.8377" y1="0.0000" x2="55.8377" y2="1.0000" stroke="black" stroke-width="0.1"/>
<line x1="56.5047" y1="0.0000" x2="56.5047" y2="1.0000" stroke="black" stroke-width="0.1"/>
<line x1="57.1336" y1="0.0000" x2="57.1336" y2="1.0000" stroke="black" stroke-width="0.1"/>
<line x1="57.7284" y1="0.0000" x2="57.7284" y2="1.0000" stroke="black" stroke-width="0.1"/>
<line x1="58.2928" y1="0.0000" x2="58.2928" y2="3.0000" stroke="black" stroke-width="0.2"/>
<line x1="58.8296" y1="0.0000" x2="58.8296" y2="1.0000" stroke="black" stroke-width="0.1"/>
<line x1="59.3414" y1="0.0000" x2="59.3414" y2="1.0000" stroke="black" stroke-width="0.1"/>
<line x1="59.8304" y1="0.0000" x2="59.8304" y2="1.0000" stroke="black" stroke-width="0.1"/>
<line x1="60.2987" y1="0.0000" x2="60.2987" y2="1.0000" stroke="black" stroke-width="0.1"/>
<line x1="60.7478" y1="0.0000" x2="60.7478" y2="1.5000" stroke="black" stroke-width="0.1"/>
<line x1="61.1793" y1="0.0000" x2="61.1793" y2="1.0000" stroke="black" stroke-width="0.1"/>
<line x1="61.5945" y1="0.0000" x2="61.5945" y2="1.0000" stroke="black" stroke-width="0.1"/>
<line x1="61.9947" y1="0.0000" x2="61.9947" y2="1.0000" stroke="black" stroke-width="0.1"/>
<line x1="62.3807" y1="0.0000" x2="62.3807" y2="1.0000" stroke="black" stroke-width="0.1"/>
<line x1="62.7537" y1="0.0000" x2="62.7537" y2="3.0000" stroke="black" stroke-width="0.2"/>
<line x1="63.1145" y1="0.0000" x2="63.1145" y2="1.0000" stroke="black" stroke-width="0.1"/>
<line x1="63.4638" y1="0.0000" x2="63.4638" y2="1.0000" stroke="black" stroke-width="0.1"/>
<line x1="63.8024" y1="0.0000" x2="63.8024" y2="1.0000" stroke="black" stroke-width="0.1"/>
<line x1="64.1308" y1="0.0000" x2="64.1308" y2="1.0000" stroke="black" stroke-width="0.1"/>
<line x1="64.4497" y1="0.0000" x2="64.4497" y2="1.5000" stroke="black" stroke-width="0.1"/>
<line x1="64.7597" y1="0.0000" x2="64.7597" y2="1.0000" stroke="black" stroke-width="0.1"/>
<line x1="65.0611" y1="0.0000" x2="65.0611" y2="1.0000" stroke="black" stroke-width="0.1"/>
<line x1="65.3545" y1="0.0000" x2="65.3545" y2="1.0000" stroke="black" stroke-width="0.1"/>
<line x1="65.6403" y1="0.0000" x2="65.6403" y2="1.0000" stroke="black" stroke-width="0.1"/>
<line x1="65.9189" y1="0.0000" x2="65.9189" y2="3.0000" stroke="black" stroke-width="0.2"/>
<line x1="66.1905" y1="0.0000" x2="66.1905" y2="1.0000" stroke="black" stroke-width="0.1"/>
<line x1="66.4556" y1="0.0000" x2="66.4556" y2="1.0000" stroke="black" stroke-width="0.1"/>
<line x1="66.7145" y1="0.0000" x2="66.7145" y2="1.0000" stroke="black" stroke-width="0.1"/>
<line x1="66.9675" y1="0.0000" x2="66.9675" y2="1.0000" stroke="black" stroke-width="0.1"/>
<line x1="67.2147" y1="0.0000" x2="67.2147" y2="1.5000" stroke="black" stroke-width="0.1"/>
<line x1="67.4565" y1="0.0000" x2="67.4565" y2="1.0000" stroke="black" stroke-width="0.1"/>
<line x1="67.6931" y1="0.0000" x2="67.6931" y2="1.0000" stroke="black" stroke-width="0.1"/>
<line x1="67.9248" y1="0.0000" x2="67.9248" y2="1.0000" stroke="black" stroke-width="0.1"/>
<line x1="68.1516" y1="0.0000" x2="68.1516" y2="1.0000" stroke="black" stroke-width="0.1"/>
<line x1="68.3739" y1="0.0000" x2="68.3739" y2="3.0000" stroke="black" stroke-width="0.2"/>
<line x1="68.5918" y1="0.0000" x2="68.5918" y2="1.0000" stroke="black" stroke-width="0.1"/>
<line x1="68.8054" y1="0.0000" x2="68.8054" y2="1.0000" stroke="black" stroke-width="0.1"/>
<line x1="69.0150" y1="0.0000" x2="69.0150" y2="1.0000" stroke="black" stroke-width="0.1"/>
<line x1="69.2206" y1="0.0000" x2="69.2206" y2="1.0000" stroke="black" stroke-width="0.1"/>
<line x1="69.4225" y1="0.0000" x2="69.4225" y2="1.5000" stroke="black" stroke-width="0.1"/>
<line x1="69.6208" y1="0.0000" x2="69.6208" y2="1.0000" stroke="black" stroke-width="0.1"/>
<line x1="69.8155" y1="0.0000" x2="69.8155" y2="1.0000" stroke="black" stroke-width="0.1"/>
<line x1="70.0068" y1="0.0000" x2="70.0068" y2="1.0000" stroke="black" stroke-width="0.1"/>
<line x1="70.1949" y1="0.0000" x2="70.1949" y2="1.0000" stroke="black" stroke-width="0.1"/>
<line x1="70.3798" y1="0.0000" x2="70.3798" y2="3.0000" stroke="black" stroke-width="0.2"/>
<line x1="70.5617" y1="0.0000" x2="70.5617" y2="1.0000" stroke="black" stroke-width="0.1"/>
<line x1="70.7406" y1="0.0000" x2="70.7406" y2="1.0000" stroke="black" stroke-width="0.1"/>
<line x1="70.9166" y1="0.0000" x2="70.9166" y2="1.0000" stroke="black" stroke-width="0.1"/>
<line x1="71.0899" y1="0.0000" x2="71.0899" y2="1.0000" stroke="black" stroke-width="0.1"/>
<line x1="71.2605" y1="0.0000" x2="71.2605" y2="1.5000" stroke="black" stroke-width="0.1"/>
<line x1="71.4284" y1="0.0000" x2="71.4284" y2="1.0000" stroke="black" stroke-width="0.1"/>
<line x1="71.5939" y1="0.0000" x2="71.5939" y2="1.0000" stroke="black" stroke-width="0.1"/>
<line x1="71.7569" y1="0.0000" x2="71.7569" y2="1.0000" stroke="black" stroke-width="0.1"/>
<line x1="71.9175" y1="0.0000" x2="71.9175" y2="1.0000" stroke="black" stroke-width="0.1"/>
<line x1="72.0758" y1="0.0000" x2="72.0758" y2="3.0000" stroke="black" stroke-width="0.2"/>
<line x1="72.2319" y1="0.0000" x2="72.2319" y2="1.0000" stroke="black" stroke-width="0.1"/>
<line x1="72.3858" y1="0.0000" x2="72.3858" y2="1.0000" stroke="black" stroke-width="0.1"/>
<line x1="72.5375" y1="0.0000" x2="72.5375" y2="1.0000" stroke="black" stroke-width="0.1"/>
<line x1="72.6872" y1="0.0000" x2="72.6872" y2="1.0000" stroke="black" stroke-width="0.1"/>
<line x1="72.8349" y1="0.0000" x2="72.8349" y2="1.5000" stroke="black" stroke-width="0.1"/>
<line x1="72.9806" y1="0.0000" x2="72.9806" y2="1.0000" stroke="black" stroke-width="0.1"/>
<line x1="73.1244" y1="0.0000" x2="73.1244" y2="1.0000" stroke="black" stroke-width="0.1"/>
<line x1="73.2664" y1="0.0000" x2="73.2664" y2="1.0000" stroke="black" stroke-width="0.1"/>
<line x1="73.4066" y1="0.0000" x2="73.4066" y2="1.0000" stroke="black" stroke-width="0.1"/>
<line x1="73.5449" y1="0.0000" x2="73.5449" y2="3.0000" stroke="black" stroke-width="0.2"/>
<line x1="73.6816" y1="0.0000" x2="73.6816" y2="1.0000" stroke="black" stroke-width="0.1"/>
<line x1="73.8166" y1="0.0000" x2="73.8166" y2="1.0000" stroke="black" stroke-width="0.1"/>
<line x1="73.9500" y1="0.0000" x2="73.9500" y2="1.0000" stroke="black" stroke-width="0.1"/>
<line x1="74.0817" y1="0.0000" x2="74.0817" y2="1.0000" stroke="black" stroke-width="0.1"/>
<line x1="74.2119" y1="0.0000" x2="74.2119" y2="1.5000" stroke="black" stroke-width="0.1"/>
<line x1="74.3406" y1="0.0000" x2="74.3406" y2="1.0000" stroke="black" stroke-width="0.1"/>
<line x1="74.4678" y1="0.0000" x2="74.4678" y2="1.0000" stroke="black" stroke-width="0.1"/>
<line x1="74.5936" y1="0.0000" x2="74.5936" y2="1.0000" stroke="black" stroke-width="0.1"/>
<line x1="74.7179" y1="0.0000" x2="74.7179" y2="1.0000" stroke="black" stroke-width="0.1"/>
<line x1="74.8408" y1="0.0000" x2="74.8408" y2="3.0000" stroke="black" stroke-width="0.2"/>
<line x1="74.9624" y1="0.0000" x2="74.9624" y2="1.0000" stroke="black" stroke-width="0.1"/>
<line x1="75.0826" y1="0.0000" x2="75.0826" y2="1.0000" stroke="black" stroke-width="0.1"/>
<line x1="75.2016" y1="0.0000" x2="75.2016" y2="1.0000" stroke="black" stroke-width="0.1"/>
<line x1="75.3192" y1="0.0000" x2="75.3192" y2="1.0000" stroke="black" stroke-width="0.1"/>
<line x1="75.4357" y1="0.0000" x2="75.4357" y2="1.5000" stroke="black" stroke-width="0.1"/>
<line x1="75.5509" y1="0.0000" x2="75.5509" y2="1.0000" stroke="black" stroke-width="0.1"/>
<line x1="75.6649" y1="0.0000" x2="75.6649" y2="1.0000" stroke="black" stroke-width="0.1"/>
<line x1="75.7777" y1="0.0000" x2="75.7777" y2="1.0000" stroke="black" stroke-width="0.1"/>
<line x1="75.8894" y1="0.0000" x2="75.8894" y2="1.0000" stroke="black" stroke-width="0.1"/>
</svg>