<svg xmlns="http://www.w3.org/2000/svg" width="76.0mm" height="10.0mm" viewBox="0 0 76.0 10.0">
<line x1="0.0000" y1="0.0000" x2="0.0000" y2="3.0000" stroke="black" stroke-width="0.2"/>
<line x1="3.1458" y1="0.0000" x2="3.1458" y2="1.0000" stroke="black" stroke-width="0.1"/>
<line x1="6.0178" y1="0.0000" x2="6.0178" y2="1.0000" stroke="black" stroke-width="0.1"/>
<line x1="8.6597" y1="0.0000" x2="8.6597" y2="1.0000" stroke="black" stroke-width="0.1"/>
<line x1="11.1057" y1="0.0000" x2="11.1057" y2="1.0000" stroke="black" stroke-width="0.1"/>
<line x1="13.3829" y1="0.0000" x2="13.3829" y2="1.5000" stroke="black" stroke-width="0.1"/>
<line x1="15.5131" y1="0.0000" x2="15.5131" y2="1.0000" stroke="black" stroke-width="0.1"/>
<line x1="17.5141" y1="0.0000" x2="17.5141" y2="1.0000" stroke="black" stroke-width="0.1"/>
<line x1="19.4007" y1="0.0000" x2="19.4007" y2="1.0000" stroke="black" stroke-width="0.1"/>
<line x1="21.1853" y1="0.0000" x2="21.1853" y2="1.0000" stroke="black" stroke-width="0.1"/>
<line x1="22.8783" y1="0.0000" x2="22.8783" y2="3.0000" stroke="black" stroke-width="0.2"/>
<line x1="24.4887" y1="0.0000" x2="24.4887" y2="1.0000" stroke="black" stroke-width="0.1"/>
<line x1="26.0241" y1="0.0000" x2="26.0241" y2="1.0000" stroke="black" stroke-width="0.1"/>
<line x1="27.4913" y1="0.0000" x2="27.4913" y2="1.0000" stroke="black" stroke-width="0.1"/>
<line x1="28.8961" y1="0.0000" x2="28.8961" y2="1.0000" stroke="black" stroke-width="0.1"/>
<line x1="30.2434" y1="0.0000" x2="30.2434" y2="1.5000" stroke="black" stroke-width="0.1"/>
<line x1="31.5380" y1="0.0000" x2="31.5380" y2="1.0000" stroke="black" stroke-width="0.1"/>
<line x1="32.7836" y1="0.0000" x2="32.7836" y2="1.0000" stroke="black" stroke-width="0.1"/>
<line x1="33.9840" y1="0.0000" x2="33.9840" y2="1.0000" stroke="black" stroke-width="0.1"/>
<line x1="35.1422" y1="0.0000" x2="35.1422" y2="1.0000" stroke="black" stroke-width="0.1"/>
<line x1="36.2612" y1="0.0000" x2="36.2612" y2="3.0000" stroke="black" stroke-width="0.2"/>
<line x1="37.3435" y1="0.0000" x2="37.3435" y2="1.0000" stroke="black" stroke-width="0.1"/>
<line x1="38.3914" y1="0.0000" x2="38.3914" y2="1.0000" stroke="black" stroke-width="0.1"/>
<line x1="39.4071" y1="0.0000" x2="39.4071" y2="1.0000" stroke="black" stroke-width="0.1"/>
<line x1="40.3924" y1="0.0000" x2="40.3924" y2="1.0000" stroke="black" stroke-width="0.1"/>
<line x1="41.3492" y1="0.0000" x2="41.3492" y2="1.5000" stroke="black" stroke-width="0.1"/>
<line x1="42.2790" y1="0.0000" x2="42.2790" y2="1.0000" stroke="black" stroke-width="0.1"/>
<line x1="43.1833" y1="0.0000" x2="43.1833" y2="1.0000" stroke="black" stroke-width="0.1"/>
<line x1="44.0636" y1="0.0000" x2="44.0636" y2="1.0000" stroke="black" stroke-width="0.1"/>
<line x1="44.9209" y1="0.0000" x2="44.9209" y2="1.0000" stroke="black" stroke-width="0.1"/>
<line x1="45.7566" y1="0.0000" x2="45.7566" y2="3.0000" stroke="black" stroke-width="0.2"/>
<line x1="46.5716" y1="0.0000" x2="46.5716" y2="1.0000" stroke="black" stroke-width="0.1"/>
<line x1="47.3669" y1="0.0000" x2="47.3669" y2="1.0000" stroke="black" stroke-width="0.1"/>
<line x1="48.1436" y1="0.0000" x2="48.1436" y2="1.0000" stroke="black" stroke-width="0.1"/>
<line x1="48.9024" y1="0.0000" x2="48.9024" y2="1.0000" stroke="black" stroke-width="0.1"/>
<line x1="49.6442" y1="0.0000" x2="49.6442" y2="1.5000" stroke="black" stroke-width="0.1"/>
<line x1="50.3696" y1="0.0000" x2="50.3696" y2="1.0000" stroke="black" stroke-width="0.1"/>
<line x1="51.0794" y1="0.0000" x2="51.0794" y2="1.0000" stroke="black" stroke-width="0.1"/>
<line x1="51.7743" y1="0.0000" x2="51.7743" y2="1.0000" stroke="black" stroke-width="0.1"/>
<line x1="52.4549" y1="0.0000" x2="52.4549" y2="1.0000" stroke="black" stroke-width="0.1"/>
<line x1="53.1217" y1="0.0000" x2="53.1217" y2="3.0000" stroke="black" stroke-width="0.2"/>
<line x1="53.7753" y1="0.0000" x2="53.7753" y2="1.0000" stroke="black" stroke-width="0.1"/>
<line x1="54.4163" y1="0.0000" x2="54.4163" y2="1.0000" stroke="black" stroke-width="0.1"/>
<line x1="55.0450" y1="0.0000" x2="55.0450" y2="1.0000" stroke="black" stroke-width="0.1"/>
<line x1="55.6619" y1="0.0000" x2="55.6619" y2="1.0000" stroke="black" stroke-width="0.1"/>
<line x1="56.2676" y1="0.0000" x2="56.2676" y2="1.5000" stroke="black" stroke-width="0.1"/>
<line x1="56.8623" y1="0.0000" x2="56.8623" y2="1.0000" stroke="black" stroke-width="0.1"/>
<line x1="57.4465" y1="0.0000" x2="57.4465" y2="1.0000" stroke="black" stroke-width="0.1"/>
<line x1="58.0205" y1="0.0000" x2="58.0205" y2="1.0000" stroke="black" stroke-width="0.1"/>
<line x1="58.5848" y1="0.0000" x2="58.5848" y2="1.0000" stroke="black" stroke-width="0.1"/>
<line x1="59.1395" y1="0.0000" x2="59.1395" y2="3.0000" stroke="black" stroke-width="0.2"/>
<line x1="59.6851" y1="0.0000" x2="59.6851" y2="1.0000" stroke="black" stroke-width="0.1"/>
<line x1="60.2218" y1="0.0000" x2="60.2218" y2="1.0000" stroke="black" stroke-width="0.1"/>
<line x1="60.7499" y1="0.0000" x2="60.7499" y2="1.0000" stroke="black" stroke-width="0.1"/>
<line x1="61.2697" y1="0.0000" x2="61.2697" y2="1.0000" stroke="black" stroke-width="0.1"/>
<line x1="61.7814" y1="0.0000" x2="61.7814" y2="1.5000" stroke="black" stroke-width="0.1"/>
<line x1="62.2853" y1="0.0000" x2="62.2853" y2="1.0000" stroke="black" stroke-width="0.1"/>
<line x1="62.7817" y1="0.0000" x2="62.7817" y2="1.0000" stroke="black" stroke-width="0.1"/>
<line x1="63.2707" y1="0.0000" x2="63.2707" y2="1.0000" stroke="black" stroke-width="0.1"/>
<line x1="63.7525" y1="0.0000" x2="63.7525" y2="1.0000" stroke="black" stroke-width="0.1"/>
<line x1="64.2275" y1="0.0000" x2="64.2275" y2="3.0000" stroke="black" stroke-width="0.2"/>
<line x1="64.6956" y1="0.0000" x2="64.6956" y2="1.0000" stroke="black" stroke-width="0.1"/>
<line x1="65.1573" y1="0.0000" x2="65.1573" y2="1.0000" stroke="black" stroke-width="0.1"/>
<line x1="65.6125" y1="0.0000" x2="65.6125" y2="1.0000" stroke="black" stroke-width="0.1"/>
<line x1="66.0616" y1="0.0000" x2="66.0616" y2="1.0000" stroke="black" stroke-width="0.1"/>
<line x1="66.5047" y1="0.0000" x2="66.5047" y2="1.5000" stroke="black" stroke-width="0.1"/>
<line x1="66.9418" y1="0.0000" x2="66.9418" y2="1.0000" stroke="black" stroke-width="0.1"/>
<line x1="67.3733" y1="0.0000" x2="67.3733" y2="1.0000" stroke="black" stroke-width="0.1"/>
<line x1="67.7992" y1="0.0000" x2="67.7992" y2="1.0000" stroke="black" stroke-width="0.1"/>
<line x1="68.2197" y1="0.0000" x2="68.2197" y2="1.0000" stroke="black" stroke-width="0.1"/>
<line x1="68.6348" y1="0.0000" x2="68.6348" y2="3.0000" stroke="black" stroke-width="0.2"/>
<line x1="69.0449" y1="0.0000" x2="69.0449" y2="1.0000" stroke="black" stroke-width="0.1"/>
<line x1="69.4499" y1="0.0000" x2="69.4499" y2="1.0000" stroke="black" stroke-width="0.1"/>
<line x1="69.8499" y1="0.0000" x2="69.8499" y2="1.0000" stroke="black" stroke-width="0.1"/>
<line x1="70.2452" y1="0.0000" x2="70.2452" y2="1.0000" stroke="black" stroke-width="0.1"/>
<line x1="70.6358" y1="0.0000" x2="70.6358" y2="1.5000" stroke="black" stroke-width="0.1"/>
<line x1="71.0219" y1="0.0000" x2="71.0219" y2="1.0000" stroke="black" stroke-width="0.1"/>
<line x1="71.4035" y1="0.0000" x2="71.4035" y2="1.0000" stroke="black" stroke-width="0.1"/>
<line x1="71.7807" y1="0.0000" x2="71.7807" y2="1.0000" stroke="black" stroke-width="0.1"/>
<line x1="72.1536" y1="0.0000" x2="72.1536" y2="1.0000" stroke="black" stroke-width="0.1"/>
<line x1="72.5224" y1="0.0000" x2="72.5224" y2="3.0000" stroke="black" stroke-width="0.2"/>
<line x1="72.8871" y1="0.0000" x2="72.8871" y2="1.0000" stroke="black" stroke-width="0.1"/>
<line x1="73.2479" y1="0.0000" x2="73.2479" y2="1.0000" stroke="black" stroke-width="0.1"/>
<line x1="73.6047" y1="0.0000" x2="73.6047" y2="1.0000" stroke="black" stroke-width="0.1"/>
<line x1="73.9577" y1="0.0000" x2="73.9577" y2="1.0000" stroke="black" stroke-width="0.1"/>
<line x1="74.3070" y1="0.0000" x2="74.3070" y2="1.5000" stroke="black" stroke-width="0.1"/>
<line x1="74.6526" y1="0.0000" x2="74.6526" y2="1.0000" stroke="black" stroke-width="0.1"/>
<line x1="74.9947" y1="0.0000" x2="74.9947" y2="1.0000" stroke="black" stroke-width="0.1"/>
<line x1="75.3332" y1="0.0000" x2="75.3332" y2="1.0000" stroke="black" stroke-width="0.1"/>
<line x1="75.6683" y1="0.0000" x2="75.6683" y2="1.0000" stroke="black" stroke-width="0.1"/>
</svg>