<svg xmlns="http://www.w3.org/2000/svg" width="76.0mm" height="10.0mm" viewBox="0 0 76.0 10.0">
<line x1="76.0000" y1="3.5000" x2="76.0000" y2="6.5000" stroke="black" stroke-width="0.1"/>
<line x1="72.8542" y1="4.5000" x2="72.8542" y2="5.5000" stroke="black" stroke-width="0.1"/>
<line x1="69.9822" y1="4.5000" x2="69.9822" y2="5.5000" stroke="black" stroke-width="0.1"/>
<line x1="67.3403" y1="4.5000" x2="67.3403" y2="5.5000" stroke="black" stroke-width="0.1"/>
<line x1="64.8943" y1="4.5000" x2="64.8943" y2="5.5000" stroke="black" stroke-width="0.1"/>
<line x1="62.6171" y1="4.2500" x2="62.6171" y2="5.7500" stroke="black" stroke-width="0.1"/>
<line x1="60.4869" y1="4.5000" x2="60.4869" y2="5.5000" stroke="black" stroke-width="0.1"/>
<line x1="58.4859" y1="4.5000" x2="58.4859" y2="5.5000" stroke="black" stroke-width="0.1"/>
<line x1="56.5993" y1="4.5000" x2="56.5993" y2="5.5000" stroke="black" stroke-width="0.1"/>
<line x1="54.8147" y1="4.5000" x2="54.8147" y2="5.5000" stroke="black" stroke-width="0.1"/>
<line x1="53.1217" y1="3.5000" x2="53.1217" y2="6.5000" stroke="black" stroke-width="0.1"/>
<line x1="51.5113" y1="4.5000" x2="51.5113" y2="5.5000" stroke="black" stroke-width="0.1"/>
<line x1="49.9759" y1="4.5000" x2="49.9759" y2="5.5000" stroke="black" stroke-width="0.1"/>
<line x1="48.5087" y1="4.5000" x2="48.5087" y2="5.5000" stroke="black" stroke-width="0.1"/>
<line x1="47.1039" y1="4.5000" x2="47.1039" y2="5.5000" stroke="black" stroke-width="0.1"/>
<line x1="45.7566" y1="4.2500" x2="45.7566" y2="5.7500" stroke="black" stroke-width="0.1"/>
<line x1="44.4620" y1="4.5000" x2="44.4620" y2="5.5000" stroke="black" stroke-width="0.1"/>
<line x1="43.2164" y1="4.5000" x2="43.2164" y2="5.5000" stroke="black" stroke-width="0.1"/>
<line x1="42.0160" y1="4.5000" x2="42.0160" y2="5.5000" stroke="black" stroke-width="0.1"/>
<line x1="40.8578" y1="4.5000" x2="40.8578" y2="5.5000" stroke="black" stroke-width="0.1"/>
<line x1="39.7388" y1="3.5000" x2="39.7388" y2="6.5000" stroke="black" stroke-width="0.1"/>
<line x1="38.6565" y1="4.5000" x2="38.6565" y2="5.5000" stroke="black" stroke-width="0.1"/>
<line x1="37.6086" y1="4.5000" x2="37.6086" y2="5.5000" stroke="black" stroke-width="0.1"/>
<line x1="36.5929" y1="4.5000" x2="36.5929" y2="5.5000" stroke="black" stroke-width="0.1"/>
<line x1="35.6076" y1="4.5000" x2="35.6076" y2="5.5000" stroke="black" stroke-width="0.1"/>
<line x1="34.6508" y1="4.2500" x2="34.6508" y2="5.7500" stroke="black" stroke-width="0.1"/>
<line x1="33.7210" y1="4.5000" x2="33.7210" y2="5.5000" stroke="black" stroke-width="0.1"/>
<line x1="32.8167" y1="4.5000" x2="32.8167" y2="5.5000" stroke="black" stroke-width="0.1"/>
<line x1="31.9364" y1="4.5000" x2="31.9364" y2="5.5000" stroke="black" stroke-width="0.1"/>
<line x1="31.0791" y1="4.5000" x2="31.0791" y2="5.5000" stroke="black" stroke-width="0.1"/>
<line x1="30.2434" y1="3.5000" x2="30.2434" y2="6.5000" stroke="black" stroke-width="0.1"/>
<line x1="29.4284" y1="4.5000" x2="29.4284" y2="5.5000" stroke="black" stroke-width="0.1"/>
<line x1="28.6331" y1="4.5000" x2="28.6331" y2="5.5000" stroke="black" stroke-width="0.1"/>
<line x1="27.8564" y1="4.5000" x2="27.8564" y2="5.5000" stroke="black" stroke-width="0.1"/>
<line x1="27.0976" y1="4.5000" x2="27.0976" y2="5.5000" stroke="black" stroke-width="0.1"/>
<line x1="26.3558" y1="4.2500" x2="26.3558" y2="5.7500" stroke="black" stroke-width="0.1"/>
<line x1="25.6304" y1="4.5000" x2="25.6304" y2="5.5000" stroke="black" stroke-width="0.1"/>
<line x1="24.9206" y1="4.5000" x2="24.9206" y2="5.5000" stroke="black" stroke-width="0.1"/>
<line x1="24.2257" y1="4.5000" x2="24.2257" y2="5.5000" stroke="black" stroke-width="0.1"/>
<line x1="23.5451" y1="4.5000" x2="23.5451" y2="5.5000" stroke="black" stroke-width="0.1"/>
<line x1="22.8783" y1="3.5000" x2="22.8783" y2="6.5000" stroke="black" stroke-width="0.1"/>
<line x1="22.2247" y1="4.5000" x2="22.2247" y2="5.5000" stroke="black" stroke-width="0.1"/>
<line x1="21.5837" y1="4.5000" x2="21.5837" y2="5.5000" stroke="black" stroke-width="0.1"/>
<line x1="20.9550" y1="4.5000" x2="20.9550" y2="5.5000" stroke="black" stroke-width="0.1"/>
<line x1="20.3381" y1="4.5000" x2="20.3381" y2="5.5000" stroke="black" stroke-width="0.1"/>
<line x1="19.7324" y1="4.2500" x2="19.7324" y2="5.7500" stroke="black" stroke-width="0.1"/>
<line x1="19.1377" y1="4.5000" x2="19.1377" y2="5.5000" stroke="black" stroke-width="0.1"/>
<line x1="18.5535" y1="4.5000" x2="18.5535" y2="5.5000" stroke="black" stroke-width="0.1"/>
<line x1="17.9795" y1="4.5000" x2="17.9795" y2="5.5000" stroke="black" stroke-width="0.1"/>
<line x1="17.4152" y1="4.5000" x2="17.4152" y2="5.5000" stroke="black" stroke-width="0.1"/>
<line x1="16.8605" y1="3.5000" x2="16.8605" y2="6.5000" stroke="black" stroke-width="0.1"/>
<line x1="16.3149" y1="4.5000" x2="16.3149" y2="5.5000" stroke="black" stroke-width="0.1"/>
<line x1="15.7782" y1="4.5000" x2="15.7782" y2="5.5000" stroke="black" stroke-width="0.1"/>
<line x1="15.2501" y1="4.5000" x2="15.2501" y2="5.5000" stroke="black" stroke-width="0.1"/>
<line x1="14.7303" y1="4.5000" x2="14.7303" y2="5.5000" stroke="black" stroke-width="0.1"/>
<line x1="14.2186" y1="4.2500" x2="14.2186" y2="5.7500" stroke="black" stroke-width="0.1"/>
<line x1="13.7147" y1="4.5000" x2="13.7147" y2="5.5000" stroke="black" stroke-width="0.1"/>
<line x1="13.2183" y1="4.5000" x2="13.2183" y2="5.5000" stroke="black" stroke-width="0.1"/>
<line x1="12.7293" y1="4.5000" x2="12.7293" y2="5.5000" stroke="black" stroke-width="0.1"/>
<line x1="12.2475" y1="4.5000" x2="12.2475" y2="5.5000" stroke="black" stroke-width="0.1"/>
<line x1="11.7725" y1="3.5000" x2="11.7725" y2="6.5000" stroke="black" stroke-width="0.1"/>
<line x1="11.3044" y1="4.5000" x2="11.3044" y2="5.5000" stroke="black" stroke-width="0.1"/>
<line x1="10.8427" y1="4.5000" x2="10.8427" y2="5.5000" stroke="black" stroke-width="0.1"/>
<line x1="10.3875" y1="4.5000" x2="10.3875" y2="5.5000" stroke="black" stroke-width="0.1"/>
<line x1="9.9384" y1="4.5000" x2="9.9384" y2="5.5000" stroke="black" stroke-width="0.1"/>
<line x1="9.4953" y1="4.2500" x2="9.4953" y2="5.7500" stroke="black" stroke-width="0.1"/>
<line x1="9.0582" y1="4.5000" x2="9.0582" y2="5.5000" stroke="black" stroke-width="0.1"/>
<line x1="8.6267" y1="4.5000" x2="8.6267" y2="5.5000" stroke="black" stroke-width="0.1"/>
<line x1="8.2008" y1="4.5000" x2="8.2008" y2="5.5000" stroke="black" stroke-width="0.1"/>
<line x1="7.7803" y1="4.5000" x2="7.7803" y2="5.5000" stroke="black" stroke-width="0.1"/>
<line x1="7.3652" y1="3.5000" x2="7.3652" y2="6.5000" stroke="black" stroke-width="0.1"/>
<line x1="6.9551" y1="4.5000" x2="6.9551" y2="5.5000" stroke="black" stroke-width="0.1"/>
<line x1="6.5501" y1="4.5000" x2="6.5501" y2="5.5000" stroke="black" stroke-width="0.1"/>
<line x1="6.1501" y1="4.5000" x2="6.1501" y2="5.5000" stroke="black" stroke-width="0.1"/>
<line x1="5.7548" y1="4.5000" x2="5.7548" y2="5.5000" stroke="black" stroke-width="0.1"/>
<line x1="5.3642" y1="4.2500" x2="5.3642" y2="5.7500" stroke="black" stroke-width="0.1"/>
<line x1="4.9781" y1="4.5000" x2="4.9781" y2="5.5000" stroke="black" stroke-width="0.1"/>
<line x1="4.5965" y1="4.5000" x2="4.5965" y2="5.5000" stroke="black" stroke-width="0.1"/>
<line x1="4.2193" y1="4.5000" x2="4.2193" y2="5.5000" stroke="black" stroke-width="0.1"/>
<line x1="3.8464" y1="4.5000" x2="3.8464" y2="5.5000" stroke="black" stroke-width="0.1"/>
<line x1="3.4776" y1="3.5000" x2="3.4776" y2="6.5000" stroke="black" stroke-width="0.1"/>
<line x1="3.1129" y1="4.5000" x2="3.1129" y2="5.5000" stroke="black" stroke-width="0.1"/>
<line x1="2.7521" y1="4.5000" x2="2.7521" y2="5.5000" stroke="black" stroke-width="0.1"/>
<line x1="2.3953" y1="4.5000" x2="2.3953" y2="5.5000" stroke="black" stroke-width="0.1"/>
<line x1="2.0423" y1="4.5000" x2="2.0423" y2="5.5000" stroke="black" stroke-width="0.1"/>
<line x1="1.6930" y1="4.2500" x2="1.6930" y2="5.7500" stroke="black" stroke-width="0.1"/>
<line x1="1.3474" y1="4.5000" x2="1.3474" y2="5.5000" stroke="black" stroke-width="0.1"/>
<line x1="1.0053" y1="4.5000" x2="1.0053" y2="5.5000" stroke="black" stroke-width="0.1"/>
<line x1="0.6668" y1="4.5000" x2="0.6668" y2="5.5000" stroke="black" stroke-width="0.1"/>
<line x1="0.3317" y1="4.5000" x2="0.3317" y2="5.5000" stroke="black" stroke-width="0.1"/>
<line x1="75.6716" y1="4.6250" x2="75.6716" y2="5.3750" stroke="black" stroke-width="0.1"/>
<line x1="75.3464" y1="4.6250" x2="75.3464" y2="5.3750" stroke="black" stroke-width="0.1"/>
<line x1="75.0244" y1="4.6250" x2="75.0244" y2="5.3750" stroke="black" stroke-width="0.1"/>
<line x1="74.7055" y1="4.6250" x2="74.7055" y2="5.3750" stroke="black" stroke-width="0.1"/>
<line x1="74.3896" y1="4.6250" x2="74.3896" y2="5.3750" stroke="black" stroke-width="0.1"/>
<line x1="74.0768" y1="4.6250" x2="74.0768" y2="5.3750" stroke="black" stroke-width="0.1"/>
<line x1="73.7668" y1="4.6250" x2="73.7668" y2="5.3750" stroke="black" stroke-width="0.1"/>
<line x1="73.4598" y1="4.6250" x2="73.4598" y2="5.3750" stroke="black" stroke-width="0.1"/>
<line x1="73.1556" y1="4.6250" x2="73.1556" y2="5.3750" stroke="black" stroke-width="0.1"/>
<line x1="72.5555" y1="4.6250" x2="72.5555" y2="5.3750" stroke="black" stroke-width="0.1"/>
<line x1="72.2594" y1="4.6250" x2="72.2594" y2="5.3750" stroke="black" stroke-width="0.1"/>
<line x1="71.9660" y1="4.6250" x2="71.9660" y2="5.3750" stroke="black" stroke-width="0.1"/>
<line x1="71.6752" y1="4.6250" x2="71.6752" y2="5.3750" stroke="black" stroke-width="0.1"/>
<line x1="71.3870" y1="4.6250" x2="71.3870" y2="5.3750" stroke="black" stroke-width="0.1"/>
<line x1="71.1012" y1="4.6250" x2="71.1012" y2="5.3750" stroke="black" stroke-width="0.1"/>
<line x1="70.8179" y1="4.6250" x2="70.8179" y2="5.3750" stroke="black" stroke-width="0.1"/>
<line x1="70.5370" y1="4.6250" x2="70.5370" y2="5.3750" stroke="black" stroke-width="0.1"/>
<line x1="70.2584" y1="4.6250" x2="70.2584" y2="5.3750" stroke="black" stroke-width="0.1"/>
<line x1="69.7083" y1="4.6250" x2="69.7083" y2="5.3750" stroke="black" stroke-width="0.1"/>
<line x1="69.4367" y1="4.6250" x2="69.4367" y2="5.3750" stroke="black" stroke-width="0.1"/>
<line x1="69.1672" y1="4.6250" x2="69.1672" y2="5.3750" stroke="black" stroke-width="0.1"/>
<line x1="68.9000" y1="4.6250" x2="68.9000" y2="5.3750" stroke="black" stroke-width="0.1"/>
<line x1="68.6348" y1="4.6250" x2="68.6348" y2="5.3750" stroke="black" stroke-width="0.1"/>
<line x1="68.3718" y1="4.6250" x2="68.3718" y2="5.3750" stroke="black" stroke-width="0.1"/>
<line x1="68.1109" y1="4.6250" x2="68.1109" y2="5.3750" stroke="black" stroke-width="0.1"/>
<line x1="67.8520" y1="4.6250" x2="67.8520" y2="5.3750" stroke="black" stroke-width="0.1"/>
<line x1="67.5952" y1="4.6250" x2="67.5952" y2="5.3750" stroke="black" stroke-width="0.1"/>
<line x1="67.0874" y1="4.6250" x2="67.0874" y2="5.3750" stroke="black" stroke-width="0.1"/>
<line x1="66.8364" y1="4.6250" x2="66.8364" y2="5.3750" stroke="black" stroke-width="0.1"/>
<line x1="66.5873" y1="4.6250" x2="66.5873" y2="5.3750" stroke="black" stroke-width="0.1"/>
<line x1="66.3400" y1="4.6250" x2="66.3400" y2="5.3750" stroke="black" stroke-width="0.1"/>
<line x1="66.0946" y1="4.6250" x2="66.0946" y2="5.3750" stroke="black" stroke-width="0.1"/>
<line x1="65.8510" y1="4.6250" x2="65.8510" y2="5.3750" stroke="black" stroke-width="0.1"/>
<line x1="65.6092" y1="4.6250" x2="65.6092" y2="5.3750" stroke="black" stroke-width="0.1"/>
<line x1="65.3692" y1="4.6250" x2="65.3692" y2="5.3750" stroke="black" stroke-width="0.1"/>
<line x1="65.1309" y1="4.6250" x2="65.1309" y2="5.3750" stroke="black" stroke-width="0.1"/>
<line x1="64.6593" y1="4.6250" x2="64.6593" y2="5.3750" stroke="black" stroke-width="0.1"/>
<line x1="64.4261" y1="4.6250" x2="64.4261" y2="5.3750" stroke="black" stroke-width="0.1"/>
<line x1="64.1945" y1="4.6250" x2="64.1945" y2="5.3750" stroke="black" stroke-width="0.1"/>
<line x1="63.9645" y1="4.6250" x2="63.9645" y2="5.3750" stroke="black" stroke-width="0.1"/>
<line x1="63.7360" y1="4.6250" x2="63.7360" y2="5.3750" stroke="black" stroke-width="0.1"/>
<line x1="63.5092" y1="4.6250" x2="63.5092" y2="5.3750" stroke="black" stroke-width="0.1"/>
<line x1="63.2839" y1="4.6250" x2="63.2839" y2="5.3750" stroke="black" stroke-width="0.1"/>
<line x1="63.0601" y1="4.6250" x2="63.0601" y2="5.3750" stroke="black" stroke-width="0.1"/>
<line x1="62.8378" y1="4.6250" x2="62.8378" y2="5.3750" stroke="black" stroke-width="0.1"/>
<line x1="62.3978" y1="4.6250" x2="62.3978" y2="5.3750" stroke="black" stroke-width="0.1"/>
<line x1="62.1799" y1="4.6250" x2="62.1799" y2="5.3750" stroke="black" stroke-width="0.1"/>
<line x1="61.9635" y1="4.6250" x2="61.9635" y2="5.3750" stroke="black" stroke-width="0.1"/>
<line x1="61.7484" y1="4.6250" x2="61.7484" y2="5.3750" stroke="black" stroke-width="0.1"/>
<line x1="61.5348" y1="4.6250" x2="61.5348" y2="5.3750" stroke="black" stroke-width="0.1"/>
<line x1="61.3225" y1="4.6250" x2="61.3225" y2="5.3750" stroke="black" stroke-width="0.1"/>
<line x1="61.1116" y1="4.6250" x2="61.1116" y2="5.3750" stroke="black" stroke-width="0.1"/>
<line x1="60.9021" y1="4.6250" x2="60.9021" y2="5.3750" stroke="black" stroke-width="0.1"/>
<line x1="60.6938" y1="4.6250" x2="60.6938" y2="5.3750" stroke="black" stroke-width="0.1"/>
<line x1="60.2812" y1="4.6250" x2="60.2812" y2="5.3750" stroke="black" stroke-width="0.1"/>
<line x1="60.0769" y1="4.6250" x2="60.0769" y2="5.3750" stroke="black" stroke-width="0.1"/>
<line x1="59.8737" y1="4.6250" x2="59.8737" y2="5.3750" stroke="black" stroke-width="0.1"/>
<line x1="59.6719" y1="4.6250" x2="59.6719" y2="5.3750" stroke="black" stroke-width="0.1"/>
<line x1="59.4712" y1="4.6250" x2="59.4712" y2="5.3750" stroke="black" stroke-width="0.1"/>
<line x1="59.2718" y1="4.6250" x2="59.2718" y2="5.3750" stroke="black" stroke-width="0.1"/>
<line x1="59.0735" y1="4.6250" x2="59.0735" y2="5.3750" stroke="black" stroke-width="0.1"/>
<line x1="58.8765" y1="4.6250" x2="58.8765" y2="5.3750" stroke="black" stroke-width="0.1"/>
<line x1="58.6806" y1="4.6250" x2="58.6806" y2="5.3750" stroke="black" stroke-width="0.1"/>
<line x1="58.2923" y1="4.6250" x2="58.2923" y2="5.3750" stroke="black" stroke-width="0.1"/>
<line x1="58.0998" y1="4.6250" x2="58.0998" y2="5.3750" stroke="black" stroke-width="0.1"/>
<line x1="57.9085" y1="4.6250" x2="57.9085" y2="5.3750" stroke="black" stroke-width="0.1"/>
<line x1="57.7183" y1="4.6250" x2="57.7183" y2="5.3750" stroke="black" stroke-width="0.1"/>
<line x1="57.5291" y1="4.6250" x2="57.5291" y2="5.3750" stroke="black" stroke-width="0.1"/>
<line x1="57.3410" y1="4.6250" x2="57.3410" y2="5.3750" stroke="black" stroke-width="0.1"/>
<line x1="57.1540" y1="4.6250" x2="57.1540" y2="5.3750" stroke="black" stroke-width="0.1"/>
<line x1="56.9681" y1="4.6250" x2="56.9681" y2="5.3750" stroke="black" stroke-width="0.1"/>
<line x1="56.7832" y1="4.6250" x2="56.7832" y2="5.3750" stroke="black" stroke-width="0.1"/>
<line x1="56.4164" y1="4.6250" x2="56.4164" y2="5.3750" stroke="black" stroke-width="0.1"/>
<line x1="56.2346" y1="4.6250" x2="56.2346" y2="5.3750" stroke="black" stroke-width="0.1"/>
<line x1="56.0537" y1="4.6250" x2="56.0537" y2="5.3750" stroke="black" stroke-width="0.1"/>
<line x1="55.8738" y1="4.6250" x2="55.8738" y2="5.3750" stroke="black" stroke-width="0.1"/>
<line x1="55.6949" y1="4.6250" x2="55.6949" y2="5.3750" stroke="black" stroke-width="0.1"/>
<line x1="55.5170" y1="4.6250" x2="55.5170" y2="5.3750" stroke="black" stroke-width="0.1"/>
<line x1="55.3400" y1="4.6250" x2="55.3400" y2="5.3750" stroke="black" stroke-width="0.1"/>
<line x1="55.1640" y1="4.6250" x2="55.1640" y2="5.3750" stroke="black" stroke-width="0.1"/>
<line x1="54.9889" y1="4.6250" x2="54.9889" y2="5.3750" stroke="black" stroke-width="0.1"/>
<line x1="54.6415" y1="4.6250" x2="54.6415" y2="5.3750" stroke="black" stroke-width="0.1"/>
<line x1="54.4691" y1="4.6250" x2="54.4691" y2="5.3750" stroke="black" stroke-width="0.1"/>
<line x1="54.2976" y1="4.6250" x2="54.2976" y2="5.3750" stroke="black" stroke-width="0.1"/>
<line x1="54.1271" y1="4.6250" x2="54.1271" y2="5.3750" stroke="black" stroke-width="0.1"/>
<line x1="53.9574" y1="4.6250" x2="53.9574" y2="5.3750" stroke="black" stroke-width="0.1"/>
<line x1="53.7885" y1="4.6250" x2="53.7885" y2="5.3750" stroke="black" stroke-width="0.1"/>
<line x1="53.6206" y1="4.6250" x2="53.6206" y2="5.3750" stroke="black" stroke-width="0.1"/>
<line x1="53.4534" y1="4.6250" x2="53.4534" y2="5.3750" stroke="black" stroke-width="0.1"/>
<line x1="53.2872" y1="4.6250" x2="53.2872" y2="5.3750" stroke="black" stroke-width="0.1"/>
<line x1="52.7933" y1="4.6250" x2="52.7933" y2="5.3750" stroke="black" stroke-width="0.1"/>
<line x1="52.4681" y1="4.6250" x2="52.4681" y2="5.3750" stroke="black" stroke-width="0.1"/>
<line x1="52.1461" y1="4.6250" x2="52.1461" y2="5.3750" stroke="black" stroke-width="0.1"/>
<line x1="51.8272" y1="4.6250" x2="51.8272" y2="5.3750" stroke="black" stroke-width="0.1"/>
<line x1="51.1985" y1="4.6250" x2="51.1985" y2="5.3750" stroke="black" stroke-width="0.1"/>
<line x1="50.8886" y1="4.6250" x2="50.8886" y2="5.3750" stroke="black" stroke-width="0.1"/>
<line x1="50.5815" y1="4.6250" x2="50.5815" y2="5.3750" stroke="black" stroke-width="0.1"/>
<line x1="50.2773" y1="4.6250" x2="50.2773" y2="5.3750" stroke="black" stroke-width="0.1"/>
<line x1="49.6772" y1="4.6250" x2="49.6772" y2="5.3750" stroke="black" stroke-width="0.1"/>
<line x1="49.3812" y1="4.6250" x2="49.3812" y2="5.3750" stroke="black" stroke-width="0.1"/>
<line x1="49.0878" y1="4.6250" x2="49.0878" y2="5.3750" stroke="black" stroke-width="0.1"/>
<line x1="48.7970" y1="4.6250" x2="48.7970" y2="5.3750" stroke="black" stroke-width="0.1"/>
<line x1="48.2229" y1="4.6250" x2="48.2229" y2="5.3750" stroke="black" stroke-width="0.1"/>
<line x1="47.9396" y1="4.6250" x2="47.9396" y2="5.3750" stroke="black" stroke-width="0.1"/>
<line x1="47.6587" y1="4.6250" x2="47.6587" y2="5.3750" stroke="black" stroke-width="0.1"/>
<line x1="47.3802" y1="4.6250" x2="47.3802" y2="5.3750" stroke="black" stroke-width="0.1"/>
<line x1="46.8300" y1="4.6250" x2="46.8300" y2="5.3750" stroke="black" stroke-width="0.1"/>
<line x1="46.5584" y1="4.6250" x2="46.5584" y2="5.3750" stroke="black" stroke-width="0.1"/>
<line x1="46.2889" y1="4.6250" x2="46.2889" y2="5.3750" stroke="black" stroke-width="0.1"/>
<line x1="46.0217" y1="4.6250" x2="46.0217" y2="5.3750" stroke="black" stroke-width="0.1"/>
<line x1="45.4936" y1="4.6250" x2="45.4936" y2="5.3750" stroke="black" stroke-width="0.1"/>
<line x1="45.2326" y1="4.6250" x2="45.2326" y2="5.3750" stroke="black" stroke-width="0.1"/>
<line x1="44.9738" y1="4.6250" x2="44.9738" y2="5.3750" stroke="black" stroke-width="0.1"/>
<line x1="44.7169" y1="4.6250" x2="44.7169" y2="5.3750" stroke="black" stroke-width="0.1"/>
<line x1="44.2091" y1="4.6250" x2="44.2091" y2="5.3750" stroke="black" stroke-width="0.1"/>
<line x1="43.9581" y1="4.6250" x2="43.9581" y2="5.3750" stroke="black" stroke-width="0.1"/>
<line x1="43.7090" y1="4.6250" x2="43.7090" y2="5.3750" stroke="black" stroke-width="0.1"/>
<line x1="43.4618" y1="4.6250" x2="43.4618" y2="5.3750" stroke="black" stroke-width="0.1"/>
<line x1="42.9728" y1="4.6250" x2="42.9728" y2="5.3750" stroke="black" stroke-width="0.1"/>
<line x1="42.7310" y1="4.6250" x2="42.7310" y2="5.3750" stroke="black" stroke-width="0.1"/>
<line x1="42.4909" y1="4.6250" x2="42.4909" y2="5.3750" stroke="black" stroke-width="0.1"/>
<line x1="42.2526" y1="4.6250" x2="42.2526" y2="5.3750" stroke="black" stroke-width="0.1"/>
<line x1="41.7811" y1="4.6250" x2="41.7811" y2="5.3750" stroke="black" stroke-width="0.1"/>
<line x1="41.5478" y1="4.6250" x2="41.5478" y2="5.3750" stroke="black" stroke-width="0.1"/>
<line x1="41.3162" y1="4.6250" x2="41.3162" y2="5.3750" stroke="black" stroke-width="0.1"/>
<line x1="41.0862" y1="4.6250" x2="41.0862" y2="5.3750" stroke="black" stroke-width="0.1"/>
<line x1="40.6309" y1="4.6250" x2="40.6309" y2="5.3750" stroke="black" stroke-width="0.1"/>
<line x1="40.4056" y1="4.6250" x2="40.4056" y2="5.3750" stroke="black" stroke-width="0.1"/>
<line x1="40.1818" y1="4.6250" x2="40.1818" y2="5.3750" stroke="black" stroke-width="0.1"/>
<line x1="39.9596" y1="4.6250" x2="39.9596" y2="5.3750" stroke="black" stroke-width="0.1"/>
<line x1="39.5195" y1="4.6250" x2="39.5195" y2="5.3750" stroke="black" stroke-width="0.1"/>
<line x1="39.3016" y1="4.6250" x2="39.3016" y2="5.3750" stroke="black" stroke-width="0.1"/>
<line x1="39.0852" y1="4.6250" x2="39.0852" y2="5.3750" stroke="black" stroke-width="0.1"/>
<line x1="38.8701" y1="4.6250" x2="38.8701" y2="5.3750" stroke="black" stroke-width="0.1"/>
<line x1="38.4443" y1="4.6250" x2="38.4443" y2="5.3750" stroke="black" stroke-width="0.1"/>
<line x1="38.2333" y1="4.6250" x2="38.2333" y2="5.3750" stroke="black" stroke-width="0.1"/>
<line x1="38.0238" y1="4.6250" x2="38.0238" y2="5.3750" stroke="black" stroke-width="0.1"/>
<line x1="37.8155" y1="4.6250" x2="37.8155" y2="5.3750" stroke="black" stroke-width="0.1"/>
<line x1="37.4030" y1="4.6250" x2="37.4030" y2="5.3750" stroke="black" stroke-width="0.1"/>
<line x1="37.1986" y1="4.6250" x2="37.1986" y2="5.3750" stroke="black" stroke-width="0.1"/>
<line x1="36.9955" y1="4.6250" x2="36.9955" y2="5.3750" stroke="black" stroke-width="0.1"/>
<line x1="36.7936" y1="4.6250" x2="36.7936" y2="5.3750" stroke="black" stroke-width="0.1"/>
<line x1="36.3935" y1="4.6250" x2="36.3935" y2="5.3750" stroke="black" stroke-width="0.1"/>
<line x1="36.1953" y1="4.6250" x2="36.1953" y2="5.3750" stroke="black" stroke-width="0.1"/>
<line x1="35.9982" y1="4.6250" x2="35.9982" y2="5.3750" stroke="black" stroke-width="0.1"/>
<line x1="35.8023" y1="4.6250" x2="35.8023" y2="5.3750" stroke="black" stroke-width="0.1"/>
<line x1="35.4140" y1="4.6250" x2="35.4140" y2="5.3750" stroke="black" stroke-width="0.1"/>
<line x1="35.2216" y1="4.6250" x2="35.2216" y2="5.3750" stroke="black" stroke-width="0.1"/>
<line x1="35.0302" y1="4.6250" x2="35.0302" y2="5.3750" stroke="black" stroke-width="0.1"/>
<line x1="34.8400" y1="4.6250" x2="34.8400" y2="5.3750" stroke="black" stroke-width="0.1"/>
<line x1="34.4628" y1="4.6250" x2="34.4628" y2="5.3750" stroke="black" stroke-width="0.1"/>
<line x1="34.2758" y1="4.6250" x2="34.2758" y2="5.3750" stroke="black" stroke-width="0.1"/>
<line x1="34.0898" y1="4.6250" x2="34.0898" y2="5.3750" stroke="black" stroke-width="0.1"/>
<line x1="33.9049" y1="4.6250" x2="33.9049" y2="5.3750" stroke="black" stroke-width="0.1"/>
<line x1="33.5381" y1="4.6250" x2="33.5381" y2="5.3750" stroke="black" stroke-width="0.1"/>
<line x1="33.3563" y1="4.6250" x2="33.3563" y2="5.3750" stroke="black" stroke-width="0.1"/>
<line x1="33.1754" y1="4.6250" x2="33.1754" y2="5.3750" stroke="black" stroke-width="0.1"/>
<line x1="32.9956" y1="4.6250" x2="32.9956" y2="5.3750" stroke="black" stroke-width="0.1"/>
<line x1="32.6387" y1="4.6250" x2="32.6387" y2="5.3750" stroke="black" stroke-width="0.1"/>
<line x1="32.4618" y1="4.6250" x2="32.4618" y2="5.3750" stroke="black" stroke-width="0.1"/>
<line x1="32.2857" y1="4.6250" x2="32.2857" y2="5.3750" stroke="black" stroke-width="0.1"/>
<line x1="32.1106" y1="4.6250" x2="32.1106" y2="5.3750" stroke="black" stroke-width="0.1"/>
<line x1="31.7632" y1="4.6250" x2="31.7632" y2="5.3750" stroke="black" stroke-width="0.1"/>
<line x1="31.5908" y1="4.6250" x2="31.5908" y2="5.3750" stroke="black" stroke-width="0.1"/>
<line x1="31.4194" y1="4.6250" x2="31.4194" y2="5.3750" stroke="black" stroke-width="0.1"/>
<line x1="31.2488" y1="4.6250" x2="31.2488" y2="5.3750" stroke="black" stroke-width="0.1"/>
<line x1="30.9103" y1="4.6250" x2="30.9103" y2="5.3750" stroke="black" stroke-width="0.1"/>
<line x1="30.7423" y1="4.6250" x2="30.7423" y2="5.3750" stroke="black" stroke-width="0.1"/>
<line x1="30.5752" y1="4.6250" x2="30.5752" y2="5.3750" stroke="black" stroke-width="0.1"/>
<line x1="30.4089" y1="4.6250" x2="30.4089" y2="5.3750" stroke="black" stroke-width="0.1"/>
</svg>