<svg xmlns="http://www.w3.org/2000/svg" width="76.0mm" height="10.0mm" viewBox="0 0 76.0 10.0">
<line x1="0.0000" y1="0" x2="0.0000" y2="3.0" stroke="black" stroke-width="0.2"/>
<line x1="3.1458" y1="0" x2="3.1458" y2="1.0" stroke="black" stroke-width="0.1"/>
<line x1="6.0178" y1="0" x2="6.0178" y2="1.0" stroke="black" stroke-width="0.1"/>
<line x1="8.6597" y1="0" x2="8.6597" y2="1.0" stroke="black" stroke-width="0.1"/>
<line x1="11.1057" y1="0" x2="11.1057" y2="1.0" stroke="black" stroke-width="0.1"/>
<line x1="13.3829" y1="0" x2="13.3829" y2="1.5" stroke="black" stroke-width="0.1"/>
<line x1="15.5131" y1="0" x2="15.5131" y2="1.0" stroke="black" stroke-width="0.1"/>
<line x1="17.5141" y1="0" x2="17.5141" y2="1.0" stroke="black" stroke-width="0.1"/>
<line x1="19.4007" y1="0" x2="19.4007" y2="1.0" stroke="black" stroke-width="0.1"/>
<line x1="21.1853" y1="0" x2="21.1853" y2="1.0" stroke="black" stroke-width="0.1"/>
<line x1="22.8783" y1="0" x2="22.8783" y2="3.0" stroke="black" stroke-width="0.2"/>
<line x1="24.4887" y1="0" x2="24.4887" y2="1.0" stroke="black" stroke-width="0.1"/>
<line x1="26.0241" y1="0" x2="26.0241" y2="1.0" stroke="black" stroke-width="0.1"/>
<line x1="27.4913" y1="0" x2="27.4913" y2="1.0" stroke="black" stroke-width="0.1"/>
<line x1="28.8961" y1="0" x2="28.8961" y2="1.0" stroke="black" stroke-width="0.1"/>
<line x1="30.2434" y1="0" x2="30.2434" y2="1.5" stroke="black" stroke-width="0.1"/>
<line x1="31.5380" y1="0" x2="31.5380" y2="1.0" stroke="black" stroke-width="0.1"/>
<line x1="32.7836" y1="0" x2="32.7836" y2="1.0" stroke="black" stroke-width="0.1"/>
<line x1="33.9840" y1="0" x2="33.9840" y2="1.0" stroke="black" stroke-width="0.1"/>
<line x1="35.1422" y1="0" x2="35.1422" y2="1.0" stroke="black" stroke-width="0.1"/>
<line x1="36.2612" y1="0" x2="36.2612" y2="3.0" stroke="black" stroke-width="0.2"/>
<line x1="37.3435" y1="0" x2="37.3435" y2="1.0" stroke="black" stroke-width="0.1"/>
<line x1="38.3914" y1="0" x2="38.3914" y2="1.0" stroke="black" stroke-width="0.1"/>
<line x1="39.4071" y1="0" x2="39.4071" y2="1.0" stroke="black" stroke-width="0.1"/>
<line x1="40.3924" y1="0" x2="40.3924" y2="1.0" stroke="black" stroke-width="0.1"/>
<line x1="41.3492" y1="0" x2="41.3492" y2="1.5" stroke="black" stroke-width="0.1"/>
<line x1="42.2790" y1="0" x2="42.2790" y2="1.0" stroke="black" stroke-width="0.1"/>
<line x1="43.1833" y1="0" x2="43.1833" y2="1.0" stroke="black" stroke-width="0.1"/>
<line x1="44.0636" y1="0" x2="44.0636" y2="1.0" stroke="black" stroke-width="0.1"/>
<line x1="44.9209" y1="0" x2="44.9209" y2="1.0" stroke="black" stroke-width="0.1"/>
<line x1="45.7566" y1="0" x2="45.7566" y2="3.0" stroke="black" stroke-width="0.2"/>
<line x1="46.5716" y1="0" x2="46.5716" y2="1.0" stroke="black" stroke-width="0.1"/>
<line x1="47.3669" y1="0" x2="47.3669" y2="1.0" stroke="black" stroke-width="0.1"/>
<line x1="48.1436" y1="0" x2="48.1436" y2="1.0" stroke="black" stroke-width="0.1"/>
<line x1="48.9024" y1="0" x2="48.9024" y2="1.0" stroke="black" stroke-width="0.1"/>
<line x1="49.6442" y1="0" x2="49.6442" y2="1.5" stroke="black" stroke-width="0.1"/>
<line x1="50.3696" y1="0" x2="50.3696" y2="1.0" stroke="black" stroke-width="0.1"/>
<line x1="51.0794" y1="0" x2="51.0794" y2="1.0" stroke="black" stroke-width="0.1"/>
<line x1="51.7743" y1="0" x2="51.7743" y2="1.0" stroke="black" stroke-width="0.1"/>
<line x1="52.4549" y1="0" x2="52.4549" y2="1.0" stroke="black" stroke-width="0.1"/>
<line x1="53.1217" y1="0" x2="53.1217" y2="3.0" stroke="black" stroke-width="0.2"/>
<line x1="53.7753" y1="0" x2="53.7753" y2="1.0" stroke="black" stroke-width="0.1"/>
<line x1="54.4163" y1="0" x2="54.4163" y2="1.0" stroke="black" stroke-width="0.1"/>
<line x1="55.0450" y1="0" x2="55.0450" y2="1.0" stroke="black" stroke-width="0.1"/>
<line x1="55.6619" y1="0" x2="55.6619" y2="1.0" stroke="black" stroke-width="0.1"/>
<line x1="56.2676" y1="0" x2="56.2676" y2="1.5" stroke="black" stroke-width="0.1"/>
<line x1="56.8623" y1="0" x2="56.8623" y2="1.0" stroke="black" stroke-width="0.1"/>
<line x1="57.4465" y1="0" x2="57.4465" y2="1.0" stroke="black" stroke-width="0.1"/>
<line x1="58.0205" y1="0" x2="58.0205" y2="1.0" stroke="black" stroke-width="0.1"/>
<line x1="58.5848" y1="0" x2="58.5848" y2="1.0" stroke="black" stroke-width="0.1"/>
<line x1="59.1395" y1="0" x2="59.1395" y2="3.0" stroke="black" stroke-width="0.2"/>
<line x1="59.6851" y1="0" x2="59.6851" y2="1.0" stroke="black" stroke-width="0.1"/>
<line x1="60.2218" y1="0" x2="60.2218" y2="1.0" stroke="black" stroke-width="0.1"/>
<line x1="60.7499" y1="0" x2="60.7499" y2="1.0" stroke="black" stroke-width="0.1"/>
<line x1="61.2697" y1="0" x2="61.2697" y2="1.0" stroke="black" stroke-width="0.1"/>
<line x1="61.7814" y1="0" x2="61.7814" y2="1.5" stroke="black" stroke-width="0.1"/>
<line x1="62.2853" y1="0" x2="62.2853" y2="1.0" stroke="black" stroke-width="0.1"/>
<line x1="62.7817" y1="0" x2="62.7817" y2="1.0" stroke="black" stroke-width="0.1"/>
<line x1="63.2707" y1="0" x2="63.2707" y2="1.0" stroke="black" stroke-width="0.1"/>
<line x1="63.7525" y1="0" x2="63.7525" y2="1.0" stroke="black" stroke-width="0.1"/>
<line x1="64.2275" y1="0" x2="64.2275" y2="3.0" stroke="black" stroke-width="0.2"/>
<line x1="64.6956" y1="0" x2="64.6956" y2="1.0" stroke="black" stroke-width="0.1"/>
<line x1="65.1573" y1="0" x2="65.1573" y2="1.0" stroke="black" stroke-width="0.1"/>
<line x1="65.6125" y1="0" x2="65.6125" y2="1.0" stroke="black" stroke-width="0.1"/>
<line x1="66.0616" y1="0" x2="66.0616" y2="1.0" stroke="black" stroke-width="0.1"/>
<line x1="66.5047" y1="0" x2="66.5047" y2="1.5" stroke="black" stroke-width="0.1"/>
<line x1="66.9418" y1="0" x2="66.9418" y2="1.0" stroke="black" stroke-width="0.1"/>
<line x1="67.3733" y1="0" x2="67.3733" y2="1.0" stroke="black" stroke-width="0.1"/>
<line x1="67.7992" y1="0" x2="67.7992" y2="1.0" stroke="black" stroke-width="0.1"/>
<line x1="68.2197" y1="0" x2="68.2197" y2="1.0" stroke="black" stroke-width="0.1"/>
<line x1="68.6348" y1="0" x2="68.6348" y2="3.0" stroke="black" stroke-width="0.2"/>
<line x1="69.0449" y1="0" x2="69.0449" y2="1.0" stroke="black" stroke-width="0.1"/>
<line x1="69.4499" y1="0" x2="69.4499" y2="1.0" stroke="black" stroke-width="0.1"/>
<line x1="69.8499" y1="0" x2="69.8499" y2="1.0" stroke="black" stroke-width="0.1"/>
<line x1="70.2452" y1="0" x2="70.2452" y2="1.0" stroke="black" stroke-width="0.1"/>
<line x1="70.6358" y1="0" x2="70.6358" y2="1.5" stroke="black" stroke-width="0.1"/>
<line x1="71.0219" y1="0" x2="71.0219" y2="1.0" stroke="black" stroke-width="0.1"/>
<line x1="71.4035" y1="0" x2="71.4035" y2="1.0" stroke="black" stroke-width="0.1"/>
<line x1="71.7807" y1="0" x2="71.7807" y2="1.0" stroke="black" stroke-width="0.1"/>
<line x1="72.1536" y1="0" x2="72.1536" y2="1.0" stroke="black" stroke-width="0.1"/>
<line x1="72.5224" y1="0" x2="72.5224" y2="3.0" stroke="black" stroke-width="0.2"/>
<line x1="72.8871" y1="0" x2="72.8871" y2="1.0" stroke="black" stroke-width="0.1"/>
<line x1="73.2479" y1="0" x2="73.2479" y2="1.0" stroke="black" stroke-width="0.1"/>
<line x1="73.6047" y1="0" x2="73.6047" y2="1.0" stroke="black" stroke-width="0.1"/>
<line x1="73.9577" y1="0" x2="73.9577" y2="1.0" stroke="black" stroke-width="0.1"/>
<line x1="74.3070" y1="0" x2="74.3070" y2="1.5" stroke="black" stroke-width="0.1"/>
<line x1="74.6526" y1="0" x2="74.6526" y2="1.0" stroke="black" stroke-width="0.1"/>
<line x1="74.9947" y1="0" x2="74.9947" y2="1.0" stroke="black" stroke-width="0.1"/>
<line x1="75.3332" y1="0" x2="75.3332" y2="1.0" stroke="black" stroke-width="0.1"/>
<line x1="75.6683" y1="0" x2="75.6683" y2="1.0" stroke="black" stroke-width="0.1"/>
<line x1="0.3284" y1="0" x2="0.3284" y2="0.75" stroke="black" stroke-width="0.1"/>
<line x1="0.6536" y1="0" x2="0.6536" y2="0.75" stroke="black" stroke-width="0.1"/>
<line x1="0.9756" y1="0" x2="0.9756" y2="0.75" stroke="black" stroke-width="0.1"/>
<line x1="1.2945" y1="0" x2="1.2945" y2="0.75" stroke="black" stroke-width="0.1"/>
<line x1="1.6104" y1="0" x2="1.6104" y2="0.75" stroke="black" stroke-width="0.1"/>
<line x1="1.9232" y1="0" x2="1.9232" y2="0.75" stroke="black" stroke-width="0.1"/>
<line x1="2.2332" y1="0" x2="2.2332" y2="0.75" stroke="black" stroke-width="0.1"/>
<line x1="2.5402" y1="0" x2="2.5402" y2="0.75" stroke="black" stroke-width="0.1"/>
<line x1="2.8444" y1="0" x2="2.8444" y2="0.75" stroke="black" stroke-width="0.1"/>
<line x1="3.4445" y1="0" x2="3.4445" y2="0.75" stroke="black" stroke-width="0.1"/>
<line x1="3.7406" y1="0" x2="3.7406" y2="0.75" stroke="black" stroke-width="0.1"/>
<line x1="4.0340" y1="0" x2="4.0340" y2="0.75" stroke="black" stroke-width="0.1"/>
<line x1="4.3248" y1="0" x2="4.3248" y2="0.75" stroke="black" stroke-width="0.1"/>
<line x1="4.6130" y1="0" x2="4.6130" y2="0.75" stroke="black" stroke-width="0.1"/>
<line x1="4.8988" y1="0" x2="4.8988" y2="0.75" stroke="black" stroke-width="0.1"/>
<line x1="5.1821" y1="0" x2="5.1821" y2="0.75" stroke="black" stroke-width="0.1"/>
<line x1="5.4630" y1="0" x2="5.4630" y2="0.75" stroke="black" stroke-width="0.1"/>
<line x1="5.7416" y1="0" x2="5.7416" y2="0.75" stroke="black" stroke-width="0.1"/>
<line x1="6.2917" y1="0" x2="6.2917" y2="0.75" stroke="black" stroke-width="0.1"/>
<line x1="6.5633" y1="0" x2="6.5633" y2="0.75" stroke="black" stroke-width="0.1"/>
<line x1="6.8328" y1="0" x2="6.8328" y2="0.75" stroke="black" stroke-width="0.1"/>
<line x1="7.1000" y1="0" x2="7.1000" y2="0.75" stroke="black" stroke-width="0.1"/>
<line x1="7.3652" y1="0" x2="7.3652" y2="0.75" stroke="black" stroke-width="0.1"/>
<line x1="7.6282" y1="0" x2="7.6282" y2="0.75" stroke="black" stroke-width="0.1"/>
<line x1="7.8891" y1="0" x2="7.8891" y2="0.75" stroke="black" stroke-width="0.1"/>
<line x1="8.1480" y1="0" x2="8.1480" y2="0.75" stroke="black" stroke-width="0.1"/>
<line x1="8.4048" y1="0" x2="8.4048" y2="0.75" stroke="black" stroke-width="0.1"/>
<line x1="8.9126" y1="0" x2="8.9126" y2="0.75" stroke="black" stroke-width="0.1"/>
<line x1="9.1636" y1="0" x2="9.1636" y2="0.75" stroke="black" stroke-width="0.1"/>
<line x1="9.4127" y1="0" x2="9.4127" y2="0.75" stroke="black" stroke-width="0.1"/>
<line x1="9.6600" y1="0" x2="9.6600" y2="0.75" stroke="black" stroke-width="0.1"/>
<line x1="9.9054" y1="0" x2="9.9054" y2="0.75" stroke="black" stroke-width="0.1"/>
<line x1="10.1490" y1="0" x2="10.1490" y2="0.75" stroke="black" stroke-width="0.1"/>
<line x1="10.3908" y1="0" x2="10.3908" y2="0.75" stroke="black" stroke-width="0.1"/>
<line x1="10.6308" y1="0" x2="10.6308" y2="0.75" stroke="black" stroke-width="0.1"/>
<line x1="10.8691" y1="0" x2="10.8691" y2="0.75" stroke="black" stroke-width="0.1"/>
<line x1="11.3407" y1="0" x2="11.3407" y2="0.75" stroke="black" stroke-width="0.1"/>
<line x1="11.5739" y1="0" x2="11.5739" y2="0.75" stroke="black" stroke-width="0.1"/>
<line x1="11.8055" y1="0" x2="11.8055" y2="0.75" stroke="black" stroke-width="0.1"/>
<line x1="12.0355" y1="0" x2="12.0355" y2="0.75" stroke="black" stroke-width="0.1"/>
<line x1="12.2640" y1="0" x2="12.2640" y2="0.75" stroke="black" stroke-width="0.1"/>
<line x1="12.4908" y1="0" x2="12.4908" y2="0.75" stroke="black" stroke-width="0.1"/>
<line x1="12.7161" y1="0" x2="12.7161" y2="0.75" stroke="black" stroke-width="0.1"/>
<line x1="12.9399" y1="0" x2="12.9399" y2="0.75" stroke="black" stroke-width="0.1"/>
<line x1="13.1622" y1="0" x2="13.1622" y2="0.75" stroke="black" stroke-width="0.1"/>
<line x1="13.6022" y1="0" x2="13.6022" y2="0.75" stroke="black" stroke-width="0.1"/>
<line x1="13.8201" y1="0" x2="13.8201" y2="0.75" stroke="black" stroke-width="0.1"/>
<line x1="14.0365" y1="0" x2="14.0365" y2="0.75" stroke="black" stroke-width="0.1"/>
<line x1="14.2516" y1="0" x2="14.2516" y2="0.75" stroke="black" stroke-width="0.1"/>
<line x1="14.4652" y1="0" x2="14.4652" y2="0.75" stroke="black" stroke-width="0.1"/>
<line x1="14.6775" y1="0" x2="14.6775" y2="0.75" stroke="black" stroke-width="0.1"/>
<line x1="14.8884" y1="0" x2="14.8884" y2="0.75" stroke="black" stroke-width="0.1"/>
<line x1="15.0979" y1="0" x2="15.0979" y2="0.75" stroke="black" stroke-width="0.1"/>
<line x1="15.3062" y1="0" x2="15.3062" y2="0.75" stroke="black" stroke-width="0.1"/>
<line x1="15.7188" y1="0" x2="15.7188" y2="0.75" stroke="black" stroke-width="0.1"/>
<line x1="15.9231" y1="0" x2="15.9231" y2="0.75" stroke="black" stroke-width="0.1"/>
<line x1="16.1263" y1="0" x2="16.1263" y2="0.75" stroke="black" stroke-width="0.1"/>
<line x1="16.3281" y1="0" x2="16.3281" y2="0.75" stroke="black" stroke-width="0.1"/>
<line x1="16.5288" y1="0" x2="16.5288" y2="0.75" stroke="black" stroke-width="0.1"/>
<line x1="16.7282" y1="0" x2="16.7282" y2="0.75" stroke="black" stroke-width="0.1"/>
<line x1="16.9265" y1="0" x2="16.9265" y2="0.75" stroke="black" stroke-width="0.1"/>
<line x1="17.1235" y1="0" x2="17.1235" y2="0.75" stroke="black" stroke-width="0.1"/>
<line x1="17.3194" y1="0" x2="17.3194" y2="0.75" stroke="black" stroke-width="0.1"/>
<line x1="17.7077" y1="0" x2="17.7077" y2="0.75" stroke="black" stroke-width="0.1"/>
<line x1="17.9002" y1="0" x2="17.9002" y2="0.75" stroke="black" stroke-width="0.1"/>
<line x1="18.0915" y1="0" x2="18.0915" y2="0.75" stroke="black" stroke-width="0.1"/>
<line x1="18.2817" y1="0" x2="18.2817" y2="0.75" stroke="black" stroke-width="0.1"/>
<line x1="18.4709" y1="0" x2="18.4709" y2="0.75" stroke="black" stroke-width="0.1"/>
<line x1="18.6590" y1="0" x2="18.6590" y2="0.75" stroke="black" stroke-width="0.1"/>
<line x1="18.8460" y1="0" x2="18.8460" y2="0.75" stroke="black" stroke-width="0.1"/>
<line x1="19.0319" y1="0" x2="19.0319" y2="0.75" stroke="black" stroke-width="0.1"/>
<line x1="19.2168" y1="0" x2="19.2168" y2="0.75" stroke="black" stroke-width="0.1"/>
<line x1="19.5836" y1="0" x2="19.5836" y2="0.75" stroke="black" stroke-width="0.1"/>
<line x1="19.7654" y1="0" x2="19.7654" y2="0.75" stroke="black" stroke-width="0.1"/>
<line x1="19.9463" y1="0" x2="19.9463" y2="0.75" stroke="black" stroke-width="0.1"/>
<line x1="20.1262" y1="0" x2="20.1262" y2="0.75" stroke="black" stroke-width="0.1"/>
<line x1="20.3051" y1="0" x2="20.3051" y2="0.75" stroke="black" stroke-width="0.1"/>
<line x1="20.4830" y1="0" x2="20.4830" y2="0.75" stroke="black" stroke-width="0.1"/>
<line x1="20.6600" y1="0" x2="20.6600" y2="0.75" stroke="black" stroke-width="0.1"/>
<line x1="20.8360" y1="0" x2="20.8360" y2="0.75" stroke="black" stroke-width="0.1"/>
<line x1="21.0111" y1="0" x2="21.0111" y2="0.75" stroke="black" stroke-width="0.1"/>
<line x1="21.3585" y1="0" x2="21.3585" y2="0.75" stroke="black" stroke-width="0.1"/>
<line x1="21.5309" y1="0" x2="21.5309" y2="0.75" stroke="black" stroke-width="0.1"/>
<line x1="21.7024" y1="0" x2="21.7024" y2="0.75" stroke="black" stroke-width="0.1"/>
<line x1="21.8729" y1="0" x2="21.8729" y2="0.75" stroke="black" stroke-width="0.1"/>
<line x1="22.0426" y1="0" x2="22.0426" y2="0.75" stroke="black" stroke-width="0.1"/>
<line x1="22.2115" y1="0" x2="22.2115" y2="0.75" stroke="black" stroke-width="0.1"/>
<line x1="22.3794" y1="0" x2="22.3794" y2="0.75" stroke="black" stroke-width="0.1"/>
<line x1="22.5466" y1="0" x2="22.5466" y2="0.75" stroke="black" stroke-width="0.1"/>
<line x1="22.7128" y1="0" x2="22.7128" y2="0.75" stroke="black" stroke-width="0.1"/>
<line x1="23.2067" y1="0" x2="23.2067" y2="0.75" stroke="black" stroke-width="0.1"/>
<line x1="23.5319" y1="0" x2="23.5319" y2="0.75" stroke="black" stroke-width="0.1"/>
<line x1="23.8539" y1="0" x2="23.8539" y2="0.75" stroke="black" stroke-width="0.1"/>
<line x1="24.1728" y1="0" x2="24.1728" y2="0.75" stroke="black" stroke-width="0.1"/>
<line x1="24.8015" y1="0" x2="24.8015" y2="0.75" stroke="black" stroke-width="0.1"/>
<line x1="25.1114" y1="0" x2="25.1114" y2="0.75" stroke="black" stroke-width="0.1"/>
<line x1="25.4185" y1="0" x2="25.4185" y2="0.75" stroke="black" stroke-width="0.1"/>
<line x1="25.7227" y1="0" x2="25.7227" y2="0.75" stroke="black" stroke-width="0.1"/>
<line x1="26.3228" y1="0" x2="26.3228" y2="0.75" stroke="black" stroke-width="0.1"/>
<line x1="26.6188" y1="0" x2="26.6188" y2="0.75" stroke="black" stroke-width="0.1"/>
<line x1="26.9122" y1="0" x2="26.9122" y2="0.75" stroke="black" stroke-width="0.1"/>
<line x1="27.2030" y1="0" x2="27.2030" y2="0.75" stroke="black" stroke-width="0.1"/>
<line x1="27.7771" y1="0" x2="27.7771" y2="0.75" stroke="black" stroke-width="0.1"/>
<line x1="28.0604" y1="0" x2="28.0604" y2="0.75" stroke="black" stroke-width="0.1"/>
<line x1="28.3413" y1="0" x2="28.3413" y2="0.75" stroke="black" stroke-width="0.1"/>
<line x1="28.6198" y1="0" x2="28.6198" y2="0.75" stroke="black" stroke-width="0.1"/>
<line x1="29.1700" y1="0" x2="29.1700" y2="0.75" stroke="black" stroke-width="0.1"/>
<line x1="29.4416" y1="0" x2="29.4416" y2="0.75" stroke="black" stroke-width="0.1"/>
<line x1="29.7111" y1="0" x2="29.7111" y2="0.75" stroke="black" stroke-width="0.1"/>
<line x1="29.9783" y1="0" x2="29.9783" y2="0.75" stroke="black" stroke-width="0.1"/>
<line x1="30.5064" y1="0" x2="30.5064" y2="0.75" stroke="black" stroke-width="0.1"/>
<line x1="30.7674" y1="0" x2="30.7674" y2="0.75" stroke="black" stroke-width="0.1"/>
<line x1="31.0262" y1="0" x2="31.0262" y2="0.75" stroke="black" stroke-width="0.1"/>
<line x1="31.2831" y1="0" x2="31.2831" y2="0.75" stroke="black" stroke-width="0.1"/>
<line x1="31.7909" y1="0" x2="31.7909" y2="0.75" stroke="black" stroke-width="0.1"/>
<line x1="32.0419" y1="0" x2="32.0419" y2="0.75" stroke="black" stroke-width="0.1"/>
<line x1="32.2910" y1="0" x2="32.2910" y2="0.75" stroke="black" stroke-width="0.1"/>
<line x1="32.5382" y1="0" x2="32.5382" y2="0.75" stroke="black" stroke-width="0.1"/>
<line x1="33.0272" y1="0" x2="33.0272" y2="0.75" stroke="black" stroke-width="0.1"/>
<line x1="33.2690" y1="0" x2="33.2690" y2="0.75" stroke="black" stroke-width="0.1"/>
<line x1="33.5091" y1="0" x2="33.5091" y2="0.75" stroke="black" stroke-width="0.1"/>
<line x1="33.7474" y1="0" x2="33.7474" y2="0.75" stroke="black" stroke-width="0.1"/>
<line x1="34.2189" y1="0" x2="34.2189" y2="0.75" stroke="black" stroke-width="0.1"/>
<line x1="34.4522" y1="0" x2="34.4522" y2="0.75" stroke="black" stroke-width="0.1"/>
<line x1="34.6838" y1="0" x2="34.6838" y2="0.75" stroke="black" stroke-width="0.1"/>
<line x1="34.9138" y1="0" x2="34.9138" y2="0.75" stroke="black" stroke-width="0.1"/>
<line x1="35.3691" y1="0" x2="35.3691" y2="0.75" stroke="black" stroke-width="0.1"/>
<line x1="35.5944" y1="0" x2="35.5944" y2="0.75" stroke="black" stroke-width="0.1"/>
<line x1="35.8182" y1="0" x2="35.8182" y2="0.75" stroke="black" stroke-width="0.1"/>
<line x1="36.0404" y1="0" x2="36.0404" y2="0.75" stroke="black" stroke-width="0.1"/>
<line x1="36.4805" y1="0" x2="36.4805" y2="0.75" stroke="black" stroke-width="0.1"/>
<line x1="36.6984" y1="0" x2="36.6984" y2="0.75" stroke="black" stroke-width="0.1"/>
<line x1="36.9148" y1="0" x2="36.9148" y2="0.75" stroke="black" stroke-width="0.1"/>
<line x1="37.1299" y1="0" x2="37.1299" y2="0.75" stroke="black" stroke-width="0.1"/>
<line x1="37.5557" y1="0" x2="37.5557" y2="0.75" stroke="black" stroke-width="0.1"/>
<line x1="37.7667" y1="0" x2="37.7667" y2="0.75" stroke="black" stroke-width="0.1"/>
<line x1="37.9762" y1="0" x2="37.9762" y2="0.75" stroke="black" stroke-width="0.1"/>
<line x1="38.1845" y1="0" x2="38.1845" y2="0.75" stroke="black" stroke-width="0.1"/>
<line x1="38.5970" y1="0" x2="38.5970" y2="0.75" stroke="black" stroke-width="0.1"/>
<line x1="38.8014" y1="0" x2="38.8014" y2="0.75" stroke="black" stroke-width="0.1"/>
<line x1="39.0045" y1="0" x2="39.0045" y2="0.75" stroke="black" stroke-width="0.1"/>
<line x1="39.2064" y1="0" x2="39.2064" y2="0.75" stroke="black" stroke-width="0.1"/>
<line x1="39.6065" y1="0" x2="39.6065" y2="0.75" stroke="black" stroke-width="0.1"/>
<line x1="39.8047" y1="0" x2="39.8047" y2="0.75" stroke="black" stroke-width="0.1"/>
<line x1="40.0018" y1="0" x2="40.0018" y2="0.75" stroke="black" stroke-width="0.1"/>
<line x1="40.1977" y1="0" x2="40.1977" y2="0.75" stroke="black" stroke-width="0.1"/>
<line x1="40.5860" y1="0" x2="40.5860" y2="0.75" stroke="black" stroke-width="0.1"/>
<line x1="40.7784" y1="0" x2="40.7784" y2="0.75" stroke="black" stroke-width="0.1"/>
<line x1="40.9698" y1="0" x2="40.9698" y2="0.75" stroke="black" stroke-width="0.1"/>
<line x1="41.1600" y1="0" x2="41.1600" y2="0.75" stroke="black" stroke-width="0.1"/>
<line x1="41.5372" y1="0" x2="41.5372" y2="0.75" stroke="black" stroke-width="0.1"/>
<line x1="41.7242" y1="0" x2="41.7242" y2="0.75" stroke="black" stroke-width="0.1"/>
<line x1="41.9102" y1="0" x2="41.9102" y2="0.75" stroke="black" stroke-width="0.1"/>
<line x1="42.0951" y1="0" x2="42.0951" y2="0.75" stroke="black" stroke-width="0.1"/>
<line x1="42.4619" y1="0" x2="42.4619" y2="0.75" stroke="black" stroke-width="0.1"/>
<line x1="42.6437" y1="0" x2="42.6437" y2="0.75" stroke="black" stroke-width="0.1"/>
<line x1="42.8246" y1="0" x2="42.8246" y2="0.75" stroke="black" stroke-width="0.1"/>
<line x1="43.0044" y1="0" x2="43.0044" y2="0.75" stroke="black" stroke-width="0.1"/>
<line x1="43.3613" y1="0" x2="43.3613" y2="0.75" stroke="black" stroke-width="0.1"/>
<line x1="43.5382" y1="0" x2="43.5382" y2="0.75" stroke="black" stroke-width="0.1"/>
<line x1="43.7143" y1="0" x2="43.7143" y2="0.75" stroke="black" stroke-width="0.1"/>
<line x1="43.8894" y1="0" x2="43.8894" y2="0.75" stroke="black" stroke-width="0.1"/>
<line x1="44.2368" y1="0" x2="44.2368" y2="0.75" stroke="black" stroke-width="0.1"/>
<line x1="44.4092" y1="0" x2="44.4092" y2="0.75" stroke="black" stroke-width="0.1"/>
<line x1="44.5806" y1="0" x2="44.5806" y2="0.75" stroke="black" stroke-width="0.1"/>
<line x1="44.7512" y1="0" x2="44.7512" y2="0.75" stroke="black" stroke-width="0.1"/>
<line x1="45.0897" y1="0" x2="45.0897" y2="0.75" stroke="black" stroke-width="0.1"/>
<line x1="45.2577" y1="0" x2="45.2577" y2="0.75" stroke="black" stroke-width="0.1"/>
<line x1="45.4248" y1="0" x2="45.4248" y2="0.75" stroke="black" stroke-width="0.1"/>
<line x1="45.5911" y1="0" x2="45.5911" y2="0.75" stroke="black" stroke-width="0.1"/>
</svg>