<svg xmlns="http://www.w3.org/2000/svg" width="90.0mm" height="10.0mm" viewBox="0 0 90.0 10.0">
<line x1="0.0000" y1="0" x2="0.0000" y2="3.0" stroke="black" stroke-width="0.2"/>
<line x1="1.5875" y1="0" x2="1.5875" y2="0.5" stroke="black" stroke-width="0.1"/>
<line x1="3.1750" y1="0" x2="3.1750" y2="0.75" stroke="black" stroke-width="0.1"/>
<line x1="4.7625" y1="0" x2="4.7625" y2="0.5" stroke="black" stroke-width="0.1"/>
<line x1="6.3500" y1="0" x2="6.3500" y2="1.0" stroke="black" stroke-width="0.1"/>
<line x1="7.9375" y1="0" x2="7.9375" y2="0.5" stroke="black" stroke-width="0.1"/>
<line x1="9.5250" y1="0" x2="9.5250" y2="0.75" stroke="black" stroke-width="0.1"/>
<line x1="11.1125" y1="0" x2="11.1125" y2="0.5" stroke="black" stroke-width="0.1"/>
<line x1="12.7000" y1="0" x2="12.7000" y2="1.5" stroke="black" stroke-width="0.1"/>
<line x1="14.2875" y1="0" x2="14.2875" y2="0.5" stroke="black" stroke-width="0.1"/>
<line x1="15.8750" y1="0" x2="15.8750" y2="0.75" stroke="black" stroke-width="0.1"/>
<line x1="17.4625" y1="0" x2="17.4625" y2="0.5" stroke="black" stroke-width="0.1"/>
<line x1="19.0500" y1="0" x2="19.0500" y2="1.0" stroke="black" stroke-width="0.1"/>
<line x1="20.6375" y1="0" x2="20.6375" y2="0.5" stroke="black" stroke-width="0.1"/>
<line x1="22.2250" y1="0" x2="22.2250" y2="0.75" stroke="black" stroke-width="0.1"/>
<line x1="23.8125" y1="0" x2="23.8125" y2="0.5" stroke="black" stroke-width="0.1"/>
<line x1="25.4000" y1="0" x2="25.4000" y2="3.0" stroke="black" stroke-width="0.2"/>
<line x1="26.9875" y1="0" x2="26.9875" y2="0.5" stroke="black" stroke-width="0.1"/>
<line x1="28.5750" y1="0" x2="28.5750" y2="0.75" stroke="black" stroke-width="0.1"/>
<line x1="30.1625" y1="0" x2="30.1625" y2="0.5" stroke="black" stroke-width="0.1"/>
<line x1="31.7500" y1="0" x2="31.7500" y2="1.0" stroke="black" stroke-width="0.1"/>
<line x1="33.3375" y1="0" x2="33.3375" y2="0.5" stroke="black" stroke-width="0.1"/>
<line x1="34.9250" y1="0" x2="34.9250" y2="0.75" stroke="black" stroke-width="0.1"/>
<line x1="36.5125" y1="0" x2="36.5125" y2="0.5" stroke="black" stroke-width="0.1"/>
<line x1="38.1000" y1="0" x2="38.1000" y2="1.5" stroke="black" stroke-width="0.1"/>
<line x1="39.6875" y1="0" x2="39.6875" y2="0.5" stroke="black" stroke-width="0.1"/>
<line x1="41.2750" y1="0" x2="41.2750" y2="0.75" stroke="black" stroke-width="0.1"/>
<line x1="42.8625" y1="0" x2="42.8625" y2="0.5" stroke="black" stroke-width="0.1"/>
<line x1="44.4500" y1="0" x2="44.4500" y2="1.0" stroke="black" stroke-width="0.1"/>
<line x1="46.0375" y1="0" x2="46.0375" y2="0.5" stroke="black" stroke-width="0.1"/>
<line x1="47.6250" y1="0" x2="47.6250" y2="0.75" stroke="black" stroke-width="0.1"/>
<line x1="49.2125" y1="0" x2="49.2125" y2="0.5" stroke="black" stroke-width="0.1"/>
<line x1="50.8000" y1="0" x2="50.8000" y2="3.0" stroke="black" stroke-width="0.2"/>
<line x1="52.3875" y1="0" x2="52.3875" y2="0.5" stroke="black" stroke-width="0.1"/>
<line x1="53.9750" y1="0" x2="53.9750" y2="0.75" stroke="black" stroke-width="0.1"/>
<line x1="55.5625" y1="0" x2="55.5625" y2="0.5" stroke="black" stroke-width="0.1"/>
<line x1="57.1500" y1="0" x2="57.1500" y2="1.0" stroke="black" stroke-width="0.1"/>
<line x1="58.7375" y1="0" x2="58.7375" y2="0.5" stroke="black" stroke-width="0.1"/>
<line x1="60.3250" y1="0" x2="60.3250" y2="0.75" stroke="black" stroke-width="0.1"/>
<line x1="61.9125" y1="0" x2="61.9125" y2="0.5" stroke="black" stroke-width="0.1"/>
<line x1="63.5000" y1="0" x2="63.5000" y2="1.5" stroke="black" stroke-width="0.1"/>
<line x1="65.0875" y1="0" x2="65.0875" y2="0.5" stroke="black" stroke-width="0.1"/>
<line x1="66.6750" y1="0" x2="66.6750" y2="0.75" stroke="black" stroke-width="0.1"/>
<line x1="68.2625" y1="0" x2="68.2625" y2="0.5" stroke="black" stroke-width="0.1"/>
<line x1="69.8500" y1="0" x2="69.8500" y2="1.0" stroke="black" stroke-width="0.1"/>
<line x1="71.4375" y1="0" x2="71.4375" y2="0.5" stroke="black" stroke-width="0.1"/>
<line x1="73.0250" y1="0" x2="73.0250" y2="0.75" stroke="black" stroke-width="0.1"/>
<line x1="74.6125" y1="0" x2="74.6125" y2="0.5" stroke="black" stroke-width="0.1"/>
<line x1="76.2000" y1="0" x2="76.2000" y2="3.0" stroke="black" stroke-width="0.2"/>
<line x1="77.7875" y1="0" x2="77.7875" y2="0.5" stroke="black" stroke-width="0.1"/>
<line x1="79.3750" y1="0" x2="79.3750" y2="0.75" stroke="black" stroke-width="0.1"/>
<line x1="80.9625" y1="0" x2="80.9625" y2="0.5" stroke="black" stroke-width="0.1"/>
<line x1="82.5500" y1="0" x2="82.5500" y2="1.0" stroke="black" stroke-width="0.1"/>
<line x1="84.1375" y1="0" x2="84.1375" y2="0.5" stroke="black" stroke-width="0.1"/>
<line x1="85.7250" y1="0" x2="85.7250" y2="0.75" stroke="black" stroke-width="0.1"/>
<line x1="87.3125" y1="0" x2="87.3125" y2="0.5" stroke="black" stroke-width="0.1"/>
<line x1="88.9000" y1="0" x2="88.9000" y2="1.5" stroke="black" stroke-width="0.1"/>
</svg>