<svg xmlns="http://www.w3.org/2000/svg" width="90.0mm" height="10.0mm" viewBox="0 0 90.0 10.0">
<line x1="0.0000" y1="0" x2="0.0000" y2="3.0" stroke="black" stroke-width="0.2"/>
<line x1="1.0000" y1="0" x2="1.0000" y2="1.0" stroke="black" stroke-width="0.1"/>
<line x1="2.0000" y1="0" x2="2.0000" y2="1.0" stroke="black" stroke-width="0.1"/>
<line x1="3.0000" y1="0" x2="3.0000" y2="1.0" stroke="black" stroke-width="0.1"/>
<line x1="4.0000" y1="0" x2="4.0000" y2="1.0" stroke="black" stroke-width="0.1"/>
<line x1="5.0000" y1="0" x2="5.0000" y2="1.5" stroke="black" stroke-width="0.1"/>
<line x1="6.0000" y1="0" x2="6.0000" y2="1.0" stroke="black" stroke-width="0.1"/>
<line x1="7.0000" y1="0" x2="7.0000" y2="1.0" stroke="black" stroke-width="0.1"/>
<line x1="8.0000" y1="0" x2="8.0000" y2="1.0" stroke="black" stroke-width="0.1"/>
<line x1="9.0000" y1="0" x2="9.0000" y2="1.0" stroke="black" stroke-width="0.1"/>
<line x1="10.0000" y1="0" x2="10.0000" y2="3.0" stroke="black" stroke-width="0.2"/>
<line x1="11.0000" y1="0" x2="11.0000" y2="1.0" stroke="black" stroke-width="0.1"/>
<line x1="12.0000" y1="0" x2="12.0000" y2="1.0" stroke="black" stroke-width="0.1"/>
<line x1="13.0000" y1="0" x2="13.0000" y2="1.0" stroke="black" stroke-width="0.1"/>
<line x1="14.0000" y1="0" x2="14.0000" y2="1.0" stroke="black" stroke-width="0.1"/>
<line x1="15.0000" y1="0" x2="15.0000" y2="1.5" stroke="black" stroke-width="0.1"/>
<line x1="16.0000" y1="0" x2="16.0000" y2="1.0" stroke="black" stroke-width="0.1"/>
<line x1="17.0000" y1="0" x2="17.0000" y2="1.0" stroke="black" stroke-width="0.1"/>
<line x1="18.0000" y1="0" x2="18.0000" y2="1.0" stroke="black" stroke-width="0.1"/>
<line x1="19.0000" y1="0" x2="19.0000" y2="1.0" stroke="black" stroke-width="0.1"/>
<line x1="20.0000" y1="0" x2="20.0000" y2="3.0" stroke="black" stroke-width="0.2"/>
<line x1="21.0000" y1="0" x2="21.0000" y2="1.0" stroke="black" stroke-width="0.1"/>
<line x1="22.0000" y1="0" x2="22.0000" y2="1.0" stroke="black" stroke-width="0.1"/>
<line x1="23.0000" y1="0" x2="23.0000" y2="1.0" stroke="black" stroke-width="0.1"/>
<line x1="24.0000" y1="0" x2="24.0000" y2="1.0" stroke="black" stroke-width="0.1"/>
<line x1="25.0000" y1="0" x2="25.0000" y2="1.5" stroke="black" stroke-width="0.1"/>
<line x1="26.0000" y1="0" x2="26.0000" y2="1.0" stroke="black" stroke-width="0.1"/>
<line x1="27.0000" y1="0" x2="27.0000" y2="1.0" stroke="black" stroke-width="0.1"/>
<line x1="28.0000" y1="0" x2="28.0000" y2="1.0" stroke="black" stroke-width="0.1"/>
<line x1="29.0000" y1="0" x2="29.0000" y2="1.0" stroke="black" stroke-width="0.1"/>
<line x1="30.0000" y1="0" x2="30.0000" y2="3.0" stroke="black" stroke-width="0.2"/>
<line x1="31.0000" y1="0" x2="31.0000" y2="1.0" stroke="black" stroke-width="0.1"/>
<line x1="32.0000" y1="0" x2="32.0000" y2="1.0" stroke="black" stroke-width="0.1"/>
<line x1="33.0000" y1="0" x2="33.0000" y2="1.0" stroke="black" stroke-width="0.1"/>
<line x1="34.0000" y1="0" x2="34.0000" y2="1.0" stroke="black" stroke-width="0.1"/>
<line x1="35.0000" y1="0" x2="35.0000" y2="1.5" stroke="black" stroke-width="0.1"/>
<line x1="36.0000" y1="0" x2="36.0000" y2="1.0" stroke="black" stroke-width="0.1"/>
<line x1="37.0000" y1="0" x2="37.0000" y2="1.0" stroke="black" stroke-width="0.1"/>
<line x1="38.0000" y1="0" x2="38.0000" y2="1.0" stroke="black" stroke-width="0.1"/>
<line x1="39.0000" y1="0" x2="39.0000" y2="1.0" stroke="black" stroke-width="0.1"/>
<line x1="40.0000" y1="0" x2="40.0000" y2="3.0" stroke="black" stroke-width="0.2"/>
<line x1="41.0000" y1="0" x2="41.0000" y2="1.0" stroke="black" stroke-width="0.1"/>
<line x1="42.0000" y1="0" x2="42.0000" y2="1.0" stroke="black" stroke-width="0.1"/>
<line x1="43.0000" y1="0" x2="43.0000" y2="1.0" stroke="black" stroke-width="0.1"/>
<line x1="44.0000" y1="0" x2="44.0000" y2="1.0" stroke="black" stroke-width="0.1"/>
<line x1="45.0000" y1="0" x2="45.0000" y2="1.5" stroke="black" stroke-width="0.1"/>
<line x1="46.0000" y1="0" x2="46.0000" y2="1.0" stroke="black" stroke-width="0.1"/>
<line x1="47.0000" y1="0" x2="47.0000" y2="1.0" stroke="black" stroke-width="0.1"/>
<line x1="48.0000" y1="0" x2="48.0000" y2="1.0" stroke="black" stroke-width="0.1"/>
<line x1="49.0000" y1="0" x2="49.0000" y2="1.0" stroke="black" stroke-width="0.1"/>
<line x1="50.0000" y1="0" x2="50.0000" y2="3.0" stroke="black" stroke-width="0.2"/>
<line x1="51.0000" y1="0" x2="51.0000" y2="1.0" stroke="black" stroke-width="0.1"/>
<line x1="52.0000" y1="0" x2="52.0000" y2="1.0" stroke="black" stroke-width="0.1"/>
<line x1="53.0000" y1="0" x2="53.0000" y2="1.0" stroke="black" stroke-width="0.1"/>
<line x1="54.0000" y1="0" x2="54.0000" y2="1.0" stroke="black" stroke-width="0.1"/>
<line x1="55.0000" y1="0" x2="55.0000" y2="1.5" stroke="black" stroke-width="0.1"/>
<line x1="56.0000" y1="0" x2="56.0000" y2="1.0" stroke="black" stroke-width="0.1"/>
<line x1="57.0000" y1="0" x2="57.0000" y2="1.0" stroke="black" stroke-width="0.1"/>
<line x1="58.0000" y1="0" x2="58.0000" y2="1.0" stroke="black" stroke-width="0.1"/>
<line x1="59.0000" y1="0" x2="59.0000" y2="1.0" stroke="black" stroke-width="0.1"/>
<line x1="60.0000" y1="0" x2="60.0000" y2="3.0" stroke="black" stroke-width="0.2"/>
<line x1="61.0000" y1="0" x2="61.0000" y2="1.0" stroke="black" stroke-width="0.1"/>
<line x1="62.0000" y1="0" x2="62.0000" y2="1.0" stroke="black" stroke-width="0.1"/>
<line x1="63.0000" y1="0" x2="63.0000" y2="1.0" stroke="black" stroke-width="0.1"/>
<line x1="64.0000" y1="0" x2="64.0000" y2="1.0" stroke="black" stroke-width="0.1"/>
<line x1="65.0000" y1="0" x2="65.0000" y2="1.5" stroke="black" stroke-width="0.1"/>
<line x1="66.0000" y1="0" x2="66.0000" y2="1.0" stroke="black" stroke-width="0.1"/>
<line x1="67.0000" y1="0" x2="67.0000" y2="1.0" stroke="black" stroke-width="0.1"/>
<line x1="68.0000" y1="0" x2="68.0000" y2="1.0" stroke="black" stroke-width="0.1"/>
<line x1="69.0000" y1="0" x2="69.0000" y2="1.0" stroke="black" stroke-width="0.1"/>
<line x1="70.0000" y1="0" x2="70.0000" y2="3.0" stroke="black" stroke-width="0.2"/>
<line x1="71.0000" y1="0" x2="71.0000" y2="1.0" stroke="black" stroke-width="0.1"/>
<line x1="72.0000" y1="0" x2="72.0000" y2="1.0" stroke="black" stroke-width="0.1"/>
<line x1="73.0000" y1="0" x2="73.0000" y2="1.0" stroke="black" stroke-width="0.1"/>
<line x1="74.0000" y1="0" x2="74.0000" y2="1.0" stroke="black" stroke-width="0.1"/>
<line x1="75.0000" y1="0" x2="75.0000" y2="1.5" stroke="black" stroke-width="0.1"/>
<line x1="76.0000" y1="0" x2="76.0000" y2="1.0" stroke="black" stroke-width="0.1"/>
<line x1="77.0000" y1="0" x2="77.0000" y2="1.0" stroke="black" stroke-width="0.1"/>
<line x1="78.0000" y1="0" x2="78.0000" y2="1.0" stroke="black" stroke-width="0.1"/>
<line x1="79.0000" y1="0" x2="79.0000" y2="1.0" stroke="black" stroke-width="0.1"/>
<line x1="80.0000" y1="0" x2="80.0000" y2="3.0" stroke="black" stroke-width="0.2"/>
<line x1="81.0000" y1="0" x2="81.0000" y2="1.0" stroke="black" stroke-width="0.1"/>
<line x1="82.0000" y1="0" x2="82.0000" y2="1.0" stroke="black" stroke-width="0.1"/>
<line x1="83.0000" y1="0" x2="83.0000" y2="1.0" stroke="black" stroke-width="0.1"/>
<line x1="84.0000" y1="0" x2="84.0000" y2="1.0" stroke="black" stroke-width="0.1"/>
<line x1="85.0000" y1="0" x2="85.0000" y2="1.5" stroke="black" stroke-width="0.1"/>
<line x1="86.0000" y1="0" x2="86.0000" y2="1.0" stroke="black" stroke-width="0.1"/>
<line x1="87.0000" y1="0" x2="87.0000" y2="1.0" stroke="black" stroke-width="0.1"/>
<line x1="88.0000" y1="0" x2="88.0000" y2="1.0" stroke="black" stroke-width="0.1"/>
<line x1="89.0000" y1="0" x2="89.0000" y2="1.0" stroke="black" stroke-width="0.1"/>
<line x1="90.0000" y1="0" x2="90.0000" y2="3.0" stroke="black" stroke-width="0.2"/>
</svg>