<svg xmlns="http://www.w3.org/2000/svg" width="76.0mm" height="10.0mm" viewBox="0 0 76.0 10.0">
<line x1="0.0000" y1="3.5000" x2="0.0000" y2="6.5000" stroke="black" stroke-width="0.2"/>
<line x1="0.7600" y1="4.5000" x2="0.7600" y2="5.5000" stroke="black" stroke-width="0.1"/>
<line x1="1.5200" y1="4.5000" x2="1.5200" y2="5.5000" stroke="black" stroke-width="0.1"/>
<line x1="2.2800" y1="4.5000" x2="2.2800" y2="5.5000" stroke="black" stroke-width="0.1"/>
<line x1="3.0400" y1="4.5000" x2="3.0400" y2="5.5000" stroke="black" stroke-width="0.1"/>
<line x1="3.8000" y1="4.2500" x2="3.8000" y2="5.7500" stroke="black" stroke-width="0.1"/>
<line x1="4.5600" y1="4.5000" x2="4.5600" y2="5.5000" stroke="black" stroke-width="0.1"/>
<line x1="5.3200" y1="4.5000" x2="5.3200" y2="5.5000" stroke="black" stroke-width="0.1"/>
<line x1="6.0800" y1="4.5000" x2="6.0800" y2="5.5000" stroke="black" stroke-width="0.1"/>
<line x1="6.8400" y1="4.5000" x2="6.8400" y2="5.5000" stroke="black" stroke-width="0.1"/>
<line x1="7.6000" y1="3.5000" x2="7.6000" y2="6.5000" stroke="black" stroke-width="0.2"/>
<line x1="8.3600" y1="4.5000" x2="8.3600" y2="5.5000" stroke="black" stroke-width="0.1"/>
<line x1="9.1200" y1="4.5000" x2="9.1200" y2="5.5000" stroke="black" stroke-width="0.1"/>
<line x1="9.8800" y1="4.5000" x2="9.8800" y2="5.5000" stroke="black" stroke-width="0.1"/>
<line x1="10.6400" y1="4.5000" x2="10.6400" y2="5.5000" stroke="black" stroke-width="0.1"/>
<line x1="11.4000" y1="4.2500" x2="11.4000" y2="5.7500" stroke="black" stroke-width="0.1"/>
<line x1="12.1600" y1="4.5000" x2="12.1600" y2="5.5000" stroke="black" stroke-width="0.1"/>
<line x1="12.9200" y1="4.5000" x2="12.9200" y2="5.5000" stroke="black" stroke-width="0.1"/>
<line x1="13.6800" y1="4.5000" x2="13.6800" y2="5.5000" stroke="black" stroke-width="0.1"/>
<line x1="14.4400" y1="4.5000" x2="14.4400" y2="5.5000" stroke="black" stroke-width="0.1"/>
<line x1="15.2000" y1="3.5000" x2="15.2000" y2="6.5000" stroke="black" stroke-width="0.2"/>
<line x1="15.9600" y1="4.5000" x2="15.9600" y2="5.5000" stroke="black" stroke-width="0.1"/>
<line x1="16.7200" y1="4.5000" x2="16.7200" y2="5.5000" stroke="black" stroke-width="0.1"/>
<line x1="17.4800" y1="4.5000" x2="17.4800" y2="5.5000" stroke="black" stroke-width="0.1"/>
<line x1="18.2400" y1="4.5000" x2="18.2400" y2="5.5000" stroke="black" stroke-width="0.1"/>
<line x1="19.0000" y1="4.2500" x2="19.0000" y2="5.7500" stroke="black" stroke-width="0.1"/>
<line x1="19.7600" y1="4.5000" x2="19.7600" y2="5.5000" stroke="black" stroke-width="0.1"/>
<line x1="20.5200" y1="4.5000" x2="20.5200" y2="5.5000" stroke="black" stroke-width="0.1"/>
<line x1="21.2800" y1="4.5000" x2="21.2800" y2="5.5000" stroke="black" stroke-width="0.1"/>
<line x1="22.0400" y1="4.5000" x2="22.0400" y2="5.5000" stroke="black" stroke-width="0.1"/>
<line x1="22.8000" y1="3.5000" x2="22.8000" y2="6.5000" stroke="black" stroke-width="0.2"/>
<line x1="23.5600" y1="4.5000" x2="23.5600" y2="5.5000" stroke="black" stroke-width="0.1"/>
<line x1="24.3200" y1="4.5000" x2="24.3200" y2="5.5000" stroke="black" stroke-width="0.1"/>
<line x1="25.0800" y1="4.5000" x2="25.0800" y2="5.5000" stroke="black" stroke-width="0.1"/>
<line x1="25.8400" y1="4.5000" x2="25.8400" y2="5.5000" stroke="black" stroke-width="0.1"/>
<line x1="26.6000" y1="4.2500" x2="26.6000" y2="5.7500" stroke="black" stroke-width="0.1"/>
<line x1="27.3600" y1="4.5000" x2="27.3600" y2="5.5000" stroke="black" stroke-width="0.1"/>
<line x1="28.1200" y1="4.5000" x2="28.1200" y2="5.5000" stroke="black" stroke-width="0.1"/>
<line x1="28.8800" y1="4.5000" x2="28.8800" y2="5.5000" stroke="black" stroke-width="0.1"/>
<line x1="29.6400" y1="4.5000" x2="29.6400" y2="5.5000" stroke="black" stroke-width="0.1"/>
<line x1="30.4000" y1="3.5000" x2="30.4000" y2="6.5000" stroke="black" stroke-width="0.2"/>
<line x1="31.1600" y1="4.5000" x2="31.1600" y2="5.5000" stroke="black" stroke-width="0.1"/>
<line x1="31.9200" y1="4.5000" x2="31.9200" y2="5.5000" stroke="black" stroke-width="0.1"/>
<line x1="32.6800" y1="4.5000" x2="32.6800" y2="5.5000" stroke="black" stroke-width="0.1"/>
<line x1="33.4400" y1="4.5000" x2="33.4400" y2="5.5000" stroke="black" stroke-width="0.1"/>
<line x1="34.2000" y1="4.2500" x2="34.2000" y2="5.7500" stroke="black" stroke-width="0.1"/>
<line x1="34.9600" y1="4.5000" x2="34.9600" y2="5.5000" stroke="black" stroke-width="0.1"/>
<line x1="35.7200" y1="4.5000" x2="35.7200" y2="5.5000" stroke="black" stroke-width="0.1"/>
<line x1="36.4800" y1="4.5000" x2="36.4800" y2="5.5000" stroke="black" stroke-width="0.1"/>
<line x1="37.2400" y1="4.5000" x2="37.2400" y2="5.5000" stroke="black" stroke-width="0.1"/>
<line x1="38.0000" y1="3.5000" x2="38.0000" y2="6.5000" stroke="black" stroke-width="0.2"/>
<line x1="38.7600" y1="4.5000" x2="38.7600" y2="5.5000" stroke="black" stroke-width="0.1"/>
<line x1="39.5200" y1="4.5000" x2="39.5200" y2="5.5000" stroke="black" stroke-width="0.1"/>
<line x1="40.2800" y1="4.5000" x2="40.2800" y2="5.5000" stroke="black" stroke-width="0.1"/>
<line x1="41.0400" y1="4.5000" x2="41.0400" y2="5.5000" stroke="black" stroke-width="0.1"/>
<line x1="41.8000" y1="4.2500" x2="41.8000" y2="5.7500" stroke="black" stroke-width="0.1"/>
<line x1="42.5600" y1="4.5000" x2="42.5600" y2="5.5000" stroke="black" stroke-width="0.1"/>
<line x1="43.3200" y1="4.5000" x2="43.3200" y2="5.5000" stroke="black" stroke-width="0.1"/>
<line x1="44.0800" y1="4.5000" x2="44.0800" y2="5.5000" stroke="black" stroke-width="0.1"/>
<line x1="44.8400" y1="4.5000" x2="44.8400" y2="5.5000" stroke="black" stroke-width="0.1"/>
<line x1="45.6000" y1="3.5000" x2="45.6000" y2="6.5000" stroke="black" stroke-width="0.2"/>
<line x1="46.3600" y1="4.5000" x2="46.3600" y2="5.5000" stroke="black" stroke-width="0.1"/>
<line x1="47.1200" y1="4.5000" x2="47.1200" y2="5.5000" stroke="black" stroke-width="0.1"/>
<line x1="47.8800" y1="4.5000" x2="47.8800" y2="5.5000" stroke="black" stroke-width="0.1"/>
<line x1="48.6400" y1="4.5000" x2="48.6400" y2="5.5000" stroke="black" stroke-width="0.1"/>
<line x1="49.4000" y1="4.2500" x2="49.4000" y2="5.7500" stroke="black" stroke-width="0.1"/>
<line x1="50.1600" y1="4.5000" x2="50.1600" y2="5.5000" stroke="black" stroke-width="0.1"/>
<line x1="50.9200" y1="4.5000" x2="50.9200" y2="5.5000" stroke="black" stroke-width="0.1"/>
<line x1="51.6800" y1="4.5000" x2="51.6800" y2="5.5000" stroke="black" stroke-width="0.1"/>
<line x1="52.4400" y1="4.5000" x2="52.4400" y2="5.5000" stroke="black" stroke-width="0.1"/>
<line x1="53.2000" y1="3.5000" x2="53.2000" y2="6.5000" stroke="black" stroke-width="0.2"/>
<line x1="53.9600" y1="4.5000" x2="53.9600" y2="5.5000" stroke="black" stroke-width="0.1"/>
<line x1="54.7200" y1="4.5000" x2="54.7200" y2="5.5000" stroke="black" stroke-width="0.1"/>
<line x1="55.4800" y1="4.5000" x2="55.4800" y2="5.5000" stroke="black" stroke-width="0.1"/>
<line x1="56.2400" y1="4.5000" x2="56.2400" y2="5.5000" stroke="black" stroke-width="0.1"/>
<line x1="57.0000" y1="4.2500" x2="57.0000" y2="5.7500" stroke="black" stroke-width="0.1"/>
<line x1="57.7600" y1="4.5000" x2="57.7600" y2="5.5000" stroke="black" stroke-width="0.1"/>
<line x1="58.5200" y1="4.5000" x2="58.5200" y2="5.5000" stroke="black" stroke-width="0.1"/>
<line x1="59.2800" y1="4.5000" x2="59.2800" y2="5.5000" stroke="black" stroke-width="0.1"/>
<line x1="60.0400" y1="4.5000" x2="60.0400" y2="5.5000" stroke="black" stroke-width="0.1"/>
<line x1="60.8000" y1="3.5000" x2="60.8000" y2="6.5000" stroke="black" stroke-width="0.2"/>
<line x1="61.5600" y1="4.5000" x2="61.5600" y2="5.5000" stroke="black" stroke-width="0.1"/>
<line x1="62.3200" y1="4.5000" x2="62.3200" y2="5.5000" stroke="black" stroke-width="0.1"/>
<line x1="63.0800" y1="4.5000" x2="63.0800" y2="5.5000" stroke="black" stroke-width="0.1"/>
<line x1="63.8400" y1="4.5000" x2="63.8400" y2="5.5000" stroke="black" stroke-width="0.1"/>
<line x1="64.6000" y1="4.2500" x2="64.6000" y2="5.7500" stroke="black" stroke-width="0.1"/>
<line x1="65.3600" y1="4.5000" x2="65.3600" y2="5.5000" stroke="black" stroke-width="0.1"/>
<line x1="66.1200" y1="4.5000" x2="66.1200" y2="5.5000" stroke="black" stroke-width="0.1"/>
<line x1="66.8800" y1="4.5000" x2="66.8800" y2="5.5000" stroke="black" stroke-width="0.1"/>
<line x1="67.6400" y1="4.5000" x2="67.6400" y2="5.5000" stroke="black" stroke-width="0.1"/>
<line x1="68.4000" y1="3.5000" x2="68.4000" y2="6.5000" stroke="black" stroke-width="0.2"/>
<line x1="69.1600" y1="4.5000" x2="69.1600" y2="5.5000" stroke="black" stroke-width="0.1"/>
<line x1="69.9200" y1="4.5000" x2="69.9200" y2="5.5000" stroke="black" stroke-width="0.1"/>
<line x1="70.6800" y1="4.5000" x2="70.6800" y2="5.5000" stroke="black" stroke-width="0.1"/>
<line x1="71.4400" y1="4.5000" x2="71.4400" y2="5.5000" stroke="black" stroke-width="0.1"/>
<line x1="72.2000" y1="4.2500" x2="72.2000" y2="5.7500" stroke="black" stroke-width="0.1"/>
<line x1="72.9600" y1="4.5000" x2="72.9600" y2="5.5000" stroke="black" stroke-width="0.1"/>
<line x1="73.7200" y1="4.5000" x2="73.7200" y2="5.5000" stroke="black" stroke-width="0.1"/>
<line x1="74.4800" y1="4.5000" x2="74.4800" y2="5.5000" stroke="black" stroke-width="0.1"/>
<line x1="75.2400" y1="4.5000" x2="75.2400" y2="5.5000" stroke="black" stroke-width="0.1"/>
<line x1="76.0000" y1="3.5000" x2="76.0000" y2="6.5000" stroke="black" stroke-width="0.2"/>
</svg>