<svg xmlns="http://www.w3.org/2000/svg" width="76.0mm" height="10.0mm" viewBox="0 0 76.0 10.0">
<line x1="0.0000" y1="0.0000" x2="0.0000" y2="3.0000" stroke="black" stroke-width="0.2"/>
<line x1="1.5729" y1="0.0000" x2="1.5729" y2="1.0000" stroke="black" stroke-width="0.1"/>
<line x1="3.0089" y1="0.0000" x2="3.0089" y2="1.0000" stroke="black" stroke-width="0.1"/>
<line x1="4.3298" y1="0.0000" x2="4.3298" y2="1.0000" stroke="black" stroke-width="0.1"/>
<line x1="5.5529" y1="0.0000" x2="5.5529" y2="1.0000" stroke="black" stroke-width="0.1"/>
<line x1="6.6915" y1="0.0000" x2="6.6915" y2="1.5000" stroke="black" stroke-width="0.1"/>
<line x1="7.7566" y1="0.0000" x2="7.7566" y2="1.0000" stroke="black" stroke-width="0.1"/>
<line x1="8.7571" y1="0.0000" x2="8.7571" y2="1.0000" stroke="black" stroke-width="0.1"/>
<line x1="9.7004" y1="0.0000" x2="9.7004" y2="1.0000" stroke="black" stroke-width="0.1"/>
<line x1="10.5926" y1="0.0000" x2="10.5926" y2="1.0000" stroke="black" stroke-width="0.1"/>
<line x1="11.4391" y1="0.0000" x2="11.4391" y2="3.0000" stroke="black" stroke-width="0.2"/>
<line x1="12.2443" y1="0.0000" x2="12.2443" y2="1.0000" stroke="black" stroke-width="0.1"/>
<line x1="13.0121" y1="0.0000" x2="13.0121" y2="1.0000" stroke="black" stroke-width="0.1"/>
<line x1="13.7457" y1="0.0000" x2="13.7457" y2="1.0000" stroke="black" stroke-width="0.1"/>
<line x1="14.4480" y1="0.0000" x2="14.4480" y2="1.0000" stroke="black" stroke-width="0.1"/>
<line x1="15.1217" y1="0.0000" x2="15.1217" y2="1.5000" stroke="black" stroke-width="0.1"/>
<line x1="15.7690" y1="0.0000" x2="15.7690" y2="1.0000" stroke="black" stroke-width="0.1"/>
<line x1="16.3918" y1="0.0000" x2="16.3918" y2="1.0000" stroke="black" stroke-width="0.1"/>
<line x1="16.9920" y1="0.0000" x2="16.9920" y2="1.0000" stroke="black" stroke-width="0.1"/>
<line x1="17.5711" y1="0.0000" x2="17.5711" y2="1.0000" stroke="black" stroke-width="0.1"/>
<line x1="18.1306" y1="0.0000" x2="18.1306" y2="3.0000" stroke="black" stroke-width="0.2"/>
<line x1="18.6717" y1="0.0000" x2="18.6717" y2="1.0000" stroke="black" stroke-width="0.1"/>
<line x1="19.1957" y1="0.0000" x2="19.1957" y2="1.0000" stroke="black" stroke-width="0.1"/>
<line x1="19.7035" y1="0.0000" x2="19.7035" y2="1.0000" stroke="black" stroke-width="0.1"/>
<line x1="20.1962" y1="0.0000" x2="20.1962" y2="1.0000" stroke="black" stroke-width="0.1"/>
<line x1="20.6746" y1="0.0000" x2="20.6746" y2="1.5000" stroke="black" stroke-width="0.1"/>
<line x1="21.1395" y1="0.0000" x2="21.1395" y2="1.0000" stroke="black" stroke-width="0.1"/>
<line x1="21.5917" y1="0.0000" x2="21.5917" y2="1.0000" stroke="black" stroke-width="0.1"/>
<line x1="22.0318" y1="0.0000" x2="22.0318" y2="1.0000" stroke="black" stroke-width="0.1"/>
<line x1="22.4605" y1="0.0000" x2="22.4605" y2="1.0000" stroke="black" stroke-width="0.1"/>
<line x1="22.8783" y1="0.0000" x2="22.8783" y2="3.0000" stroke="black" stroke-width="0.2"/>
<line x1="23.2858" y1="0.0000" x2="23.2858" y2="1.0000" stroke="black" stroke-width="0.1"/>
<line x1="23.6835" y1="0.0000" x2="23.6835" y2="1.0000" stroke="black" stroke-width="0.1"/>
<line x1="24.0718" y1="0.0000" x2="24.0718" y2="1.0000" stroke="black" stroke-width="0.1"/>
<line x1="24.4512" y1="0.0000" x2="24.4512" y2="1.0000" stroke="black" stroke-width="0.1"/>
<line x1="24.8221" y1="0.0000" x2="24.8221" y2="1.5000" stroke="black" stroke-width="0.1"/>
<line x1="25.1848" y1="0.0000" x2="25.1848" y2="1.0000" stroke="black" stroke-width="0.1"/>
<line x1="25.5397" y1="0.0000" x2="25.5397" y2="1.0000" stroke="black" stroke-width="0.1"/>
<line x1="25.8872" y1="0.0000" x2="25.8872" y2="1.0000" stroke="black" stroke-width="0.1"/>
<line x1="26.2275" y1="0.0000" x2="26.2275" y2="1.0000" stroke="black" stroke-width="0.1"/>
<line x1="26.5609" y1="0.0000" x2="26.5609" y2="3.0000" stroke="black" stroke-width="0.2"/>
<line x1="26.8877" y1="0.0000" x2="26.8877" y2="1.0000" stroke="black" stroke-width="0.1"/>
<line x1="27.2081" y1="0.0000" x2="27.2081" y2="1.0000" stroke="black" stroke-width="0.1"/>
<line x1="27.5225" y1="0.0000" x2="27.5225" y2="1.0000" stroke="black" stroke-width="0.1"/>
<line x1="27.8310" y1="0.0000" x2="27.8310" y2="1.0000" stroke="black" stroke-width="0.1"/>
<line x1="28.1338" y1="0.0000" x2="28.1338" y2="1.5000" stroke="black" stroke-width="0.1"/>
<line x1="28.4311" y1="0.0000" x2="28.4311" y2="1.0000" stroke="black" stroke-width="0.1"/>
<line x1="28.7232" y1="0.0000" x2="28.7232" y2="1.0000" stroke="black" stroke-width="0.1"/>
<line x1="29.0103" y1="0.0000" x2="29.0103" y2="1.0000" stroke="black" stroke-width="0.1"/>
<line x1="29.2924" y1="0.0000" x2="29.2924" y2="1.0000" stroke="black" stroke-width="0.1"/>
<line x1="29.5697" y1="0.0000" x2="29.5697" y2="3.0000" stroke="black" stroke-width="0.2"/>
<line x1="29.8425" y1="0.0000" x2="29.8425" y2="1.0000" stroke="black" stroke-width="0.1"/>
<line x1="30.1109" y1="0.0000" x2="30.1109" y2="1.0000" stroke="black" stroke-width="0.1"/>
<line x1="30.3749" y1="0.0000" x2="30.3749" y2="1.0000" stroke="black" stroke-width="0.1"/>
<line x1="30.6348" y1="0.0000" x2="30.6348" y2="1.0000" stroke="black" stroke-width="0.1"/>
<line x1="30.8907" y1="0.0000" x2="30.8907" y2="1.5000" stroke="black" stroke-width="0.1"/>
<line x1="31.1427" y1="0.0000" x2="31.1427" y2="1.0000" stroke="black" stroke-width="0.1"/>
<line x1="31.3908" y1="0.0000" x2="31.3908" y2="1.0000" stroke="black" stroke-width="0.1"/>
<line x1="31.6353" y1="0.0000" x2="31.6353" y2="1.0000" stroke="black" stroke-width="0.1"/>
<line x1="31.8763" y1="0.0000" x2="31.8763" y2="1.0000" stroke="black" stroke-width="0.1"/>
<line x1="32.1137" y1="0.0000" x2="32.1137" y2="3.0000" stroke="black" stroke-width="0.2"/>
<line x1="32.3478" y1="0.0000" x2="32.3478" y2="1.0000" stroke="black" stroke-width="0.1"/>
<line x1="32.5786" y1="0.0000" x2="32.5786" y2="1.0000" stroke="black" stroke-width="0.1"/>
<line x1="32.8063" y1="0.0000" x2="32.8063" y2="1.0000" stroke="black" stroke-width="0.1"/>
<line x1="33.0308" y1="0.0000" x2="33.0308" y2="1.0000" stroke="black" stroke-width="0.1"/>
<line x1="33.2523" y1="0.0000" x2="33.2523" y2="1.5000" stroke="black" stroke-width="0.1"/>
<line x1="33.4709" y1="0.0000" x2="33.4709" y2="1.0000" stroke="black" stroke-width="0.1"/>
<line x1="33.6866" y1="0.0000" x2="33.6866" y2="1.0000" stroke="black" stroke-width="0.1"/>
<line x1="33.8996" y1="0.0000" x2="33.8996" y2="1.0000" stroke="black" stroke-width="0.1"/>
<line x1="34.1098" y1="0.0000" x2="34.1098" y2="1.0000" stroke="black" stroke-width="0.1"/>
<line x1="34.3174" y1="0.0000" x2="34.3174" y2="3.0000" stroke="black" stroke-width="0.2"/>
<line x1="34.5224" y1="0.0000" x2="34.5224" y2="1.0000" stroke="black" stroke-width="0.1"/>
<line x1="34.7249" y1="0.0000" x2="34.7249" y2="1.0000" stroke="black" stroke-width="0.1"/>
<line x1="34.9250" y1="0.0000" x2="34.9250" y2="1.0000" stroke="black" stroke-width="0.1"/>
<line x1="35.1226" y1="0.0000" x2="35.1226" y2="1.0000" stroke="black" stroke-width="0.1"/>
<line x1="35.3179" y1="0.0000" x2="35.3179" y2="1.5000" stroke="black" stroke-width="0.1"/>
<line x1="35.5109" y1="0.0000" x2="35.5109" y2="1.0000" stroke="black" stroke-width="0.1"/>
<line x1="35.7017" y1="0.0000" x2="35.7017" y2="1.0000" stroke="black" stroke-width="0.1"/>
<line x1="35.8903" y1="0.0000" x2="35.8903" y2="1.0000" stroke="black" stroke-width="0.1"/>
<line x1="36.0768" y1="0.0000" x2="36.0768" y2="1.0000" stroke="black" stroke-width="0.1"/>
<line x1="36.2612" y1="0.0000" x2="36.2612" y2="3.0000" stroke="black" stroke-width="0.2"/>
<line x1="36.4436" y1="0.0000" x2="36.4436" y2="1.0000" stroke="black" stroke-width="0.1"/>
<line x1="36.6239" y1="0.0000" x2="36.6239" y2="1.0000" stroke="black" stroke-width="0.1"/>
<line x1="36.8024" y1="0.0000" x2="36.8024" y2="1.0000" stroke="black" stroke-width="0.1"/>
<line x1="36.9789" y1="0.0000" x2="36.9789" y2="1.0000" stroke="black" stroke-width="0.1"/>
<line x1="37.1535" y1="0.0000" x2="37.1535" y2="1.5000" stroke="black" stroke-width="0.1"/>
<line x1="37.3263" y1="0.0000" x2="37.3263" y2="1.0000" stroke="black" stroke-width="0.1"/>
<line x1="37.4973" y1="0.0000" x2="37.4973" y2="1.0000" stroke="black" stroke-width="0.1"/>
<line x1="37.6666" y1="0.0000" x2="37.6666" y2="1.0000" stroke="black" stroke-width="0.1"/>
<line x1="37.8341" y1="0.0000" x2="37.8341" y2="1.0000" stroke="black" stroke-width="0.1"/>
<line x1="38.0000" y1="0.0000" x2="38.0000" y2="3.0000" stroke="black" stroke-width="0.2"/>
<line x1="39.5729" y1="0.0000" x2="39.5729" y2="1.0000" stroke="black" stroke-width="0.1"/>
<line x1="41.0089" y1="0.0000" x2="41.0089" y2="1.0000" stroke="black" stroke-width="0.1"/>
<line x1="42.3298" y1="0.0000" x2="42.3298" y2="1.0000" stroke="black" stroke-width="0.1"/>
<line x1="43.5529" y1="0.0000" x2="43.5529" y2="1.0000" stroke="black" stroke-width="0.1"/>
<line x1="44.6915" y1="0.0000" x2="44.6915" y2="1.5000" stroke="black" stroke-width="0.1"/>
<line x1="45.7566" y1="0.0000" x2="45.7566" y2="1.0000" stroke="black" stroke-width="0.1"/>
<line x1="46.7571" y1="0.0000" x2="46.7571" y2="1.0000" stroke="black" stroke-width="0.1"/>
<line x1="47.7004" y1="0.0000" x2="47.7004" y2="1.0000" stroke="black" stroke-width="0.1"/>
<line x1="48.5926" y1="0.0000" x2="48.5926" y2="1.0000" stroke="black" stroke-width="0.1"/>
<line x1="49.4391" y1="0.0000" x2="49.4391" y2="3.0000" stroke="black" stroke-width="0.2"/>
<line x1="50.2443" y1="0.0000" x2="50.2443" y2="1.0000" stroke="black" stroke-width="0.1"/>
<line x1="51.0121" y1="0.0000" x2="51.0121" y2="1.0000" stroke="black" stroke-width="0.1"/>
<line x1="51.7457" y1="0.0000" x2="51.7457" y2="1.0000" stroke="black" stroke-width="0.1"/>
<line x1="52.4480" y1="0.0000" x2="52.4480" y2="1.0000" stroke="black" stroke-width="0.1"/>
<line x1="53.1217" y1="0.0000" x2="53.1217" y2="1.5000" stroke="black" stroke-width="0.1"/>
<line x1="53.7690" y1="0.0000" x2="53.7690" y2="1.0000" stroke="black" stroke-width="0.1"/>
<line x1="54.3918" y1="0.0000" x2="54.3918" y2="1.0000" stroke="black" stroke-width="0.1"/>
<line x1="54.9920" y1="0.0000" x2="54.9920" y2="1.0000" stroke="black" stroke-width="0.1"/>
<line x1="55.5711" y1="0.0000" x2="55.5711" y2="1.0000" stroke="black" stroke-width="0.1"/>
<line x1="56.1306" y1="0.0000" x2="56.1306" y2="3.0000" stroke="black" stroke-width="0.2"/>
<line x1="56.6717" y1="0.0000" x2="56.6717" y2="1.0000" stroke="black" stroke-width="0.1"/>
<line x1="57.1957" y1="0.0000" x2="57.1957" y2="1.0000" stroke="black" stroke-width="0.1"/>
<line x1="57.7035" y1="0.0000" x2="57.7035" y2="1.0000" stroke="black" stroke-width="0.1"/>
<line x1="58.1962" y1="0.0000" x2="58.1962" y2="1.0000" stroke="black" stroke-width="0.1"/>
<line x1="58.6746" y1="0.0000" x2="58.6746" y2="1.5000" stroke="black" stroke-width="0.1"/>
<line x1="59.1395" y1="0.0000" x2="59.1395" y2="1.0000" stroke="black" stroke-width="0.1"/>
<line x1="59.5917" y1="0.0000" x2="59.5917" y2="1.0000" stroke="black" stroke-width="0.1"/>
<line x1="60.0318" y1="0.0000" x2="60.0318" y2="1.0000" stroke="black" stroke-width="0.1"/>
<line x1="60.4605" y1="0.0000" x2="60.4605" y2="1.0000" stroke="black" stroke-width="0.1"/>
<line x1="60.8783" y1="0.0000" x2="60.8783" y2="3.0000" stroke="black" stroke-width="0.2"/>
<line x1="61.2858" y1="0.0000" x2="61.2858" y2="1.0000" stroke="black" stroke-width="0.1"/>
<line x1="61.6835" y1="0.0000" x2="61.6835" y2="1.0000" stroke="black" stroke-width="0.1"/>
<line x1="62.0718" y1="0.0000" x2="62.0718" y2="1.0000" stroke="black" stroke-width="0.1"/>
<line x1="62.4512" y1="0.0000" x2="62.4512" y2="1.0000" stroke="black" stroke-width="0.1"/>
<line x1="62.8221" y1="0.0000" x2="62.8221" y2="1.5000" stroke="black" stroke-width="0.1"/>
<line x1="63.1848" y1="0.0000" x2="63.1848" y2="1.0000" stroke="black" stroke-width="0.1"/>
<line x1="63.5397" y1="0.0000" x2="63.5397" y2="1.0000" stroke="black" stroke-width="0.1"/>
<line x1="63.8872" y1="0.0000" x2="63.8872" y2="1.0000" stroke="black" stroke-width="0.1"/>
<line x1="64.2275" y1="0.0000" x2="64.2275" y2="1.0000" stroke="black" stroke-width="0.1"/>
<line x1="64.5609" y1="0.0000" x2="64.5609" y2="3.0000" stroke="black" stroke-width="0.2"/>
<line x1="64.8877" y1="0.0000" x2="64.8877" y2="1.0000" stroke="black" stroke-width="0.1"/>
<line x1="65.2081" y1="0.0000" x2="65.2081" y2="1.0000" stroke="black" stroke-width="0.1"/>
<line x1="65.5225" y1="0.0000" x2="65.5225" y2="1.0000" stroke="black" stroke-width="0.1"/>
<line x1="65.8310" y1="0.0000" x2="65.8310" y2="1.0000" stroke="black" stroke-width="0.1"/>
<line x1="66.1338" y1="0.0000" x2="66.1338" y2="1.5000" stroke="black" stroke-width="0.1"/>
<line x1="66.4311" y1="0.0000" x2="66.4311" y2="1.0000" stroke="black" stroke-width="0.1"/>
<line x1="66.7232" y1="0.0000" x2="66.7232" y2="1.0000" stroke="black" stroke-width="0.1"/>
<line x1="67.0103" y1="0.0000" x2="67.0103" y2="1.0000" stroke="black" stroke-width="0.1"/>
<line x1="67.2924" y1="0.0000" x2="67.2924" y2="1.0000" stroke="black" stroke-width="0.1"/>
<line x1="67.5697" y1="0.0000" x2="67.5697" y2="3.0000" stroke="black" stroke-width="0.2"/>
<line x1="67.8425" y1="0.0000" x2="67.8425" y2="1.0000" stroke="black" stroke-width="0.1"/>
<line x1="68.1109" y1="0.0000" x2="68.1109" y2="1.0000" stroke="black" stroke-width="0.1"/>
<line x1="68.3749" y1="0.0000" x2="68.3749" y2="1.0000" stroke="black" stroke-width="0.1"/>
<line x1="68.6348" y1="0.0000" x2="68.6348" y2="1.0000" stroke="black" stroke-width="0.1"/>
<line x1="68.8907" y1="0.0000" x2="68.8907" y2="1.5000" stroke="black" stroke-width="0.1"/>
<line x1="69.1427" y1="0.0000" x2="69.1427" y2="1.0000" stroke="black" stroke-width="0.1"/>
<line x1="69.3908" y1="0.0000" x2="69.3908" y2="1.0000" stroke="black" stroke-width="0.1"/>
<line x1="69.6353" y1="0.0000" x2="69.6353" y2="1.0000" stroke="black" stroke-width="0.1"/>
<line x1="69.8763" y1="0.0000" x2="69.8763" y2="1.0000" stroke="black" stroke-width="0.1"/>
<line x1="70.1137" y1="0.0000" x2="70.1137" y2="3.0000" stroke="black" stroke-width="0.2"/>
<line x1="70.3478" y1="0.0000" x2="70.3478" y2="1.0000" stroke="black" stroke-width="0.1"/>
<line x1="70.5786" y1="0.0000" x2="70.5786" y2="1.0000" stroke="black" stroke-width="0.1"/>
<line x1="70.8063" y1="0.0000" x2="70.8063" y2="1.0000" stroke="black" stroke-width="0.1"/>
<line x1="71.0308" y1="0.0000" x2="71.0308" y2="1.0000" stroke="black" stroke-width="0.1"/>
<line x1="71.2523" y1="0.0000" x2="71.2523" y2="1.5000" stroke="black" stroke-width="0.1"/>
<line x1="71.4709" y1="0.0000" x2="71.4709" y2="1.0000" stroke="black" stroke-width="0.1"/>
<line x1="71.6866" y1="0.0000" x2="71.6866" y2="1.0000" stroke="black" stroke-width="0.1"/>
<line x1="71.8996" y1="0.0000" x2="71.8996" y2="1.0000" stroke="black" stroke-width="0.1"/>
<line x1="72.1098" y1="0.0000" x2="72.1098" y2="1.0000" stroke="black" stroke-width="0.1"/>
<line x1="72.3174" y1="0.0000" x2="72.3174" y2="3.0000" stroke="black" stroke-width="0.2"/>
<line x1="72.5224" y1="0.0000" x2="72.5224" y2="1.0000" stroke="black" stroke-width="0.1"/>
<line x1="72.7249" y1="0.0000" x2="72.7249" y2="1.0000" stroke="black" stroke-width="0.1"/>
<line x1="72.9250" y1="0.0000" x2="72.9250" y2="1.0000" stroke="black" stroke-width="0.1"/>
<line x1="73.1226" y1="0.0000" x2="73.1226" y2="1.0000" stroke="black" stroke-width="0.1"/>
<line x1="73.3179" y1="0.0000" x2="73.3179" y2="1.5000" stroke="black" stroke-width="0.1"/>
<line x1="73.5109" y1="0.0000" x2="73.5109" y2="1.0000" stroke="black" stroke-width="0.1"/>
<line x1="73.7017" y1="0.0000" x2="73.7017" y2="1.0000" stroke="black" stroke-width="0.1"/>
<line x1="73.8903" y1="0.0000" x2="73.8903" y2="1.0000" stroke="black" stroke-width="0.1"/>
<line x1="74.0768" y1="0.0000" x2="74.0768" y2="1.0000" stroke="black" stroke-width="0.1"/>
<line x1="74.2612" y1="0.0000" x2="74.2612" y2="3.0000" stroke="black" stroke-width="0.2"/>
<line x1="74.4436" y1="0.0000" x2="74.4436" y2="1.0000" stroke="black" stroke-width="0.1"/>
<line x1="74.6239" y1="0.0000" x2="74.6239" y2="1.0000" stroke="black" stroke-width="0.1"/>
<line x1="74.8024" y1="0.0000" x2="74.8024" y2="1.0000" stroke="black" stroke-width="0.1"/>
<line x1="74.9789" y1="0.0000" x2="74.9789" y2="1.0000" stroke="black" stroke-width="0.1"/>
<line x1="75.1535" y1="0.0000" x2="75.1535" y2="1.5000" stroke="black" stroke-width="0.1"/>
<line x1="75.3263" y1="0.0000" x2="75.3263" y2="1.0000" stroke="black" stroke-width="0.1"/>
<line x1="75.4973" y1="0.0000" x2="75.4973" y2="1.0000" stroke="black" stroke-width="0.1"/>
<line x1="75.6666" y1="0.0000" x2="75.6666" y2="1.0000" stroke="black" stroke-width="0.1"/>
<line x1="75.8341" y1="0.0000" x2="75.8341" y2="1.0000" stroke="black" stroke-width="0.1"/>
</svg>