%TF.GenerationSoftware,KiCad,Pcbnew,10.0.1*%
%TF.CreationDate,2026-05-05T18:07:42+07:00*%
%TF.ProjectId,sliderule_condensed,736c6964-6572-4756-9c65-5f636f6e6465,rev?*%
%TF.SameCoordinates,Original*%
%TF.FileFunction,Soldermask,Top*%
%TF.FilePolarity,Negative*%
%FSLAX46Y46*%
G04 Gerber Fmt 4.6, Leading zero omitted, Abs format (unit mm)*
G04 Created by KiCad (PCBNEW 10.0.1) date 2026-05-05 18:07:42*
%MOMM*%
%LPD*%
G01*
G04 APERTURE LIST*
%ADD10C,0.100000*%
%ADD11C,0.099999*%
G04 APERTURE END LIST*
D10*
X130000000Y-32500000D02*
X130000000Y-35499999D01*
X129990011Y-25000000D02*
X129990011Y-28000000D01*
X129991101Y-25000000D02*
X129991101Y-22000000D01*
X130000000Y-15000000D02*
X130000000Y-18000000D01*
D11*
X130000000Y-32500000D02*
X130000000Y-35499999D01*
D10*
X130000000Y-55000000D02*
X130000000Y-58000000D01*
X130000000Y-65000000D02*
X130000000Y-62000000D01*
X130000011Y-43000000D02*
X130000011Y-40000000D01*
X130328400Y-55000000D02*
X130328400Y-55750000D01*
X130328411Y-43000000D02*
X130328411Y-42250000D01*
D11*
X130331717Y-33500000D02*
X130331717Y-34500000D01*
D10*
X130653600Y-55000000D02*
X130653600Y-55750000D01*
X130653611Y-43000000D02*
X130653611Y-42250000D01*
D11*
X130666817Y-33500000D02*
X130666817Y-34500000D01*
D10*
X130760000Y-65000000D02*
X130760000Y-64000000D01*
X130975600Y-55000000D02*
X130975600Y-55750000D01*
X130975611Y-43000000D02*
X130975611Y-42250000D01*
X131005317Y-33500000D02*
X131005317Y-34500000D01*
X131048600Y-15000000D02*
X131048600Y-16000000D01*
X131294500Y-55000000D02*
X131294500Y-55750000D01*
X131294511Y-43000000D02*
X131294511Y-42250000D01*
D11*
X131347416Y-33500000D02*
X131347416Y-34500000D01*
X131520000Y-65000000D02*
X131520000Y-64000000D01*
D10*
X131562911Y-25000000D02*
X131562911Y-26000000D01*
X131564001Y-25000000D02*
X131564001Y-24000000D01*
X131610400Y-55000000D02*
X131610400Y-55750000D01*
X131610411Y-43000000D02*
X131610411Y-42250000D01*
X131693016Y-33250000D02*
X131693016Y-34750000D01*
X131923199Y-55000000D02*
X131923199Y-55750000D01*
X131923210Y-43000000D02*
X131923210Y-42250000D01*
X132005899Y-15000000D02*
X132005899Y-16000000D01*
D11*
X132042316Y-33500000D02*
X132042316Y-34500000D01*
D10*
X132233199Y-55000000D02*
X132233199Y-55750000D01*
X132233210Y-43000000D02*
X132233210Y-42250000D01*
X132279999Y-65000000D02*
X132279999Y-64000000D01*
X132395316Y-33500000D02*
X132395316Y-34500000D01*
X132540199Y-55000000D02*
X132540199Y-55750000D01*
X132540210Y-43000000D02*
X132540210Y-42250000D01*
D11*
X132752116Y-33500000D02*
X132752116Y-34500000D01*
D10*
X132844399Y-55000000D02*
X132844399Y-55750000D01*
X132844410Y-43000000D02*
X132844410Y-42250000D01*
X132886599Y-15000000D02*
X132886599Y-16000000D01*
X132998910Y-25000000D02*
X132998910Y-26000000D01*
X133000000Y-25000000D02*
X133000000Y-24000000D01*
X133039999Y-65000000D02*
X133039999Y-64000000D01*
X133112916Y-33500000D02*
X133112916Y-34500000D01*
X133145799Y-55000000D02*
X133145799Y-56000000D01*
X133145810Y-43000000D02*
X133145810Y-42000000D01*
X133444499Y-55000000D02*
X133444499Y-55750000D01*
X133444510Y-43000000D02*
X133444510Y-42250000D01*
D11*
X133477616Y-32500001D02*
X133477616Y-35500000D01*
D10*
X133701899Y-15000000D02*
X133701899Y-16000000D01*
X133740599Y-55000000D02*
X133740599Y-55750000D01*
X133740610Y-43000000D02*
X133740610Y-42250000D01*
D11*
X133799999Y-65000000D02*
X133799999Y-63500000D01*
D10*
X133846416Y-33500000D02*
X133846416Y-34500000D01*
X134033999Y-55000000D02*
X134033999Y-55750000D01*
X134034010Y-43000000D02*
X134034010Y-42250000D01*
X134219316Y-33500000D02*
X134219316Y-34500000D01*
X134319810Y-25000000D02*
X134319810Y-26000000D01*
X134320900Y-25000000D02*
X134320900Y-24000000D01*
X134324799Y-55000000D02*
X134324799Y-55750000D01*
X134324810Y-43000000D02*
X134324810Y-42250000D01*
X134460999Y-15000000D02*
X134460999Y-16500000D01*
D11*
X134559999Y-65000000D02*
X134559999Y-64000000D01*
D10*
X134596516Y-33500000D02*
X134596516Y-34500000D01*
X134612999Y-55000000D02*
X134612999Y-55750000D01*
X134613010Y-43000000D02*
X134613010Y-42250000D01*
X134898799Y-55000000D02*
X134898799Y-55750000D01*
X134898810Y-43000000D02*
X134898810Y-42250000D01*
D11*
X134978116Y-33500000D02*
X134978116Y-34500000D01*
D10*
X135170999Y-15000000D02*
X135170999Y-16000000D01*
X135182099Y-55000000D02*
X135182099Y-55750000D01*
X135182110Y-43000000D02*
X135182110Y-42250000D01*
X135319999Y-65000000D02*
X135319999Y-64000000D01*
X135364216Y-33250000D02*
X135364216Y-34750000D01*
X135462999Y-55000000D02*
X135462999Y-55750000D01*
X135463010Y-43000000D02*
X135463010Y-42250000D01*
X135542910Y-25000000D02*
X135542910Y-26000000D01*
X135544000Y-25000000D02*
X135544000Y-24000000D01*
X135741599Y-55000000D02*
X135741599Y-55750000D01*
X135741610Y-43000000D02*
X135741610Y-42250000D01*
X135754816Y-33500000D02*
X135754816Y-34500000D01*
X135837999Y-15000000D02*
X135837999Y-16000000D01*
X136017799Y-55000000D02*
X136017799Y-56000000D01*
X136017810Y-43000000D02*
X136017810Y-42000000D01*
X136079999Y-65000000D02*
X136079999Y-64000000D01*
X136150116Y-33500000D02*
X136150116Y-34500000D01*
X136291699Y-55000000D02*
X136291699Y-55750000D01*
X136291710Y-43000000D02*
X136291710Y-42250000D01*
X136466899Y-15000000D02*
X136466899Y-16000000D01*
X136550116Y-33500000D02*
X136550116Y-34500000D01*
X136563299Y-55000000D02*
X136563299Y-55750000D01*
X136563310Y-43000000D02*
X136563310Y-42250000D01*
X136681510Y-25000000D02*
X136681510Y-26500000D01*
X136682600Y-25000000D02*
X136682600Y-23500000D01*
X136832798Y-55000000D02*
X136832798Y-55750000D01*
X136832809Y-43000000D02*
X136832809Y-42250000D01*
D11*
X136839999Y-65000000D02*
X136839999Y-64000000D01*
X136955116Y-33500000D02*
X136955116Y-34500000D01*
D10*
X137061798Y-15000000D02*
X137061798Y-16000000D01*
X137099998Y-55000000D02*
X137099998Y-55750000D01*
X137100009Y-43000000D02*
X137100009Y-42250000D01*
X137365199Y-55000000D02*
X137365199Y-55750000D01*
X137365210Y-43000000D02*
X137365210Y-42250000D01*
D11*
X137365216Y-32500001D02*
X137365216Y-35500000D01*
X137599998Y-65000000D02*
X137599998Y-62000000D01*
D10*
X137626099Y-15000000D02*
X137626099Y-18000000D01*
X137628199Y-55000000D02*
X137628199Y-55750000D01*
X137628210Y-43000000D02*
X137628210Y-42250000D01*
X137746609Y-25000000D02*
X137746609Y-26000000D01*
X137747699Y-25000000D02*
X137747699Y-24000000D01*
X137780316Y-33500000D02*
X137780316Y-34500000D01*
X137889099Y-55000000D02*
X137889099Y-55750000D01*
X137889110Y-43000000D02*
X137889110Y-42250000D01*
X138147998Y-55000000D02*
X138147998Y-55750000D01*
X138148009Y-43000000D02*
X138148009Y-42250000D01*
X138162898Y-15000000D02*
X138162898Y-16000000D01*
X138200815Y-33500000D02*
X138200815Y-34500000D01*
X138359998Y-65000000D02*
X138359998Y-64000000D01*
X138404798Y-55000000D02*
X138404798Y-55750000D01*
X138404809Y-43000000D02*
X138404809Y-42250000D01*
X138626715Y-33500000D02*
X138626715Y-34500000D01*
X138659698Y-55000000D02*
X138659698Y-56000000D01*
X138659709Y-43000000D02*
X138659709Y-42000000D01*
X138674698Y-15000000D02*
X138674698Y-16000000D01*
X138747109Y-25000000D02*
X138747109Y-26000000D01*
X138748199Y-25000000D02*
X138748199Y-24000000D01*
X138912598Y-55000000D02*
X138912598Y-55750000D01*
X138912609Y-43000000D02*
X138912609Y-42250000D01*
D11*
X139058215Y-33500000D02*
X139058215Y-34500000D01*
X139119998Y-65000000D02*
X139119998Y-64000000D01*
D10*
X139163598Y-55000000D02*
X139163598Y-55750000D01*
X139163609Y-43000000D02*
X139163609Y-42250000D01*
X139163798Y-15000000D02*
X139163798Y-16000000D01*
X139412698Y-55000000D02*
X139412698Y-55750000D01*
X139412709Y-43000000D02*
X139412709Y-42250000D01*
D11*
X139495315Y-33250000D02*
X139495315Y-34750000D01*
D10*
X139631998Y-15000000D02*
X139631998Y-16000000D01*
X139659998Y-55000000D02*
X139659998Y-55750000D01*
X139660009Y-43000000D02*
X139660009Y-42250000D01*
X139690409Y-25000000D02*
X139690409Y-26000000D01*
X139691499Y-25000000D02*
X139691499Y-24000000D01*
D11*
X139879998Y-65000000D02*
X139879998Y-64000000D01*
D10*
X139905398Y-55000000D02*
X139905398Y-55750000D01*
X139905409Y-43000000D02*
X139905409Y-42250000D01*
D11*
X139938415Y-33500000D02*
X139938415Y-34500000D01*
D10*
X140081098Y-15000000D02*
X140081098Y-16500000D01*
X140148998Y-55000000D02*
X140148998Y-55750000D01*
X140149009Y-43000000D02*
X140149009Y-42250000D01*
D11*
X140387515Y-33500000D02*
X140387515Y-34500000D01*
D10*
X140390798Y-55000000D02*
X140390798Y-55750000D01*
X140390809Y-43000000D02*
X140390809Y-42250000D01*
X140512698Y-15000000D02*
X140512698Y-16000000D01*
X140582609Y-25000000D02*
X140582609Y-26000000D01*
X140583699Y-25000000D02*
X140583699Y-24000000D01*
X140630798Y-55000000D02*
X140630798Y-55750000D01*
X140630809Y-43000000D02*
X140630809Y-42250000D01*
X140639998Y-65000000D02*
X140639998Y-64000000D01*
D11*
X140842715Y-33500000D02*
X140842715Y-34500000D01*
D10*
X140869098Y-55000000D02*
X140869098Y-55750000D01*
X140869109Y-43000000D02*
X140869109Y-42250000D01*
X140927898Y-15000000D02*
X140927898Y-16000000D01*
X141105698Y-55000000D02*
X141105698Y-56000000D01*
X141105709Y-43000000D02*
X141105709Y-42000000D01*
D11*
X141304415Y-33500000D02*
X141304415Y-34500000D01*
D10*
X141327998Y-15000000D02*
X141327998Y-16000000D01*
X141340698Y-55000000D02*
X141340698Y-55750000D01*
X141340709Y-43000000D02*
X141340709Y-42250000D01*
X141399998Y-65000000D02*
X141399998Y-63500000D01*
X141429109Y-25000000D02*
X141429109Y-28000000D01*
X141430199Y-25000000D02*
X141430199Y-22000000D01*
X141573898Y-55000000D02*
X141573898Y-55750000D01*
X141573909Y-43000000D02*
X141573909Y-42250000D01*
X141714098Y-15000000D02*
X141714098Y-16000000D01*
D11*
X141772515Y-32500001D02*
X141772515Y-35500000D01*
D10*
X141805498Y-55000000D02*
X141805498Y-55750000D01*
X141805509Y-43000000D02*
X141805509Y-42250000D01*
X142035498Y-55000000D02*
X142035498Y-55750000D01*
X142035509Y-43000000D02*
X142035509Y-42250000D01*
X142087098Y-15000000D02*
X142087098Y-18000000D01*
X142159998Y-65000000D02*
X142159998Y-64000000D01*
X142234309Y-25000000D02*
X142234309Y-26000000D01*
X142235399Y-25000000D02*
X142235399Y-24000000D01*
D11*
X142247515Y-33500000D02*
X142247515Y-34500000D01*
D10*
X142263998Y-55000000D02*
X142263998Y-55750000D01*
X142264009Y-43000000D02*
X142264009Y-42250000D01*
X142447798Y-15000000D02*
X142447798Y-16000000D01*
X142490798Y-55000000D02*
X142490798Y-55750000D01*
X142490809Y-43000000D02*
X142490809Y-42250000D01*
X142716098Y-55000000D02*
X142716098Y-55750000D01*
X142716109Y-43000000D02*
X142716109Y-42250000D01*
D11*
X142729315Y-33500000D02*
X142729315Y-34500000D01*
D10*
X142797098Y-15000000D02*
X142797098Y-16000000D01*
X142919998Y-65000000D02*
X142919998Y-64000000D01*
X142939898Y-55000000D02*
X142939898Y-55750000D01*
X142939909Y-43000000D02*
X142939909Y-42250000D01*
X143002109Y-25000000D02*
X143002109Y-26000000D01*
X143003199Y-25000000D02*
X143003199Y-24000000D01*
X143135698Y-15000000D02*
X143135698Y-16000000D01*
X143162198Y-55000000D02*
X143162198Y-55750000D01*
X143162209Y-43000000D02*
X143162209Y-42250000D01*
X143218315Y-33500000D02*
X143218315Y-34500000D01*
X143382897Y-55000000D02*
X143382897Y-56500000D01*
X143382908Y-43000000D02*
X143382908Y-41500000D01*
X143464097Y-15000000D02*
X143464097Y-16000000D01*
X143602197Y-55000000D02*
X143602197Y-55750000D01*
X143602208Y-43000000D02*
X143602208Y-42250000D01*
D11*
X143679997Y-65000000D02*
X143679997Y-64000000D01*
X143714714Y-33500000D02*
X143714714Y-34500000D01*
D10*
X143735708Y-25000000D02*
X143735708Y-26000000D01*
X143736798Y-25000000D02*
X143736798Y-24000000D01*
X143783097Y-15000000D02*
X143783097Y-16500000D01*
X143820097Y-55000000D02*
X143820097Y-55750000D01*
X143820108Y-43000000D02*
X143820108Y-42250000D01*
X144036497Y-55000000D02*
X144036497Y-55750000D01*
X144036508Y-43000000D02*
X144036508Y-42250000D01*
X144092997Y-15000000D02*
X144092997Y-16000000D01*
D11*
X144218614Y-33250000D02*
X144218614Y-34750000D01*
D10*
X144251597Y-55000000D02*
X144251597Y-55750000D01*
X144251608Y-43000000D02*
X144251608Y-42250000D01*
X144394397Y-15000000D02*
X144394397Y-16000000D01*
X144438008Y-25000000D02*
X144438008Y-26000000D01*
X144439098Y-25000000D02*
X144439098Y-24000000D01*
D11*
X144439997Y-65000000D02*
X144439997Y-64000000D01*
D10*
X144465197Y-55000000D02*
X144465197Y-55750000D01*
X144465208Y-43000000D02*
X144465208Y-42250000D01*
X144677497Y-55000000D02*
X144677497Y-55750000D01*
X144677508Y-43000000D02*
X144677508Y-42250000D01*
X144687897Y-15000000D02*
X144687897Y-16000000D01*
D11*
X144730314Y-33500000D02*
X144730314Y-34500000D01*
D10*
X144888397Y-55000000D02*
X144888397Y-55750000D01*
X144888408Y-43000000D02*
X144888408Y-42250000D01*
X144973597Y-15000000D02*
X144973597Y-16000000D01*
X145097897Y-55000000D02*
X145097897Y-55750000D01*
X145097908Y-43000000D02*
X145097908Y-42250000D01*
X145111708Y-25000000D02*
X145111708Y-26500000D01*
X145112798Y-25000000D02*
X145112798Y-23500000D01*
D11*
X145199997Y-65000000D02*
X145199997Y-62000000D01*
D10*
X145250114Y-33500000D02*
X145250114Y-34500000D01*
X145252197Y-15000000D02*
X145252197Y-18000000D01*
X145306197Y-55000000D02*
X145306197Y-55750000D01*
X145306208Y-43000000D02*
X145306208Y-42250000D01*
X145513097Y-55000000D02*
X145513097Y-56000000D01*
X145513108Y-43000000D02*
X145513108Y-42000000D01*
X145523897Y-15000000D02*
X145523897Y-16000000D01*
X145718797Y-55000000D02*
X145718797Y-55750000D01*
X145718808Y-43000000D02*
X145718808Y-42250000D01*
X145759008Y-25000000D02*
X145759008Y-26000000D01*
X145760098Y-25000000D02*
X145760098Y-24000000D01*
D11*
X145778214Y-33500000D02*
X145778214Y-34500000D01*
D10*
X145788997Y-15000000D02*
X145788997Y-16000000D01*
X145923098Y-55000000D02*
X145923098Y-55750000D01*
X145923109Y-43000000D02*
X145923109Y-42250000D01*
D11*
X145959997Y-65000000D02*
X145959997Y-64000000D01*
D10*
X146047895Y-15000000D02*
X146047895Y-16000000D01*
X146126297Y-55000000D02*
X146126297Y-55750000D01*
X146126308Y-43000000D02*
X146126308Y-42250000D01*
X146300796Y-15000000D02*
X146300796Y-16000000D01*
D11*
X146314913Y-33500000D02*
X146314913Y-34500000D01*
D10*
X146328096Y-55000000D02*
X146328096Y-55750000D01*
X146328107Y-43000000D02*
X146328107Y-42250000D01*
X146381807Y-25000000D02*
X146381807Y-26000000D01*
X146382897Y-25000000D02*
X146382897Y-24000000D01*
X146528795Y-55000000D02*
X146528795Y-55750000D01*
X146528806Y-43000000D02*
X146528806Y-42250000D01*
X146548096Y-15000000D02*
X146548096Y-16500000D01*
D11*
X146719995Y-65000000D02*
X146719995Y-64000000D01*
D10*
X146728197Y-55000000D02*
X146728197Y-55750000D01*
X146728208Y-43000000D02*
X146728208Y-42250000D01*
X146789896Y-15000000D02*
X146789896Y-16000000D01*
D11*
X146860513Y-32500001D02*
X146860513Y-35500000D01*
D10*
X146926496Y-55000000D02*
X146926496Y-55750000D01*
X146926507Y-43000000D02*
X146926507Y-42250000D01*
X146982008Y-25000000D02*
X146982008Y-26000000D01*
X146983098Y-25000000D02*
X146983098Y-24000000D01*
X147026497Y-15000000D02*
X147026497Y-16000000D01*
X147123497Y-55000000D02*
X147123497Y-55750000D01*
X147123508Y-43000000D02*
X147123508Y-42250000D01*
X147258097Y-15000000D02*
X147258097Y-16000000D01*
X147319397Y-55000000D02*
X147319397Y-55750000D01*
X147319408Y-43000000D02*
X147319408Y-42250000D01*
X147415212Y-33500000D02*
X147415212Y-34500000D01*
X147479996Y-65000000D02*
X147479996Y-64000000D01*
X147484997Y-15000000D02*
X147484997Y-16000000D01*
X147514095Y-55000000D02*
X147514095Y-56000000D01*
X147514106Y-43000000D02*
X147514106Y-42000000D01*
X147561107Y-25000000D02*
X147561107Y-26000000D01*
X147562197Y-25000000D02*
X147562197Y-24000000D01*
X147707195Y-15000000D02*
X147707195Y-18000000D01*
X147707697Y-55000000D02*
X147707697Y-55750000D01*
X147707708Y-43000000D02*
X147707708Y-42250000D01*
X147900196Y-55000000D02*
X147900196Y-55750000D01*
X147900207Y-43000000D02*
X147900207Y-42250000D01*
X147925096Y-15000000D02*
X147925096Y-16000000D01*
D11*
X147979513Y-33500000D02*
X147979513Y-34500000D01*
D10*
X148091495Y-55000000D02*
X148091495Y-55750000D01*
X148091506Y-43000000D02*
X148091506Y-42250000D01*
X148120607Y-25000000D02*
X148120607Y-28000000D01*
X148121697Y-25000000D02*
X148121697Y-22000000D01*
X148138796Y-15000000D02*
X148138796Y-16000000D01*
D11*
X148239996Y-65000000D02*
X148239996Y-64000000D01*
D10*
X148281696Y-55000000D02*
X148281696Y-55750000D01*
X148281707Y-43000000D02*
X148281707Y-42250000D01*
X148348297Y-15000000D02*
X148348297Y-16000000D01*
X148470896Y-55000000D02*
X148470896Y-55750000D01*
X148470907Y-43000000D02*
X148470907Y-42250000D01*
D11*
X148553512Y-33500000D02*
X148553512Y-34500000D01*
D10*
X148553997Y-15000000D02*
X148553997Y-16000000D01*
X148658996Y-55000000D02*
X148658996Y-55750000D01*
X148659007Y-43000000D02*
X148659007Y-42250000D01*
X148661707Y-25000000D02*
X148661707Y-26000000D01*
X148662797Y-25000000D02*
X148662797Y-24000000D01*
X148755896Y-15000000D02*
X148755896Y-16500000D01*
X148845997Y-55000000D02*
X148845997Y-55750000D01*
X148846008Y-43000000D02*
X148846008Y-42250000D01*
X148954096Y-15000000D02*
X148954096Y-16000000D01*
X148999996Y-65000000D02*
X148999996Y-63500000D01*
X149031896Y-55000000D02*
X149031896Y-55750000D01*
X149031907Y-43000000D02*
X149031907Y-42250000D01*
D11*
X149137712Y-33500000D02*
X149137712Y-34500000D01*
D10*
X149148796Y-15000000D02*
X149148796Y-16000000D01*
X149185707Y-25000000D02*
X149185707Y-26000000D01*
X149186797Y-25000000D02*
X149186797Y-24000000D01*
X149216797Y-55000000D02*
X149216797Y-55750000D01*
X149216808Y-43000000D02*
X149216808Y-42250000D01*
X149340197Y-15000000D02*
X149340197Y-16000000D01*
X149400696Y-55000000D02*
X149400696Y-56000000D01*
X149400707Y-43000000D02*
X149400707Y-42000000D01*
X149528295Y-15000000D02*
X149528295Y-16000000D01*
X149583595Y-55000000D02*
X149583595Y-55750000D01*
X149583606Y-43000000D02*
X149583606Y-42250000D01*
X149693508Y-25000000D02*
X149693508Y-26000000D01*
X149694598Y-25000000D02*
X149694598Y-24000000D01*
X149713196Y-15000000D02*
X149713196Y-18000000D01*
D11*
X149732414Y-33250000D02*
X149732414Y-34750000D01*
D10*
X149759996Y-65000000D02*
X149759996Y-64000000D01*
X149765396Y-55000000D02*
X149765396Y-55750000D01*
X149765407Y-43000000D02*
X149765407Y-42250000D01*
X149894997Y-15000000D02*
X149894997Y-16000000D01*
X149946297Y-55000000D02*
X149946297Y-55750000D01*
X149946308Y-43000000D02*
X149946308Y-42250000D01*
X150073896Y-15000000D02*
X150073896Y-16000000D01*
X150126196Y-55000000D02*
X150126196Y-55750000D01*
X150126207Y-43000000D02*
X150126207Y-42250000D01*
X150186207Y-25000000D02*
X150186207Y-26000000D01*
X150187297Y-25000000D02*
X150187297Y-24000000D01*
X150249996Y-15000000D02*
X150249996Y-16000000D01*
X150305096Y-55000000D02*
X150305096Y-55750000D01*
X150305107Y-43000000D02*
X150305107Y-42250000D01*
D11*
X150338114Y-33500000D02*
X150338114Y-34500000D01*
D10*
X150423197Y-15000000D02*
X150423197Y-16000000D01*
X150482996Y-55000000D02*
X150482996Y-55750000D01*
X150483007Y-43000000D02*
X150483007Y-42250000D01*
D11*
X150519997Y-65000000D02*
X150519997Y-64000000D01*
D10*
X150593796Y-15000000D02*
X150593796Y-16500000D01*
X150659996Y-55000000D02*
X150659996Y-55750000D01*
X150660007Y-43000000D02*
X150660007Y-42250000D01*
X150664608Y-25000000D02*
X150664608Y-26500000D01*
X150665698Y-25000000D02*
X150665698Y-23500000D01*
X150761797Y-15000000D02*
X150761797Y-16000000D01*
X150835997Y-55000000D02*
X150835997Y-55750000D01*
X150836008Y-43000000D02*
X150836008Y-42250000D01*
X150927196Y-15000000D02*
X150927196Y-16000000D01*
D11*
X150955013Y-33500000D02*
X150955013Y-34500000D01*
D10*
X151011097Y-55000000D02*
X151011097Y-55750000D01*
X151011108Y-43000000D02*
X151011108Y-42250000D01*
X151090197Y-15000000D02*
X151090197Y-16000000D01*
X151129507Y-25000000D02*
X151129507Y-26000000D01*
X151130597Y-25000000D02*
X151130597Y-24000000D01*
X151185297Y-55000000D02*
X151185297Y-56000000D01*
X151185308Y-43000000D02*
X151185308Y-42000000D01*
X151250795Y-15000000D02*
X151250795Y-16000000D01*
D11*
X151279997Y-65000000D02*
X151279997Y-64000000D01*
D10*
X151358496Y-55000000D02*
X151358496Y-55750000D01*
X151358507Y-43000000D02*
X151358507Y-42250000D01*
X151409197Y-15000000D02*
X151409197Y-18000000D01*
X151530895Y-55000000D02*
X151530895Y-55750000D01*
X151530906Y-43000000D02*
X151530906Y-42250000D01*
X151565197Y-15000000D02*
X151565197Y-16000000D01*
X151581707Y-25000000D02*
X151581707Y-26000000D01*
X151582797Y-25000000D02*
X151582797Y-24000000D01*
X151583713Y-33500000D02*
X151583713Y-34500000D01*
X151702396Y-55000000D02*
X151702396Y-55750000D01*
X151702407Y-43000000D02*
X151702407Y-42250000D01*
X151719097Y-15000000D02*
X151719097Y-16000000D01*
X151870796Y-15000000D02*
X151870796Y-16000000D01*
X151872896Y-55000000D02*
X151872896Y-55750000D01*
X151872907Y-43000000D02*
X151872907Y-42250000D01*
X152020496Y-15000000D02*
X152020496Y-16000000D01*
X152021806Y-25000000D02*
X152021806Y-26000000D01*
X152022896Y-25000000D02*
X152022896Y-24000000D01*
D11*
X152039997Y-65000000D02*
X152039997Y-64000000D01*
D10*
X152042597Y-55000000D02*
X152042597Y-55750000D01*
X152042608Y-43000000D02*
X152042608Y-42250000D01*
X152168196Y-15000000D02*
X152168196Y-16500000D01*
X152211496Y-55000000D02*
X152211496Y-55750000D01*
X152211507Y-43000000D02*
X152211507Y-42250000D01*
D11*
X152224714Y-33500000D02*
X152224714Y-34500000D01*
D10*
X152313896Y-15000000D02*
X152313896Y-16000000D01*
X152379396Y-55000000D02*
X152379396Y-55750000D01*
X152379407Y-43000000D02*
X152379407Y-42250000D01*
X152450508Y-25000000D02*
X152450508Y-26000000D01*
X152451598Y-25000000D02*
X152451598Y-24000000D01*
X152457796Y-15000000D02*
X152457796Y-16000000D01*
X152546596Y-55000000D02*
X152546596Y-55750000D01*
X152546607Y-43000000D02*
X152546607Y-42250000D01*
X152599697Y-15000000D02*
X152599697Y-16000000D01*
X152712795Y-55000000D02*
X152712795Y-55750000D01*
X152712806Y-43000000D02*
X152712806Y-42250000D01*
X152739897Y-15000000D02*
X152739897Y-16000000D01*
X152799995Y-65000000D02*
X152799995Y-62000000D01*
X152868307Y-25000000D02*
X152868307Y-28000000D01*
X152869397Y-25000000D02*
X152869397Y-22000000D01*
X152878296Y-15000000D02*
X152878296Y-18000000D01*
X152878296Y-55000000D02*
X152878296Y-58000000D01*
X152878307Y-43000000D02*
X152878307Y-40000000D01*
X152878313Y-32500001D02*
X152878313Y-35500000D01*
X153014995Y-15000000D02*
X153014995Y-16000000D01*
X153149996Y-15000000D02*
X153149996Y-16000000D01*
X153206695Y-55000000D02*
X153206695Y-55750000D01*
X153206706Y-43000000D02*
X153206706Y-42250000D01*
X153275808Y-25000000D02*
X153275808Y-26000000D01*
X153276898Y-25000000D02*
X153276898Y-24000000D01*
X153283296Y-15000000D02*
X153283296Y-16000000D01*
X153415096Y-15000000D02*
X153415096Y-16000000D01*
X153531896Y-55000000D02*
X153531896Y-55750000D01*
X153531907Y-43000000D02*
X153531907Y-42250000D01*
D11*
X153545112Y-33500000D02*
X153545112Y-34500000D01*
D10*
X153545296Y-15000000D02*
X153545296Y-16500000D01*
X153559996Y-65000000D02*
X153559996Y-64000000D01*
X153673507Y-25000000D02*
X153673507Y-26000000D01*
X153673996Y-15000000D02*
X153673996Y-16000000D01*
X153674597Y-25000000D02*
X153674597Y-24000000D01*
X153801197Y-15000000D02*
X153801197Y-16000000D01*
X153853897Y-55000000D02*
X153853897Y-55750000D01*
X153853908Y-43000000D02*
X153853908Y-42250000D01*
X153926897Y-15000000D02*
X153926897Y-16000000D01*
X154051197Y-15000000D02*
X154051197Y-16000000D01*
X154061807Y-25000000D02*
X154061807Y-26000000D01*
X154062897Y-25000000D02*
X154062897Y-24000000D01*
X154172796Y-55000000D02*
X154172796Y-55750000D01*
X154172807Y-43000000D02*
X154172807Y-42250000D01*
X154174097Y-15000000D02*
X154174097Y-18000000D01*
X154225713Y-33500000D02*
X154225713Y-34500000D01*
X154295696Y-15000000D02*
X154295696Y-16000000D01*
D11*
X154319996Y-65000000D02*
X154319996Y-64000000D01*
D10*
X154415996Y-15000000D02*
X154415996Y-16000000D01*
X154441208Y-25000000D02*
X154441208Y-26000000D01*
X154442298Y-25000000D02*
X154442298Y-24000000D01*
X154488697Y-55000000D02*
X154488697Y-56000000D01*
X154488708Y-43000000D02*
X154488708Y-42000000D01*
X154534897Y-15000000D02*
X154534897Y-16000000D01*
X154652595Y-15000000D02*
X154652595Y-16000000D01*
X154768995Y-15000000D02*
X154768995Y-16500000D01*
X154801496Y-55000000D02*
X154801496Y-55750000D01*
X154801507Y-43000000D02*
X154801507Y-42250000D01*
X154812107Y-25000000D02*
X154812107Y-26500000D01*
X154813197Y-25000000D02*
X154813197Y-23500000D01*
X154884195Y-15000000D02*
X154884195Y-16000000D01*
D11*
X154920614Y-33500000D02*
X154920614Y-34500000D01*
D10*
X154998196Y-15000000D02*
X154998196Y-16000000D01*
D11*
X155079996Y-65000000D02*
X155079996Y-64000000D01*
D10*
X155111095Y-15000000D02*
X155111095Y-16000000D01*
X155111397Y-55000000D02*
X155111397Y-55750000D01*
X155111408Y-43000000D02*
X155111408Y-42250000D01*
X155174806Y-25000000D02*
X155174806Y-26000000D01*
X155175896Y-25000000D02*
X155175896Y-24000000D01*
X155222795Y-15000000D02*
X155222795Y-16000000D01*
X155333296Y-15000000D02*
X155333296Y-18000000D01*
X155418497Y-55000000D02*
X155418497Y-55750000D01*
X155418508Y-43000000D02*
X155418508Y-42250000D01*
X155529707Y-25000000D02*
X155529707Y-26000000D01*
X155530797Y-25000000D02*
X155530797Y-24000000D01*
D11*
X155630413Y-33500000D02*
X155630413Y-34500000D01*
D10*
X155722696Y-55000000D02*
X155722696Y-55750000D01*
X155722707Y-43000000D02*
X155722707Y-42250000D01*
X155839996Y-65000000D02*
X155839996Y-64000000D01*
X155877206Y-25000000D02*
X155877206Y-26000000D01*
X155878296Y-25000000D02*
X155878296Y-24000000D01*
X156024095Y-55000000D02*
X156024095Y-56000000D01*
X156024106Y-43000000D02*
X156024106Y-42000000D01*
X156217508Y-25000000D02*
X156217508Y-26000000D01*
X156218598Y-25000000D02*
X156218598Y-24000000D01*
X156322796Y-55000000D02*
X156322796Y-55750000D01*
X156322807Y-43000000D02*
X156322807Y-42250000D01*
D11*
X156355814Y-33250000D02*
X156355814Y-34750000D01*
D10*
X156381897Y-15000000D02*
X156381897Y-16000000D01*
X156550907Y-25000000D02*
X156550907Y-28000000D01*
X156551997Y-25000000D02*
X156551997Y-22000000D01*
D11*
X156599996Y-65000000D02*
X156599996Y-63500000D01*
D10*
X156618795Y-55000000D02*
X156618795Y-55750000D01*
X156618806Y-43000000D02*
X156618806Y-42250000D01*
X156877704Y-25000000D02*
X156877704Y-26000000D01*
X156878794Y-25000000D02*
X156878794Y-24000000D01*
X156912195Y-55000000D02*
X156912195Y-55750000D01*
X156912206Y-43000000D02*
X156912206Y-42250000D01*
X157097612Y-33500000D02*
X157097612Y-34500000D01*
X157198105Y-25000000D02*
X157198105Y-26000000D01*
X157199195Y-25000000D02*
X157199195Y-24000000D01*
X157202993Y-55000000D02*
X157202993Y-55750000D01*
X157203004Y-43000000D02*
X157203004Y-42250000D01*
X157339294Y-15000000D02*
X157339294Y-16000000D01*
D11*
X157359995Y-65000000D02*
X157359995Y-64000000D01*
D10*
X157491295Y-55000000D02*
X157491295Y-56000000D01*
X157491306Y-43000000D02*
X157491306Y-42000000D01*
X157512504Y-25000000D02*
X157512504Y-26000000D01*
X157513594Y-25000000D02*
X157513594Y-24000000D01*
X157777094Y-55000000D02*
X157777094Y-55750000D01*
X157777105Y-43000000D02*
X157777105Y-42250000D01*
X157821005Y-25000000D02*
X157821005Y-26000000D01*
X157822095Y-25000000D02*
X157822095Y-24000000D01*
D11*
X157856411Y-33500000D02*
X157856411Y-34500000D01*
D10*
X158060394Y-55000000D02*
X158060394Y-55750000D01*
X158060405Y-43000000D02*
X158060405Y-42250000D01*
D11*
X158119995Y-65000000D02*
X158119995Y-64000000D01*
D10*
X158123806Y-25000000D02*
X158123806Y-26500000D01*
X158124896Y-25000000D02*
X158124896Y-23500000D01*
X158219894Y-15000000D02*
X158219894Y-16000000D01*
X158341293Y-55000000D02*
X158341293Y-55750000D01*
X158341304Y-43000000D02*
X158341304Y-42250000D01*
X158421106Y-25000000D02*
X158421106Y-26000000D01*
X158422196Y-25000000D02*
X158422196Y-24000000D01*
X158619795Y-55000000D02*
X158619795Y-55750000D01*
X158619806Y-43000000D02*
X158619806Y-42250000D01*
D11*
X158633112Y-33500000D02*
X158633112Y-34500000D01*
D10*
X158713205Y-25000000D02*
X158713205Y-26000000D01*
X158714295Y-25000000D02*
X158714295Y-24000000D01*
D11*
X158879993Y-65000000D02*
X158879993Y-64000000D01*
D10*
X158896093Y-55000000D02*
X158896093Y-56000000D01*
X158896104Y-43000000D02*
X158896104Y-42000000D01*
X159000305Y-25000000D02*
X159000305Y-26000000D01*
X159001395Y-25000000D02*
X159001395Y-24000000D01*
X159035194Y-15000000D02*
X159035194Y-16000000D01*
X159169994Y-55000000D02*
X159169994Y-55750000D01*
X159170005Y-43000000D02*
X159170005Y-42250000D01*
X159282406Y-25000000D02*
X159282406Y-26000000D01*
X159283496Y-25000000D02*
X159283496Y-24000000D01*
D11*
X159428411Y-33500000D02*
X159428411Y-34500000D01*
D10*
X159441595Y-55000000D02*
X159441595Y-55750000D01*
X159441606Y-43000000D02*
X159441606Y-42250000D01*
X159559705Y-25000000D02*
X159559705Y-28000000D01*
X159560795Y-25000000D02*
X159560795Y-22000000D01*
X159639994Y-65000000D02*
X159639994Y-64000000D01*
X159711094Y-55000000D02*
X159711094Y-55750000D01*
X159711105Y-43000000D02*
X159711105Y-42250000D01*
X159794294Y-15000000D02*
X159794294Y-16500000D01*
X159832506Y-25000000D02*
X159832506Y-26000000D01*
X159833596Y-25000000D02*
X159833596Y-24000000D01*
X159978294Y-55000000D02*
X159978294Y-55750000D01*
X159978305Y-43000000D02*
X159978305Y-42250000D01*
X160100906Y-25000000D02*
X160100906Y-26000000D01*
X160101996Y-25000000D02*
X160101996Y-24000000D01*
X160243395Y-55000000D02*
X160243395Y-56500000D01*
X160243406Y-43000000D02*
X160243406Y-41500000D01*
X160243412Y-32500001D02*
X160243412Y-35500000D01*
X160364906Y-25000000D02*
X160364906Y-26000000D01*
X160365996Y-25000000D02*
X160365996Y-24000000D01*
X160399994Y-65000000D02*
X160399994Y-62000000D01*
X160408910Y-33625000D02*
X160408910Y-34375000D01*
X160504394Y-15000000D02*
X160504394Y-16000000D01*
X160506393Y-55000000D02*
X160506393Y-55750000D01*
X160506404Y-43000000D02*
X160506404Y-42250000D01*
D11*
X160575210Y-33625000D02*
X160575210Y-34375000D01*
D10*
X160624805Y-25000000D02*
X160624805Y-26000000D01*
X160625895Y-25000000D02*
X160625895Y-24000000D01*
X160742311Y-33625000D02*
X160742311Y-34375000D01*
X160767395Y-55000000D02*
X160767395Y-55750000D01*
X160767406Y-43000000D02*
X160767406Y-42250000D01*
X160880705Y-25000000D02*
X160880705Y-26500000D01*
X160881795Y-25000000D02*
X160881795Y-23500000D01*
D11*
X160910310Y-33625000D02*
X160910310Y-34375000D01*
D10*
X161026194Y-55000000D02*
X161026194Y-55750000D01*
X161026205Y-43000000D02*
X161026205Y-42250000D01*
X161079111Y-33500000D02*
X161079111Y-34500000D01*
X161132705Y-25000000D02*
X161132705Y-26000000D01*
X161133795Y-25000000D02*
X161133795Y-24000000D01*
X161159994Y-65000000D02*
X161159994Y-64000000D01*
X161171394Y-15000000D02*
X161171394Y-16000000D01*
X161248811Y-33625000D02*
X161248811Y-34375000D01*
X161283094Y-55000000D02*
X161283094Y-55750000D01*
X161283105Y-43000000D02*
X161283105Y-42250000D01*
X161380806Y-25000000D02*
X161380806Y-26000000D01*
X161381896Y-25000000D02*
X161381896Y-24000000D01*
X161419410Y-33625000D02*
X161419410Y-34375000D01*
X161537994Y-55000000D02*
X161537994Y-56000000D01*
X161538005Y-43000000D02*
X161538005Y-42000000D01*
D11*
X161590811Y-33625000D02*
X161590811Y-34375000D01*
D10*
X161625305Y-25000000D02*
X161625305Y-26000000D01*
X161626395Y-25000000D02*
X161626395Y-24000000D01*
X161763212Y-33625000D02*
X161763212Y-34375000D01*
X161790893Y-55000000D02*
X161790893Y-55750000D01*
X161790904Y-43000000D02*
X161790904Y-42250000D01*
X161800194Y-15000000D02*
X161800194Y-16000000D01*
X161866306Y-25000000D02*
X161866306Y-26000000D01*
X161867396Y-25000000D02*
X161867396Y-24000000D01*
D11*
X161919994Y-65000000D02*
X161919994Y-64000000D01*
X161936411Y-33500000D02*
X161936411Y-34500000D01*
D10*
X162041891Y-55000000D02*
X162041891Y-55750000D01*
X162041902Y-43000000D02*
X162041902Y-42250000D01*
X162103702Y-25000000D02*
X162103702Y-28000000D01*
X162104792Y-25000000D02*
X162104792Y-22000000D01*
X162110607Y-33625000D02*
X162110607Y-34375000D01*
D11*
X162285709Y-33625000D02*
X162285709Y-34375000D01*
D10*
X162290991Y-55000000D02*
X162290991Y-55750000D01*
X162291002Y-43000000D02*
X162291002Y-42250000D01*
X162337803Y-25000000D02*
X162337803Y-26000000D01*
X162338893Y-25000000D02*
X162338893Y-24000000D01*
X162395090Y-15000000D02*
X162395090Y-16000000D01*
D11*
X162461807Y-33625000D02*
X162461807Y-34375000D01*
D10*
X162538191Y-55000000D02*
X162538191Y-55750000D01*
X162538202Y-43000000D02*
X162538202Y-42250000D01*
X162568603Y-25000000D02*
X162568603Y-26000000D01*
X162569693Y-25000000D02*
X162569693Y-24000000D01*
D11*
X162638706Y-33625000D02*
X162638706Y-34375000D01*
D10*
X162679991Y-65000000D02*
X162679991Y-64000000D01*
X162783590Y-55000000D02*
X162783590Y-56000000D01*
X162783601Y-43000000D02*
X162783601Y-42000000D01*
X162796302Y-25000000D02*
X162796302Y-26000000D01*
X162797392Y-25000000D02*
X162797392Y-24000000D01*
D11*
X162816707Y-33500000D02*
X162816707Y-34500000D01*
D10*
X162959391Y-15000000D02*
X162959391Y-18000000D01*
X162995609Y-33625000D02*
X162995609Y-34375000D01*
X163020801Y-25000000D02*
X163020801Y-26000000D01*
X163021891Y-25000000D02*
X163021891Y-24000000D01*
X163027189Y-55000000D02*
X163027189Y-55750000D01*
X163027200Y-43000000D02*
X163027200Y-42250000D01*
X163175407Y-33625000D02*
X163175407Y-34375000D01*
X163242302Y-25000000D02*
X163242302Y-26500000D01*
X163243392Y-25000000D02*
X163243392Y-23500000D01*
X163268991Y-55000000D02*
X163268991Y-55750000D01*
X163269002Y-43000000D02*
X163269002Y-42250000D01*
D11*
X163356308Y-33625000D02*
X163356308Y-34375000D01*
X163439989Y-65000000D02*
X163439989Y-64000000D01*
D10*
X163460903Y-25000000D02*
X163460903Y-26000000D01*
X163461993Y-25000000D02*
X163461993Y-24000000D01*
X163496191Y-15000000D02*
X163496191Y-16000000D01*
X163509092Y-55000000D02*
X163509092Y-55750000D01*
X163509103Y-43000000D02*
X163509103Y-42250000D01*
D11*
X163538109Y-33625000D02*
X163538109Y-34375000D01*
D10*
X163676601Y-25000000D02*
X163676601Y-26000000D01*
X163677691Y-25000000D02*
X163677691Y-24000000D01*
X163721008Y-33500000D02*
X163721008Y-34500000D01*
X163747389Y-55000000D02*
X163747389Y-55750000D01*
X163747400Y-43000000D02*
X163747400Y-42250000D01*
X163889602Y-25000000D02*
X163889602Y-26000000D01*
X163890692Y-25000000D02*
X163890692Y-24000000D01*
X163904907Y-33625000D02*
X163904907Y-34375000D01*
X163983992Y-55000000D02*
X163983992Y-56000000D01*
X163984003Y-43000000D02*
X163984003Y-42000000D01*
X164007990Y-15000000D02*
X164007990Y-16000000D01*
X164089809Y-33625000D02*
X164089809Y-34375000D01*
X164099800Y-25000000D02*
X164099800Y-26000000D01*
X164100890Y-25000000D02*
X164100890Y-24000000D01*
X164199991Y-65000000D02*
X164199991Y-63500000D01*
X164218889Y-55000000D02*
X164218889Y-55750000D01*
X164218900Y-43000000D02*
X164218900Y-42250000D01*
D11*
X164275806Y-33625000D02*
X164275806Y-34375000D01*
D10*
X164307403Y-25000000D02*
X164307403Y-28000000D01*
X164308493Y-25000000D02*
X164308493Y-22000000D01*
X164452192Y-55000000D02*
X164452192Y-55750000D01*
X164452203Y-43000000D02*
X164452203Y-42250000D01*
X164462806Y-33625000D02*
X164462806Y-34375000D01*
X164497091Y-15000000D02*
X164497091Y-16000000D01*
X164512401Y-25000000D02*
X164512401Y-26000000D01*
X164513491Y-25000000D02*
X164513491Y-24000000D01*
D11*
X164650806Y-33250000D02*
X164650806Y-34750000D01*
D10*
X164683790Y-55000000D02*
X164683790Y-55750000D01*
X164683801Y-43000000D02*
X164683801Y-42250000D01*
X164714901Y-25000000D02*
X164714901Y-26000000D01*
X164715991Y-25000000D02*
X164715991Y-24000000D01*
X164840008Y-33625000D02*
X164840008Y-34375000D01*
X164913790Y-55000000D02*
X164913790Y-55750000D01*
X164913801Y-43000000D02*
X164913801Y-42250000D01*
X164915001Y-25000000D02*
X164915001Y-26000000D01*
X164916091Y-25000000D02*
X164916091Y-24000000D01*
D11*
X164959989Y-65000000D02*
X164959989Y-64000000D01*
D10*
X164965391Y-15000000D02*
X164965391Y-16000000D01*
D11*
X165030208Y-33625000D02*
X165030208Y-34375000D01*
D10*
X165112602Y-25000000D02*
X165112602Y-26000000D01*
X165113692Y-25000000D02*
X165113692Y-24000000D01*
X165142191Y-55000000D02*
X165142191Y-56000000D01*
X165142202Y-43000000D02*
X165142202Y-42000000D01*
D11*
X165221607Y-33625000D02*
X165221607Y-34375000D01*
D10*
X165307903Y-25000000D02*
X165307903Y-26500000D01*
X165308993Y-25000000D02*
X165308993Y-23500000D01*
X165369089Y-55000000D02*
X165369089Y-55750000D01*
X165369100Y-43000000D02*
X165369100Y-42250000D01*
X165414009Y-33625000D02*
X165414009Y-34375000D01*
X165414492Y-15000000D02*
X165414492Y-16500000D01*
X165500900Y-25000000D02*
X165500900Y-26000000D01*
X165501990Y-25000000D02*
X165501990Y-24000000D01*
X165594389Y-55000000D02*
X165594389Y-55750000D01*
X165594400Y-43000000D02*
X165594400Y-42250000D01*
X165607609Y-33500000D02*
X165607609Y-34500000D01*
X165691700Y-25000000D02*
X165691700Y-26000000D01*
X165692790Y-25000000D02*
X165692790Y-24000000D01*
D11*
X165719992Y-65000000D02*
X165719992Y-64000000D01*
D10*
X165802307Y-33625000D02*
X165802307Y-34375000D01*
X165818190Y-55000000D02*
X165818190Y-55750000D01*
X165818201Y-43000000D02*
X165818201Y-42250000D01*
X165845991Y-15000000D02*
X165845991Y-16000000D01*
X165880302Y-25000000D02*
X165880302Y-26000000D01*
X165881392Y-25000000D02*
X165881392Y-24000000D01*
D11*
X165998207Y-33625000D02*
X165998207Y-34375000D01*
D10*
X166040392Y-55000000D02*
X166040392Y-55750000D01*
X166040403Y-43000000D02*
X166040403Y-42250000D01*
X166066803Y-25000000D02*
X166066803Y-26000000D01*
X166067893Y-25000000D02*
X166067893Y-24000000D01*
X166195308Y-33625000D02*
X166195308Y-34375000D01*
X166251201Y-25000000D02*
X166251201Y-28000000D01*
X166252291Y-25000000D02*
X166252291Y-22000000D01*
X166261190Y-15000000D02*
X166261190Y-16000000D01*
X166261190Y-55000000D02*
X166261190Y-58000000D01*
X166261201Y-43000000D02*
X166261201Y-40000000D01*
D11*
X166393509Y-33625000D02*
X166393509Y-34375000D01*
D10*
X166433601Y-25000000D02*
X166433601Y-26000000D01*
X166434691Y-25000000D02*
X166434691Y-24000000D01*
X166479990Y-65000000D02*
X166479990Y-64000000D01*
X166480490Y-55000000D02*
X166480490Y-55750000D01*
X166480501Y-43000000D02*
X166480501Y-42250000D01*
D11*
X166592907Y-33500000D02*
X166592907Y-34500000D01*
D10*
X166613903Y-25000000D02*
X166613903Y-26000000D01*
X166614993Y-25000000D02*
X166614993Y-24000000D01*
X166661291Y-15000000D02*
X166661291Y-16000000D01*
X166698389Y-55000000D02*
X166698389Y-55750000D01*
X166698400Y-43000000D02*
X166698400Y-42250000D01*
X166792400Y-25000000D02*
X166792400Y-26000000D01*
X166793490Y-25000000D02*
X166793490Y-24000000D01*
D11*
X166793606Y-33625000D02*
X166793606Y-34375000D01*
D10*
X166914789Y-55000000D02*
X166914789Y-55750000D01*
X166914800Y-43000000D02*
X166914800Y-42250000D01*
X166968902Y-25000000D02*
X166968902Y-26000000D01*
X166969992Y-25000000D02*
X166969992Y-24000000D01*
X166995506Y-33625000D02*
X166995506Y-34375000D01*
X167047392Y-15000000D02*
X167047392Y-16000000D01*
X167129892Y-55000000D02*
X167129892Y-55750000D01*
X167129903Y-43000000D02*
X167129903Y-42250000D01*
X167143501Y-25000000D02*
X167143501Y-26500000D01*
X167144591Y-25000000D02*
X167144591Y-23500000D01*
D11*
X167198608Y-33625000D02*
X167198608Y-34375000D01*
D10*
X167239992Y-65000000D02*
X167239992Y-64000000D01*
X167316303Y-25000000D02*
X167316303Y-26000000D01*
X167317393Y-25000000D02*
X167317393Y-24000000D01*
X167343489Y-55000000D02*
X167343489Y-56000000D01*
X167343500Y-43000000D02*
X167343500Y-42000000D01*
D11*
X167403007Y-33625000D02*
X167403007Y-34375000D01*
D10*
X167420389Y-15000000D02*
X167420389Y-18000000D01*
X167487301Y-25000000D02*
X167487301Y-26000000D01*
X167488391Y-25000000D02*
X167488391Y-24000000D01*
X167555689Y-55000000D02*
X167555689Y-55750000D01*
X167555700Y-43000000D02*
X167555700Y-42250000D01*
X167608608Y-33500000D02*
X167608608Y-34500000D01*
X167656601Y-25000000D02*
X167656601Y-26000000D01*
X167657691Y-25000000D02*
X167657691Y-24000000D01*
X167766691Y-55000000D02*
X167766691Y-55750000D01*
X167766702Y-43000000D02*
X167766702Y-42250000D01*
X167781191Y-15000000D02*
X167781191Y-16000000D01*
X167815506Y-33625000D02*
X167815506Y-34375000D01*
X167824100Y-25000000D02*
X167824100Y-26000000D01*
X167825190Y-25000000D02*
X167825190Y-24000000D01*
X167976190Y-55000000D02*
X167976190Y-55750000D01*
X167976201Y-43000000D02*
X167976201Y-42250000D01*
X167990001Y-25000000D02*
X167990001Y-28000000D01*
X167991091Y-25000000D02*
X167991091Y-22000000D01*
D11*
X167999990Y-65000000D02*
X167999990Y-62000000D01*
X168023807Y-33625000D02*
X168023807Y-34375000D01*
D10*
X168130491Y-15000000D02*
X168130491Y-16000000D01*
X168184492Y-55000000D02*
X168184492Y-55750000D01*
X168184503Y-43000000D02*
X168184503Y-42250000D01*
X168233307Y-33625000D02*
X168233307Y-34375000D01*
X168391390Y-55000000D02*
X168391390Y-56000000D01*
X168391401Y-43000000D02*
X168391401Y-42000000D01*
D11*
X168444309Y-33625000D02*
X168444309Y-34375000D01*
D10*
X168468992Y-15000000D02*
X168468992Y-16000000D01*
X168596990Y-55000000D02*
X168596990Y-55750000D01*
X168597001Y-43000000D02*
X168597001Y-42250000D01*
X168656509Y-33500000D02*
X168656509Y-34500000D01*
X168759989Y-65000000D02*
X168759989Y-64000000D01*
X168797491Y-15000000D02*
X168797491Y-16000000D01*
X168801390Y-55000000D02*
X168801390Y-55750000D01*
X168801401Y-43000000D02*
X168801401Y-42250000D01*
X168870105Y-33625000D02*
X168870105Y-34375000D01*
X169004492Y-55000000D02*
X169004492Y-55750000D01*
X169004503Y-43000000D02*
X169004503Y-42250000D01*
D11*
X169085209Y-33625000D02*
X169085209Y-34375000D01*
D10*
X169116392Y-15000000D02*
X169116392Y-16500000D01*
X169206392Y-55000000D02*
X169206392Y-55750000D01*
X169206403Y-43000000D02*
X169206403Y-42250000D01*
X169301609Y-33625000D02*
X169301609Y-34375000D01*
X169407091Y-55000000D02*
X169407091Y-56000000D01*
X169407102Y-43000000D02*
X169407102Y-42000000D01*
X169426290Y-15000000D02*
X169426290Y-16000000D01*
D11*
X169519508Y-33625000D02*
X169519508Y-34375000D01*
X169519991Y-65000000D02*
X169519991Y-64000000D01*
D10*
X169562900Y-25000000D02*
X169562900Y-26000000D01*
X169563990Y-25000000D02*
X169563990Y-24000000D01*
X169606489Y-55000000D02*
X169606489Y-55750000D01*
X169606500Y-43000000D02*
X169606500Y-42250000D01*
X169727789Y-15000000D02*
X169727789Y-16000000D01*
D11*
X169738807Y-32500001D02*
X169738807Y-35500000D01*
D10*
X169804689Y-55000000D02*
X169804689Y-55750000D01*
X169804700Y-43000000D02*
X169804700Y-42250000D01*
D11*
X169959606Y-33625000D02*
X169959606Y-34375000D01*
D10*
X170001791Y-55000000D02*
X170001791Y-55750000D01*
X170001802Y-43000000D02*
X170001802Y-42250000D01*
X170021189Y-15000000D02*
X170021189Y-16000000D01*
X170181808Y-33625000D02*
X170181808Y-34375000D01*
X170197691Y-55000000D02*
X170197691Y-55750000D01*
X170197702Y-43000000D02*
X170197702Y-42250000D01*
X170279989Y-65000000D02*
X170279989Y-64000000D01*
X170306990Y-15000000D02*
X170306990Y-16000000D01*
X170392389Y-55000000D02*
X170392389Y-56000000D01*
X170392400Y-43000000D02*
X170392400Y-42000000D01*
D11*
X170405609Y-33625000D02*
X170405609Y-34375000D01*
D10*
X170585489Y-15000000D02*
X170585489Y-18000000D01*
X170585989Y-55000000D02*
X170585989Y-55750000D01*
X170586000Y-43000000D02*
X170586000Y-42250000D01*
X170630909Y-33625000D02*
X170630909Y-34375000D01*
X170778391Y-55000000D02*
X170778391Y-55750000D01*
X170778402Y-43000000D02*
X170778402Y-42250000D01*
X170857191Y-15000000D02*
X170857191Y-16000000D01*
X170857807Y-33500000D02*
X170857807Y-34500000D01*
X170969789Y-55000000D02*
X170969789Y-55750000D01*
X170969800Y-43000000D02*
X170969800Y-42250000D01*
X170998901Y-25000000D02*
X170998901Y-26000000D01*
X170999991Y-25000000D02*
X170999991Y-24000000D01*
X171039991Y-65000000D02*
X171039991Y-64000000D01*
D11*
X171086208Y-33625000D02*
X171086208Y-34375000D01*
D10*
X171122290Y-15000000D02*
X171122290Y-16000000D01*
X171159990Y-55000000D02*
X171159990Y-55750000D01*
X171160001Y-43000000D02*
X171160001Y-42250000D01*
X171316208Y-33625000D02*
X171316208Y-34375000D01*
X171349192Y-55000000D02*
X171349192Y-56500000D01*
X171349203Y-43000000D02*
X171349203Y-41500000D01*
X171381189Y-15000000D02*
X171381189Y-16000000D01*
X171537191Y-55000000D02*
X171537191Y-55750000D01*
X171537202Y-43000000D02*
X171537202Y-42250000D01*
D11*
X171547806Y-33625000D02*
X171547806Y-34375000D01*
D10*
X171634092Y-15000000D02*
X171634092Y-16000000D01*
X171724192Y-55000000D02*
X171724192Y-55750000D01*
X171724203Y-43000000D02*
X171724203Y-42250000D01*
D11*
X171781109Y-33625000D02*
X171781109Y-34375000D01*
D10*
X171799990Y-65000000D02*
X171799990Y-63500000D01*
X171881391Y-15000000D02*
X171881391Y-16500000D01*
X171910189Y-55000000D02*
X171910189Y-55750000D01*
X171910200Y-43000000D02*
X171910200Y-42250000D01*
X172016006Y-33500000D02*
X172016006Y-34500000D01*
X172095091Y-55000000D02*
X172095091Y-55750000D01*
X172095102Y-43000000D02*
X172095102Y-42250000D01*
X172123190Y-15000000D02*
X172123190Y-16000000D01*
X172252609Y-33625000D02*
X172252609Y-34375000D01*
X172278990Y-55000000D02*
X172278990Y-56000000D01*
X172279001Y-43000000D02*
X172279001Y-42000000D01*
X172319801Y-25000000D02*
X172319801Y-26000000D01*
X172320891Y-25000000D02*
X172320891Y-24000000D01*
X172359789Y-15000000D02*
X172359789Y-16000000D01*
X172461889Y-55000000D02*
X172461889Y-55750000D01*
X172461900Y-43000000D02*
X172461900Y-42250000D01*
X172490906Y-33625000D02*
X172490906Y-34375000D01*
X172559992Y-65000000D02*
X172559992Y-64000000D01*
X172591391Y-15000000D02*
X172591391Y-16000000D01*
X172643690Y-55000000D02*
X172643690Y-55750000D01*
X172643701Y-43000000D02*
X172643701Y-42250000D01*
X172731006Y-33625000D02*
X172731006Y-34375000D01*
X172818289Y-15000000D02*
X172818289Y-16000000D01*
X172824591Y-55000000D02*
X172824591Y-55750000D01*
X172824602Y-43000000D02*
X172824602Y-42250000D01*
X172972809Y-33625000D02*
X172972809Y-34375000D01*
X173004389Y-55000000D02*
X173004389Y-55750000D01*
X173004400Y-43000000D02*
X173004400Y-42250000D01*
X173040590Y-15000000D02*
X173040590Y-18000000D01*
X173183290Y-55000000D02*
X173183290Y-56000000D01*
X173183301Y-43000000D02*
X173183301Y-42000000D01*
D11*
X173216408Y-33500000D02*
X173216408Y-34500000D01*
D10*
X173258390Y-15000000D02*
X173258390Y-16000000D01*
X173319990Y-65000000D02*
X173319990Y-64000000D01*
X173361292Y-55000000D02*
X173361292Y-55750000D01*
X173361303Y-43000000D02*
X173361303Y-42250000D01*
X173461807Y-33625000D02*
X173461807Y-34375000D01*
X173472090Y-15000000D02*
X173472090Y-16000000D01*
X173538191Y-55000000D02*
X173538191Y-55750000D01*
X173538202Y-43000000D02*
X173538202Y-42250000D01*
X173542900Y-25000000D02*
X173542900Y-26000000D01*
X173543990Y-25000000D02*
X173543990Y-24000000D01*
X173681692Y-15000000D02*
X173681692Y-16000000D01*
D11*
X173709007Y-33625000D02*
X173709007Y-34375000D01*
D10*
X173714289Y-55000000D02*
X173714289Y-55750000D01*
X173714300Y-43000000D02*
X173714300Y-42250000D01*
X173887289Y-15000000D02*
X173887289Y-16000000D01*
X173889391Y-55000000D02*
X173889391Y-55750000D01*
X173889402Y-43000000D02*
X173889402Y-42250000D01*
D11*
X173958107Y-33625000D02*
X173958107Y-34375000D01*
D10*
X174063589Y-55000000D02*
X174063589Y-56000000D01*
X174063600Y-43000000D02*
X174063600Y-42000000D01*
X174079992Y-65000000D02*
X174079992Y-64000000D01*
X174089189Y-15000000D02*
X174089189Y-16500000D01*
X174209106Y-33625000D02*
X174209106Y-34375000D01*
X174236792Y-55000000D02*
X174236792Y-55750000D01*
X174236803Y-43000000D02*
X174236803Y-42250000D01*
X174287390Y-15000000D02*
X174287390Y-16000000D01*
X174409189Y-55000000D02*
X174409189Y-55750000D01*
X174409200Y-43000000D02*
X174409200Y-42250000D01*
D11*
X174462009Y-33500000D02*
X174462009Y-34500000D01*
D10*
X174482191Y-15000000D02*
X174482191Y-16000000D01*
X174580591Y-55000000D02*
X174580591Y-55750000D01*
X174580602Y-43000000D02*
X174580602Y-42250000D01*
X174673490Y-15000000D02*
X174673490Y-16000000D01*
X174681503Y-25000000D02*
X174681503Y-26500000D01*
X174682593Y-25000000D02*
X174682593Y-23500000D01*
D11*
X174716907Y-33625000D02*
X174716907Y-34375000D01*
D10*
X174751192Y-55000000D02*
X174751192Y-55750000D01*
X174751203Y-43000000D02*
X174751203Y-42250000D01*
D11*
X174839991Y-65000000D02*
X174839991Y-64000000D01*
D10*
X174861589Y-15000000D02*
X174861589Y-16000000D01*
X174920889Y-55000000D02*
X174920889Y-56000000D01*
X174920900Y-43000000D02*
X174920900Y-42000000D01*
X174973808Y-33625000D02*
X174973808Y-34375000D01*
X175046492Y-15000000D02*
X175046492Y-18000000D01*
X175089689Y-55000000D02*
X175089689Y-55750000D01*
X175089700Y-43000000D02*
X175089700Y-42250000D01*
X175228392Y-15000000D02*
X175228392Y-16000000D01*
D11*
X175232609Y-33625000D02*
X175232609Y-34375000D01*
D10*
X175257692Y-55000000D02*
X175257692Y-55750000D01*
X175257703Y-43000000D02*
X175257703Y-42250000D01*
X175407289Y-15000000D02*
X175407289Y-16000000D01*
X175424791Y-55000000D02*
X175424791Y-55750000D01*
X175424802Y-43000000D02*
X175424802Y-42250000D01*
D11*
X175493606Y-33625000D02*
X175493606Y-34375000D01*
D10*
X175583292Y-15000000D02*
X175583292Y-16000000D01*
X175591089Y-55000000D02*
X175591089Y-55750000D01*
X175591100Y-43000000D02*
X175591100Y-42250000D01*
D11*
X175599989Y-65000000D02*
X175599989Y-62000000D01*
D10*
X175746601Y-25000000D02*
X175746601Y-26000000D01*
X175747691Y-25000000D02*
X175747691Y-24000000D01*
X175756590Y-15000000D02*
X175756590Y-16000000D01*
X175756590Y-55000000D02*
X175756590Y-58000000D01*
X175756601Y-43000000D02*
X175756601Y-40000000D01*
X175756607Y-33250000D02*
X175756607Y-34750000D01*
X175927092Y-15000000D02*
X175927092Y-16500000D01*
D11*
X176021709Y-33625000D02*
X176021709Y-34375000D01*
D10*
X176095091Y-15000000D02*
X176095091Y-16000000D01*
X176260591Y-15000000D02*
X176260591Y-16000000D01*
D11*
X176288906Y-33625000D02*
X176288906Y-34375000D01*
D10*
X176359991Y-65000000D02*
X176359991Y-64000000D01*
X176423590Y-15000000D02*
X176423590Y-16000000D01*
D11*
X176558407Y-33625000D02*
X176558407Y-34375000D01*
D10*
X176571592Y-55000000D02*
X176571592Y-56000000D01*
X176571603Y-43000000D02*
X176571603Y-42000000D01*
X176584192Y-15000000D02*
X176584192Y-16000000D01*
X176742491Y-15000000D02*
X176742491Y-18000000D01*
X176747101Y-25000000D02*
X176747101Y-26000000D01*
X176748191Y-25000000D02*
X176748191Y-24000000D01*
X176830009Y-33625000D02*
X176830009Y-34375000D01*
X176898489Y-15000000D02*
X176898489Y-16000000D01*
X177052389Y-15000000D02*
X177052389Y-16000000D01*
X177103908Y-33500000D02*
X177103908Y-34500000D01*
X177119989Y-65000000D02*
X177119989Y-64000000D01*
X177204191Y-15000000D02*
X177204191Y-16000000D01*
X177353891Y-15000000D02*
X177353891Y-16000000D01*
X177366892Y-55000000D02*
X177366892Y-56000000D01*
X177366903Y-43000000D02*
X177366903Y-42000000D01*
D11*
X177380207Y-33625000D02*
X177380207Y-34375000D01*
D10*
X177501589Y-15000000D02*
X177501589Y-16500000D01*
X177647291Y-15000000D02*
X177647291Y-16000000D01*
D11*
X177658706Y-33625000D02*
X177658706Y-34375000D01*
D10*
X177690403Y-25000000D02*
X177690403Y-26000000D01*
X177691493Y-25000000D02*
X177691493Y-24000000D01*
X177791090Y-15000000D02*
X177791090Y-16000000D01*
D11*
X177879991Y-65000000D02*
X177879991Y-64000000D01*
D10*
X177933092Y-15000000D02*
X177933092Y-16000000D01*
X177939609Y-33625000D02*
X177939609Y-34375000D01*
X178073191Y-15000000D02*
X178073191Y-16000000D01*
X178143591Y-55000000D02*
X178143591Y-56000000D01*
X178143602Y-43000000D02*
X178143602Y-42000000D01*
X178211592Y-15000000D02*
X178211592Y-18000000D01*
D11*
X178222908Y-33625000D02*
X178222908Y-34375000D01*
D10*
X178348291Y-15000000D02*
X178348291Y-16000000D01*
X178483290Y-15000000D02*
X178483290Y-16000000D01*
X178508709Y-33500000D02*
X178508709Y-34500000D01*
X178582603Y-25000000D02*
X178582603Y-26000000D01*
X178583693Y-25000000D02*
X178583693Y-24000000D01*
X178616590Y-15000000D02*
X178616590Y-16000000D01*
D11*
X178639990Y-65000000D02*
X178639990Y-64000000D01*
D10*
X178748392Y-15000000D02*
X178748392Y-16000000D01*
D11*
X178797008Y-33625000D02*
X178797008Y-34375000D01*
D10*
X178878591Y-15000000D02*
X178878591Y-16500000D01*
X178902391Y-55000000D02*
X178902391Y-56000000D01*
X178902402Y-43000000D02*
X178902402Y-42000000D01*
X179007292Y-15000000D02*
X179007292Y-16000000D01*
X179087806Y-33625000D02*
X179087806Y-34375000D01*
X179134489Y-15000000D02*
X179134489Y-16000000D01*
X179260191Y-15000000D02*
X179260191Y-16000000D01*
X179381206Y-33625000D02*
X179381206Y-34375000D01*
X179384489Y-15000000D02*
X179384489Y-16000000D01*
X179399992Y-65000000D02*
X179399992Y-63500000D01*
X179429100Y-25000000D02*
X179429100Y-28000000D01*
X179430190Y-25000000D02*
X179430190Y-22000000D01*
X179507490Y-15000000D02*
X179507490Y-18000000D01*
X179628992Y-15000000D02*
X179628992Y-16000000D01*
X179644190Y-55000000D02*
X179644190Y-56500000D01*
X179644201Y-43000000D02*
X179644201Y-41500000D01*
D11*
X179677208Y-33625000D02*
X179677208Y-34375000D01*
D10*
X179749288Y-15000000D02*
X179749288Y-16000000D01*
X179868189Y-15000000D02*
X179868189Y-16000000D01*
D11*
X179975906Y-33500000D02*
X179975906Y-34500000D01*
D10*
X179985891Y-15000000D02*
X179985891Y-16000000D01*
X180102289Y-15000000D02*
X180102289Y-16500000D01*
X180159990Y-65000000D02*
X180159990Y-64000000D01*
X180217489Y-15000000D02*
X180217489Y-16000000D01*
X180234302Y-25000000D02*
X180234302Y-26000000D01*
X180235392Y-25000000D02*
X180235392Y-24000000D01*
X180277309Y-33625000D02*
X180277309Y-34375000D01*
X180331591Y-15000000D02*
X180331591Y-16000000D01*
X180369589Y-55000000D02*
X180369589Y-56000000D01*
X180369600Y-43000000D02*
X180369600Y-42000000D01*
X180444391Y-15000000D02*
X180444391Y-16000000D01*
X180556089Y-15000000D02*
X180556089Y-16000000D01*
D11*
X180581508Y-33625000D02*
X180581508Y-34375000D01*
D10*
X180666689Y-15000000D02*
X180666689Y-18000000D01*
D11*
X180888607Y-33625000D02*
X180888607Y-34375000D01*
X180919989Y-65000000D02*
X180919989Y-64000000D01*
D10*
X181002102Y-25000000D02*
X181002102Y-26000000D01*
X181003192Y-25000000D02*
X181003192Y-24000000D01*
X181079389Y-55000000D02*
X181079389Y-56000000D01*
X181079400Y-43000000D02*
X181079400Y-42000000D01*
D11*
X181198509Y-33625000D02*
X181198509Y-34375000D01*
D10*
X181511307Y-33500000D02*
X181511307Y-34500000D01*
D11*
X181679991Y-65000000D02*
X181679991Y-64000000D01*
D10*
X181715292Y-15000000D02*
X181715292Y-16000000D01*
X181735702Y-25000000D02*
X181735702Y-26000000D01*
X181736792Y-25000000D02*
X181736792Y-24000000D01*
X181774290Y-55000000D02*
X181774290Y-56000000D01*
X181774301Y-43000000D02*
X181774301Y-42000000D01*
D11*
X181827209Y-33625000D02*
X181827209Y-34375000D01*
X182146106Y-33625000D02*
X182146106Y-34375000D01*
D10*
X182438003Y-25000000D02*
X182438003Y-26000000D01*
X182439093Y-25000000D02*
X182439093Y-24000000D01*
X182439989Y-65000000D02*
X182439989Y-64000000D01*
X182454889Y-55000000D02*
X182454889Y-56000000D01*
X182454900Y-43000000D02*
X182454900Y-42000000D01*
X182468109Y-33625000D02*
X182468109Y-34375000D01*
X182672590Y-15000000D02*
X182672590Y-16000000D01*
D11*
X182793308Y-33625000D02*
X182793308Y-34375000D01*
D10*
X183111702Y-25000000D02*
X183111702Y-26500000D01*
X183112792Y-25000000D02*
X183112792Y-23500000D01*
X183121691Y-55000000D02*
X183121691Y-58000000D01*
X183121702Y-43000000D02*
X183121702Y-40000000D01*
X183121708Y-32500001D02*
X183121708Y-35500000D01*
D11*
X183199991Y-65000000D02*
X183199991Y-62000000D01*
X183287208Y-33625000D02*
X183287208Y-34375000D01*
D10*
X183453403Y-33625000D02*
X183453403Y-34375000D01*
X183553186Y-15000000D02*
X183553186Y-16000000D01*
X183620605Y-33625000D02*
X183620605Y-34375000D01*
X183758999Y-25000000D02*
X183758999Y-26000000D01*
X183760089Y-25000000D02*
X183760089Y-24000000D01*
X183775286Y-55000000D02*
X183775286Y-56000000D01*
X183775297Y-43000000D02*
X183775297Y-42000000D01*
D11*
X183788505Y-33625000D02*
X183788505Y-34375000D01*
X183957405Y-33625000D02*
X183957405Y-34375000D01*
X183959986Y-65000000D02*
X183959986Y-64000000D01*
D10*
X184127105Y-33625000D02*
X184127105Y-34375000D01*
D11*
X184297603Y-33625000D02*
X184297603Y-34375000D01*
D10*
X184368585Y-15000000D02*
X184368585Y-16000000D01*
X184381797Y-25000000D02*
X184381797Y-26000000D01*
X184382887Y-25000000D02*
X184382887Y-24000000D01*
X184416288Y-55000000D02*
X184416288Y-56000000D01*
X184416299Y-43000000D02*
X184416299Y-42000000D01*
X184469105Y-33625000D02*
X184469105Y-34375000D01*
X184641502Y-33625000D02*
X184641502Y-34375000D01*
D11*
X184719988Y-65000000D02*
X184719988Y-64000000D01*
X184814705Y-33500000D02*
X184814705Y-34500000D01*
D10*
X184981998Y-25000000D02*
X184981998Y-26000000D01*
X184983088Y-25000000D02*
X184983088Y-24000000D01*
X184988903Y-33625000D02*
X184988903Y-34375000D01*
X185044985Y-55000000D02*
X185044985Y-56000000D01*
X185044996Y-43000000D02*
X185044996Y-42000000D01*
X185127588Y-15000000D02*
X185127588Y-16500000D01*
X185164005Y-33625000D02*
X185164005Y-34375000D01*
X185340004Y-33625000D02*
X185340004Y-34375000D01*
D11*
X185479986Y-65000000D02*
X185479986Y-64000000D01*
X185517002Y-33625000D02*
X185517002Y-34375000D01*
D10*
X185561096Y-25000000D02*
X185561096Y-26000000D01*
X185562186Y-25000000D02*
X185562186Y-24000000D01*
X185661886Y-55000000D02*
X185661886Y-56000000D01*
X185661897Y-43000000D02*
X185661897Y-42000000D01*
D11*
X185694904Y-33625000D02*
X185694904Y-34375000D01*
D10*
X185837686Y-15000000D02*
X185837686Y-16000000D01*
X185873802Y-33625000D02*
X185873802Y-34375000D01*
X186053703Y-33625000D02*
X186053703Y-34375000D01*
X186120598Y-25000000D02*
X186120598Y-28000000D01*
X186121688Y-25000000D02*
X186121688Y-22000000D01*
X186234604Y-33625000D02*
X186234604Y-34375000D01*
X186239988Y-65000000D02*
X186239988Y-64000000D01*
X186267588Y-55000000D02*
X186267588Y-56500000D01*
X186267599Y-43000000D02*
X186267599Y-41500000D01*
D11*
X186416404Y-33625000D02*
X186416404Y-34375000D01*
D10*
X186504686Y-15000000D02*
X186504686Y-16000000D01*
D11*
X186599304Y-33500000D02*
X186599304Y-34500000D01*
D10*
X186661697Y-25000000D02*
X186661697Y-26000000D01*
X186662787Y-25000000D02*
X186662787Y-24000000D01*
X186783203Y-33625000D02*
X186783203Y-34375000D01*
X186862287Y-55000000D02*
X186862287Y-56000000D01*
X186862298Y-43000000D02*
X186862298Y-42000000D01*
D11*
X186968105Y-33625000D02*
X186968105Y-34375000D01*
X186999987Y-65000000D02*
X186999987Y-63500000D01*
D10*
X187133585Y-15000000D02*
X187133585Y-16000000D01*
X187154003Y-33625000D02*
X187154003Y-34375000D01*
X187185699Y-25000000D02*
X187185699Y-26000000D01*
X187186789Y-25000000D02*
X187186789Y-24000000D01*
X187341003Y-33625000D02*
X187341003Y-34375000D01*
X187446485Y-55000000D02*
X187446485Y-56000000D01*
X187446496Y-43000000D02*
X187446496Y-42000000D01*
D11*
X187529102Y-33625000D02*
X187529102Y-34375000D01*
D10*
X187693496Y-25000000D02*
X187693496Y-26000000D01*
X187694586Y-25000000D02*
X187694586Y-24000000D01*
D11*
X187718303Y-33625000D02*
X187718303Y-34375000D01*
D10*
X187728388Y-15000000D02*
X187728388Y-16000000D01*
X187759985Y-65000000D02*
X187759985Y-64000000D01*
D11*
X187908504Y-33625000D02*
X187908504Y-34375000D01*
D10*
X188020487Y-55000000D02*
X188020487Y-56000000D01*
X188020498Y-43000000D02*
X188020498Y-42000000D01*
D11*
X188099804Y-33625000D02*
X188099804Y-34375000D01*
D10*
X188186199Y-25000000D02*
X188186199Y-26000000D01*
X188187289Y-25000000D02*
X188187289Y-24000000D01*
X188292305Y-33625000D02*
X188292305Y-34375000D01*
X188292787Y-15000000D02*
X188292787Y-18000000D01*
D11*
X188485904Y-33500000D02*
X188485904Y-34500000D01*
D10*
X188519987Y-65000000D02*
X188519987Y-64000000D01*
X188584787Y-55000000D02*
X188584787Y-56000000D01*
X188584798Y-43000000D02*
X188584798Y-42000000D01*
X188664596Y-25000000D02*
X188664596Y-26500000D01*
X188665686Y-25000000D02*
X188665686Y-23500000D01*
D11*
X188680603Y-33625000D02*
X188680603Y-34375000D01*
D10*
X188829588Y-15000000D02*
X188829588Y-16000000D01*
D11*
X188876503Y-33625000D02*
X188876503Y-34375000D01*
X189073505Y-33625000D02*
X189073505Y-34375000D01*
D10*
X189129497Y-25000000D02*
X189129497Y-26000000D01*
X189130587Y-25000000D02*
X189130587Y-24000000D01*
X189139486Y-55000000D02*
X189139486Y-58000000D01*
X189139497Y-43000000D02*
X189139497Y-40000000D01*
D11*
X189271805Y-33625000D02*
X189271805Y-34375000D01*
D10*
X189279985Y-65000000D02*
X189279985Y-64000000D01*
X189341387Y-15000000D02*
X189341387Y-16000000D01*
X189471203Y-33625000D02*
X189471203Y-34375000D01*
X189581699Y-25000000D02*
X189581699Y-26000000D01*
X189582789Y-25000000D02*
X189582789Y-24000000D01*
D11*
X189671905Y-33625000D02*
X189671905Y-34375000D01*
D10*
X189685087Y-55000000D02*
X189685087Y-56000000D01*
X189685098Y-43000000D02*
X189685098Y-42000000D01*
X189830385Y-15000000D02*
X189830385Y-16000000D01*
X189873703Y-33625000D02*
X189873703Y-34375000D01*
X190021797Y-25000000D02*
X190021797Y-26000000D01*
X190022887Y-25000000D02*
X190022887Y-24000000D01*
X190039987Y-65000000D02*
X190039987Y-64000000D01*
D11*
X190076904Y-33625000D02*
X190076904Y-34375000D01*
D10*
X190221788Y-55000000D02*
X190221788Y-56000000D01*
X190221799Y-43000000D02*
X190221799Y-42000000D01*
X190281204Y-33625000D02*
X190281204Y-34375000D01*
X190298685Y-15000000D02*
X190298685Y-16000000D01*
X190450496Y-25000000D02*
X190450496Y-26000000D01*
X190451586Y-25000000D02*
X190451586Y-24000000D01*
D11*
X190486904Y-33500000D02*
X190486904Y-34500000D01*
D10*
X190693805Y-33625000D02*
X190693805Y-34375000D01*
X190747785Y-15000000D02*
X190747785Y-16500000D01*
X190749887Y-55000000D02*
X190749887Y-56000000D01*
X190749898Y-43000000D02*
X190749898Y-42000000D01*
X190799986Y-65000000D02*
X190799986Y-62000000D01*
X190868297Y-25000000D02*
X190868297Y-28000000D01*
X190869387Y-25000000D02*
X190869387Y-22000000D01*
X190902103Y-33625000D02*
X190902103Y-34375000D01*
X191111603Y-33625000D02*
X191111603Y-34375000D01*
X191179285Y-15000000D02*
X191179285Y-16000000D01*
X191269686Y-55000000D02*
X191269686Y-56000000D01*
X191269697Y-43000000D02*
X191269697Y-42000000D01*
X191275798Y-25000000D02*
X191275798Y-26000000D01*
X191276888Y-25000000D02*
X191276888Y-24000000D01*
D11*
X191322502Y-33625000D02*
X191322502Y-34375000D01*
D10*
X191534805Y-33625000D02*
X191534805Y-34375000D01*
X191559988Y-65000000D02*
X191559988Y-64000000D01*
X191594488Y-15000000D02*
X191594488Y-16000000D01*
X191673496Y-25000000D02*
X191673496Y-26000000D01*
X191674586Y-25000000D02*
X191674586Y-24000000D01*
D11*
X191748405Y-33625000D02*
X191748405Y-34375000D01*
D10*
X191781385Y-55000000D02*
X191781385Y-56500000D01*
X191781396Y-43000000D02*
X191781396Y-41500000D01*
D11*
X191963505Y-33625000D02*
X191963505Y-34375000D01*
D10*
X191994688Y-15000000D02*
X191994688Y-16000000D01*
X192061798Y-25000000D02*
X192061798Y-26000000D01*
X192062888Y-25000000D02*
X192062888Y-24000000D01*
X192179905Y-33625000D02*
X192179905Y-34375000D01*
X192285288Y-55000000D02*
X192285288Y-56000000D01*
X192285299Y-43000000D02*
X192285299Y-42000000D01*
D11*
X192319986Y-65000000D02*
X192319986Y-64000000D01*
D10*
X192380686Y-15000000D02*
X192380686Y-16000000D01*
D11*
X192397804Y-33625000D02*
X192397804Y-34375000D01*
D10*
X192441196Y-25000000D02*
X192441196Y-26000000D01*
X192442286Y-25000000D02*
X192442286Y-24000000D01*
X192617103Y-33250000D02*
X192617103Y-34750000D01*
X192753687Y-15000000D02*
X192753687Y-18000000D01*
X192781687Y-55000000D02*
X192781687Y-56000000D01*
X192781698Y-43000000D02*
X192781698Y-42000000D01*
X192812099Y-25000000D02*
X192812099Y-26500000D01*
X192813189Y-25000000D02*
X192813189Y-23500000D01*
X192837803Y-33625000D02*
X192837803Y-34375000D01*
D11*
X193060104Y-33625000D02*
X193060104Y-34375000D01*
D10*
X193079988Y-65000000D02*
X193079988Y-64000000D01*
X193114485Y-15000000D02*
X193114485Y-16000000D01*
X193174797Y-25000000D02*
X193174797Y-26000000D01*
X193175887Y-25000000D02*
X193175887Y-24000000D01*
X193270685Y-55000000D02*
X193270685Y-56000000D01*
X193270696Y-43000000D02*
X193270696Y-42000000D01*
X193283905Y-33625000D02*
X193283905Y-34375000D01*
X193463785Y-15000000D02*
X193463785Y-16000000D01*
D11*
X193509205Y-33625000D02*
X193509205Y-34375000D01*
D10*
X193529697Y-25000000D02*
X193529697Y-26000000D01*
X193530787Y-25000000D02*
X193530787Y-24000000D01*
D11*
X193736004Y-33625000D02*
X193736004Y-34375000D01*
D10*
X193752485Y-55000000D02*
X193752485Y-56000000D01*
X193752496Y-43000000D02*
X193752496Y-42000000D01*
X193802385Y-15000000D02*
X193802385Y-16000000D01*
X193839987Y-65000000D02*
X193839987Y-64000000D01*
X193877197Y-25000000D02*
X193877197Y-26000000D01*
X193878287Y-25000000D02*
X193878287Y-24000000D01*
D11*
X193964504Y-33625000D02*
X193964504Y-34375000D01*
D10*
X194130781Y-15000000D02*
X194130781Y-16000000D01*
X194194504Y-33625000D02*
X194194504Y-34375000D01*
X194217495Y-25000000D02*
X194217495Y-26000000D01*
X194218585Y-25000000D02*
X194218585Y-24000000D01*
X194227484Y-55000000D02*
X194227484Y-58000000D01*
X194227495Y-43000000D02*
X194227495Y-40000000D01*
X194426101Y-33625000D02*
X194426101Y-34375000D01*
X194449682Y-15000000D02*
X194449682Y-16500000D01*
X194550892Y-25000000D02*
X194550892Y-28000000D01*
X194551982Y-25000000D02*
X194551982Y-22000000D01*
D11*
X194599981Y-65000000D02*
X194599981Y-63500000D01*
D10*
X194659301Y-33625000D02*
X194659301Y-34375000D01*
X194695585Y-55000000D02*
X194695585Y-56000000D01*
X194695596Y-43000000D02*
X194695596Y-42000000D01*
X194759680Y-15000000D02*
X194759680Y-16000000D01*
X194877697Y-25000000D02*
X194877697Y-26000000D01*
X194878787Y-25000000D02*
X194878787Y-24000000D01*
D11*
X194894302Y-33500000D02*
X194894302Y-34500000D01*
D10*
X195061079Y-15000000D02*
X195061079Y-16000000D01*
D11*
X195130897Y-33625000D02*
X195130897Y-34375000D01*
D10*
X195157286Y-55000000D02*
X195157286Y-56000000D01*
X195157297Y-43000000D02*
X195157297Y-42000000D01*
X195198093Y-25000000D02*
X195198093Y-26000000D01*
X195199183Y-25000000D02*
X195199183Y-24000000D01*
X195354483Y-15000000D02*
X195354483Y-16000000D01*
D11*
X195359983Y-65000000D02*
X195359983Y-64000000D01*
X195369201Y-33625000D02*
X195369201Y-34375000D01*
D10*
X195512493Y-25000000D02*
X195512493Y-26000000D01*
X195513583Y-25000000D02*
X195513583Y-24000000D01*
D11*
X195609199Y-33625000D02*
X195609199Y-34375000D01*
D10*
X195612486Y-55000000D02*
X195612486Y-56000000D01*
X195612497Y-43000000D02*
X195612497Y-42000000D01*
X195640280Y-15000000D02*
X195640280Y-16000000D01*
X195820995Y-25000000D02*
X195820995Y-26000000D01*
X195822085Y-25000000D02*
X195822085Y-24000000D01*
X195850998Y-33625000D02*
X195850998Y-34375000D01*
X195918882Y-15000000D02*
X195918882Y-18000000D01*
X196061582Y-55000000D02*
X196061582Y-56000000D01*
X196061593Y-43000000D02*
X196061593Y-42000000D01*
D11*
X196094597Y-33625000D02*
X196094597Y-34375000D01*
X196119985Y-65000000D02*
X196119985Y-64000000D01*
D10*
X196123790Y-25000000D02*
X196123790Y-26500000D01*
X196124880Y-25000000D02*
X196124880Y-23500000D01*
X196190481Y-15000000D02*
X196190481Y-16000000D01*
X196339996Y-33625000D02*
X196339996Y-34375000D01*
X196421093Y-25000000D02*
X196421093Y-26000000D01*
X196422183Y-25000000D02*
X196422183Y-24000000D01*
X196455580Y-15000000D02*
X196455580Y-16000000D01*
X196504682Y-55000000D02*
X196504682Y-56500000D01*
X196504693Y-43000000D02*
X196504693Y-41500000D01*
D11*
X196587303Y-33625000D02*
X196587303Y-34375000D01*
D10*
X196713192Y-25000000D02*
X196713192Y-26000000D01*
X196714282Y-25000000D02*
X196714282Y-24000000D01*
X196714483Y-15000000D02*
X196714483Y-16000000D01*
X196836403Y-33625000D02*
X196836403Y-34375000D01*
D11*
X196879980Y-65000000D02*
X196879980Y-64000000D01*
D10*
X196941786Y-55000000D02*
X196941786Y-56000000D01*
X196941797Y-43000000D02*
X196941797Y-42000000D01*
X196967482Y-15000000D02*
X196967482Y-16000000D01*
X197000293Y-25000000D02*
X197000293Y-26000000D01*
X197001383Y-25000000D02*
X197001383Y-24000000D01*
X197087402Y-33625000D02*
X197087402Y-34375000D01*
X197214682Y-15000000D02*
X197214682Y-16500000D01*
X197282390Y-25000000D02*
X197282390Y-26000000D01*
X197283480Y-25000000D02*
X197283480Y-24000000D01*
D11*
X197340301Y-33500000D02*
X197340301Y-34500000D01*
D10*
X197373281Y-55000000D02*
X197373281Y-56000000D01*
X197373292Y-43000000D02*
X197373292Y-42000000D01*
X197456480Y-15000000D02*
X197456480Y-16000000D01*
X197559696Y-25000000D02*
X197559696Y-28000000D01*
X197560786Y-25000000D02*
X197560786Y-22000000D01*
X197595199Y-33625000D02*
X197595199Y-34375000D01*
X197639982Y-65000000D02*
X197639982Y-64000000D01*
X197693083Y-15000000D02*
X197693083Y-16000000D01*
X197799185Y-55000000D02*
X197799185Y-56000000D01*
X197799196Y-43000000D02*
X197799196Y-42000000D01*
X197832493Y-25000000D02*
X197832493Y-26000000D01*
X197833583Y-25000000D02*
X197833583Y-24000000D01*
D11*
X197851997Y-33625000D02*
X197851997Y-34375000D01*
D10*
X197924780Y-15000000D02*
X197924780Y-16000000D01*
X198100895Y-25000000D02*
X198100895Y-26000000D01*
X198101985Y-25000000D02*
X198101985Y-24000000D01*
D11*
X198110901Y-33625000D02*
X198110901Y-34375000D01*
D10*
X198151586Y-15000000D02*
X198151586Y-16000000D01*
X198219686Y-55000000D02*
X198219686Y-56000000D01*
X198219697Y-43000000D02*
X198219697Y-42000000D01*
X198364895Y-25000000D02*
X198364895Y-26000000D01*
X198365985Y-25000000D02*
X198365985Y-24000000D01*
D11*
X198371803Y-33625000D02*
X198371803Y-34375000D01*
D10*
X198373884Y-15000000D02*
X198373884Y-18000000D01*
X198399984Y-65000000D02*
X198399984Y-62000000D01*
X198591780Y-15000000D02*
X198591780Y-16000000D01*
X198624798Y-25000000D02*
X198624798Y-26000000D01*
X198625888Y-25000000D02*
X198625888Y-24000000D01*
X198634787Y-55000000D02*
X198634787Y-58000000D01*
X198634798Y-43000000D02*
X198634798Y-40000000D01*
X198634804Y-33625000D02*
X198634804Y-34375000D01*
X198805380Y-15000000D02*
X198805380Y-16000000D01*
X198880695Y-25000000D02*
X198880695Y-26500000D01*
X198881785Y-25000000D02*
X198881785Y-23500000D01*
D11*
X198900001Y-33625000D02*
X198900001Y-34375000D01*
D10*
X199014982Y-15000000D02*
X199014982Y-16000000D01*
X199044882Y-55000000D02*
X199044882Y-56000000D01*
X199044893Y-43000000D02*
X199044893Y-42000000D01*
X199132694Y-25000000D02*
X199132694Y-26000000D01*
X199133784Y-25000000D02*
X199133784Y-24000000D01*
D11*
X199159986Y-65000000D02*
X199159986Y-64000000D01*
D10*
X199167198Y-33625000D02*
X199167198Y-34375000D01*
X199220579Y-15000000D02*
X199220579Y-16000000D01*
X199380794Y-25000000D02*
X199380794Y-26000000D01*
X199381884Y-25000000D02*
X199381884Y-24000000D01*
X199422483Y-15000000D02*
X199422483Y-16500000D01*
D11*
X199436699Y-33625000D02*
X199436699Y-34375000D01*
D10*
X199449881Y-55000000D02*
X199449881Y-56000000D01*
X199449892Y-43000000D02*
X199449892Y-42000000D01*
X199620779Y-15000000D02*
X199620779Y-16000000D01*
X199625293Y-25000000D02*
X199625293Y-26000000D01*
X199626383Y-25000000D02*
X199626383Y-24000000D01*
D11*
X199708297Y-33625000D02*
X199708297Y-34375000D01*
D10*
X199815481Y-15000000D02*
X199815481Y-16000000D01*
X199849882Y-55000000D02*
X199849882Y-56000000D01*
X199849893Y-43000000D02*
X199849893Y-42000000D01*
X199866291Y-25000000D02*
X199866291Y-26000000D01*
X199867381Y-25000000D02*
X199867381Y-24000000D01*
D11*
X199919981Y-65000000D02*
X199919981Y-64000000D01*
D10*
X199982200Y-33500000D02*
X199982200Y-34500000D01*
X200006781Y-15000000D02*
X200006781Y-16000000D01*
X200103695Y-25000000D02*
X200103695Y-28000000D01*
X200104785Y-25000000D02*
X200104785Y-22000000D01*
X200194883Y-15000000D02*
X200194883Y-16000000D01*
X200245184Y-55000000D02*
X200245184Y-56000000D01*
X200245195Y-43000000D02*
X200245195Y-42000000D01*
D11*
X200258400Y-33625000D02*
X200258400Y-34375000D01*
D10*
X200337795Y-25000000D02*
X200337795Y-26000000D01*
X200338885Y-25000000D02*
X200338885Y-24000000D01*
X200379782Y-15000000D02*
X200379782Y-18000000D01*
X200537002Y-33625000D02*
X200537002Y-34375000D01*
X200561682Y-15000000D02*
X200561682Y-16000000D01*
X200568592Y-25000000D02*
X200568592Y-26000000D01*
X200569682Y-25000000D02*
X200569682Y-24000000D01*
X200635786Y-55000000D02*
X200635786Y-56500000D01*
X200635797Y-43000000D02*
X200635797Y-41500000D01*
D11*
X200679983Y-65000000D02*
X200679983Y-64000000D01*
D10*
X200740583Y-15000000D02*
X200740583Y-16000000D01*
X200796291Y-25000000D02*
X200796291Y-26000000D01*
X200797381Y-25000000D02*
X200797381Y-24000000D01*
D11*
X200817901Y-33625000D02*
X200817901Y-34375000D01*
D10*
X200916586Y-15000000D02*
X200916586Y-16000000D01*
X201020794Y-25000000D02*
X201020794Y-26000000D01*
X201021879Y-55000000D02*
X201021879Y-56000000D01*
X201021884Y-25000000D02*
X201021884Y-24000000D01*
X201021890Y-43000000D02*
X201021890Y-42000000D01*
X201089880Y-15000000D02*
X201089880Y-16000000D01*
D11*
X201101196Y-33625000D02*
X201101196Y-34375000D01*
D10*
X201242290Y-25000000D02*
X201242290Y-26500000D01*
X201243380Y-25000000D02*
X201243380Y-23500000D01*
X201260481Y-15000000D02*
X201260481Y-16500000D01*
X201387001Y-33625000D02*
X201387001Y-34375000D01*
X201403486Y-55000000D02*
X201403486Y-56000000D01*
X201403497Y-43000000D02*
X201403497Y-42000000D01*
X201428381Y-15000000D02*
X201428381Y-16000000D01*
D11*
X201439985Y-65000000D02*
X201439985Y-64000000D01*
D10*
X201460895Y-25000000D02*
X201460895Y-26000000D01*
X201461985Y-25000000D02*
X201461985Y-24000000D01*
X201593885Y-15000000D02*
X201593885Y-16000000D01*
X201675201Y-33625000D02*
X201675201Y-34375000D01*
X201676593Y-25000000D02*
X201676593Y-26000000D01*
X201677683Y-25000000D02*
X201677683Y-24000000D01*
X201756880Y-15000000D02*
X201756880Y-16000000D01*
X201780683Y-55000000D02*
X201780683Y-56000000D01*
X201780694Y-43000000D02*
X201780694Y-42000000D01*
X201889591Y-25000000D02*
X201889591Y-26000000D01*
X201890681Y-25000000D02*
X201890681Y-24000000D01*
X201917486Y-15000000D02*
X201917486Y-16000000D01*
X201966003Y-33625000D02*
X201966003Y-34375000D01*
X202075781Y-15000000D02*
X202075781Y-18000000D01*
X202099796Y-25000000D02*
X202099796Y-26000000D01*
X202100886Y-25000000D02*
X202100886Y-24000000D01*
X202153585Y-55000000D02*
X202153585Y-56000000D01*
X202153596Y-43000000D02*
X202153596Y-42000000D01*
D11*
X202199980Y-65000000D02*
X202199980Y-63500000D01*
D10*
X202231886Y-15000000D02*
X202231886Y-16000000D01*
X202259399Y-33625000D02*
X202259399Y-34375000D01*
X202307392Y-25000000D02*
X202307392Y-28000000D01*
X202308482Y-25000000D02*
X202308482Y-22000000D01*
X202385786Y-15000000D02*
X202385786Y-16000000D01*
X202512394Y-25000000D02*
X202512394Y-26000000D01*
X202513484Y-25000000D02*
X202513484Y-24000000D01*
X202522383Y-55000000D02*
X202522383Y-58000000D01*
X202522394Y-43000000D02*
X202522394Y-40000000D01*
X202537481Y-15000000D02*
X202537481Y-16000000D01*
X202555496Y-33625000D02*
X202555496Y-34375000D01*
X202687185Y-15000000D02*
X202687185Y-16000000D01*
X202714893Y-25000000D02*
X202714893Y-26000000D01*
X202715983Y-25000000D02*
X202715983Y-24000000D01*
X202834883Y-15000000D02*
X202834883Y-16500000D01*
D11*
X202854202Y-33500000D02*
X202854202Y-34500000D01*
D10*
X202887083Y-55000000D02*
X202887083Y-56000000D01*
X202887094Y-43000000D02*
X202887094Y-42000000D01*
X202914997Y-25000000D02*
X202914997Y-26000000D01*
X202916087Y-25000000D02*
X202916087Y-24000000D01*
D11*
X202959982Y-65000000D02*
X202959982Y-64000000D01*
D10*
X202980581Y-15000000D02*
X202980581Y-16000000D01*
X203112590Y-25000000D02*
X203112590Y-26000000D01*
X203113680Y-25000000D02*
X203113680Y-24000000D01*
X203124380Y-15000000D02*
X203124380Y-16000000D01*
X203155601Y-33625000D02*
X203155601Y-34375000D01*
X203247885Y-55000000D02*
X203247885Y-56000000D01*
X203247896Y-43000000D02*
X203247896Y-42000000D01*
X203266386Y-15000000D02*
X203266386Y-16000000D01*
X203307895Y-25000000D02*
X203307895Y-26500000D01*
X203308985Y-25000000D02*
X203308985Y-23500000D01*
X203406584Y-15000000D02*
X203406584Y-16000000D01*
X203459800Y-33625000D02*
X203459800Y-34375000D01*
X203500896Y-25000000D02*
X203500896Y-26000000D01*
X203501986Y-25000000D02*
X203501986Y-24000000D01*
X203544882Y-15000000D02*
X203544882Y-18000000D01*
X203604681Y-55000000D02*
X203604681Y-56000000D01*
X203604692Y-43000000D02*
X203604692Y-42000000D01*
X203681585Y-15000000D02*
X203681585Y-16000000D01*
X203691692Y-25000000D02*
X203691692Y-26000000D01*
X203692782Y-25000000D02*
X203692782Y-24000000D01*
X203719984Y-65000000D02*
X203719984Y-64000000D01*
D11*
X203766800Y-33625000D02*
X203766800Y-34375000D01*
D10*
X203816580Y-15000000D02*
X203816580Y-16000000D01*
X203880291Y-25000000D02*
X203880291Y-26000000D01*
X203881381Y-25000000D02*
X203881381Y-24000000D01*
X203949980Y-15000000D02*
X203949980Y-16000000D01*
X203957685Y-55000000D02*
X203957685Y-56000000D01*
X203957696Y-43000000D02*
X203957696Y-42000000D01*
X204066791Y-25000000D02*
X204066791Y-26000000D01*
X204067881Y-25000000D02*
X204067881Y-24000000D01*
X204076797Y-33625000D02*
X204076797Y-34375000D01*
X204081686Y-15000000D02*
X204081686Y-16000000D01*
X204211882Y-15000000D02*
X204211882Y-16500000D01*
X204251194Y-25000000D02*
X204251194Y-28000000D01*
X204252284Y-25000000D02*
X204252284Y-22000000D01*
X204306982Y-55000000D02*
X204306982Y-56500000D01*
X204306993Y-43000000D02*
X204306993Y-41500000D01*
X204340582Y-15000000D02*
X204340582Y-16000000D01*
D11*
X204389602Y-33625000D02*
X204389602Y-34375000D01*
D10*
X204433597Y-25000000D02*
X204433597Y-26000000D01*
X204434687Y-25000000D02*
X204434687Y-24000000D01*
X204467779Y-15000000D02*
X204467779Y-16000000D01*
D11*
X204479986Y-65000000D02*
X204479986Y-64000000D01*
D10*
X204593580Y-15000000D02*
X204593580Y-16000000D01*
X204613895Y-25000000D02*
X204613895Y-26000000D01*
X204614985Y-25000000D02*
X204614985Y-24000000D01*
X204652586Y-55000000D02*
X204652586Y-56000000D01*
X204652597Y-43000000D02*
X204652597Y-42000000D01*
D11*
X204705497Y-33625000D02*
X204705497Y-34375000D01*
D10*
X204717886Y-15000000D02*
X204717886Y-16000000D01*
X204792392Y-25000000D02*
X204792392Y-26000000D01*
X204793482Y-25000000D02*
X204793482Y-24000000D01*
X204840780Y-15000000D02*
X204840780Y-18000000D01*
X204962385Y-15000000D02*
X204962385Y-16000000D01*
X204968891Y-25000000D02*
X204968891Y-26000000D01*
X204969981Y-25000000D02*
X204969981Y-24000000D01*
X204994680Y-55000000D02*
X204994680Y-56000000D01*
X204994691Y-43000000D02*
X204994691Y-42000000D01*
X205024399Y-33625000D02*
X205024399Y-34375000D01*
X205082586Y-15000000D02*
X205082586Y-16000000D01*
X205143497Y-25000000D02*
X205143497Y-26500000D01*
X205144587Y-25000000D02*
X205144587Y-23500000D01*
X205201582Y-15000000D02*
X205201582Y-16000000D01*
D11*
X205239981Y-65000000D02*
X205239981Y-64000000D01*
D10*
X205316295Y-25000000D02*
X205316295Y-26000000D01*
X205317385Y-25000000D02*
X205317385Y-24000000D01*
X205319181Y-15000000D02*
X205319181Y-16000000D01*
X205333181Y-55000000D02*
X205333181Y-56000000D01*
X205333192Y-43000000D02*
X205333192Y-42000000D01*
X205346397Y-33625000D02*
X205346397Y-34375000D01*
X205435682Y-15000000D02*
X205435682Y-16500000D01*
X205487293Y-25000000D02*
X205487293Y-26000000D01*
X205488383Y-25000000D02*
X205488383Y-24000000D01*
X205550886Y-15000000D02*
X205550886Y-16000000D01*
X205656597Y-25000000D02*
X205656597Y-26000000D01*
X205657687Y-25000000D02*
X205657687Y-24000000D01*
X205664884Y-15000000D02*
X205664884Y-16000000D01*
X205668280Y-55000000D02*
X205668280Y-56000000D01*
X205668291Y-43000000D02*
X205668291Y-42000000D01*
X205671600Y-33625000D02*
X205671600Y-34375000D01*
X205777685Y-15000000D02*
X205777685Y-16000000D01*
X205824093Y-25000000D02*
X205824093Y-26000000D01*
X205825183Y-25000000D02*
X205825183Y-24000000D01*
X205889379Y-15000000D02*
X205889379Y-16000000D01*
D11*
X205999983Y-65000000D02*
X205999983Y-62000000D01*
D10*
X206000000Y-18000000D02*
X206000000Y-15000000D01*
X206000000Y-25000000D02*
X206000000Y-22000000D01*
D11*
X206000000Y-32500001D02*
X206000000Y-35500000D01*
D10*
X206000000Y-58000000D02*
X206000000Y-55000000D01*
X206000011Y-28000000D02*
X206000011Y-25000000D01*
X206000011Y-40000000D02*
X206000011Y-41500000D01*
X206000011Y-43000000D02*
X206000011Y-40000000D01*
M02*
