%TF.GenerationSoftware,KiCad,Pcbnew,10.0.1*%
%TF.CreationDate,2026-05-05T18:07:42+07:00*%
%TF.ProjectId,sliderule_condensed,736c6964-6572-4756-9c65-5f636f6e6465,rev?*%
%TF.SameCoordinates,Original*%
%TF.FileFunction,Copper,L2,Bot*%
%TF.FilePolarity,Positive*%
%FSLAX46Y46*%
G04 Gerber Fmt 4.6, Leading zero omitted, Abs format (unit mm)*
G04 Created by KiCad (PCBNEW 10.0.1) date 2026-05-05 18:07:42*
%MOMM*%
%LPD*%
G01*
G04 APERTURE LIST*
%TA.AperFunction,NonConductor*%
%ADD10C,0.100000*%
%TD*%
%TA.AperFunction,NonConductor*%
%ADD11C,0.199999*%
%TD*%
G04 APERTURE END LIST*
D10*
X123000018Y-25000000D02*
X123000018Y-28000000D01*
D11*
X123000018Y-25000000D02*
X123000018Y-28000000D01*
D10*
X124000018Y-25000000D02*
X124000018Y-26000000D01*
X124100028Y-43000000D02*
X124100028Y-41500000D01*
X125000018Y-25000000D02*
X125000018Y-26000000D01*
X125687529Y-43000000D02*
X125687529Y-42500000D01*
X126000018Y-25000000D02*
X126000018Y-26000000D01*
X127000017Y-25000000D02*
X127000017Y-26000000D01*
X127275031Y-43000000D02*
X127275031Y-42250000D01*
X128000017Y-25000000D02*
X128000017Y-26500000D01*
X128862532Y-43000000D02*
X128862532Y-42500000D01*
X129000017Y-25000000D02*
X129000017Y-26000000D01*
X130000017Y-25000000D02*
X130000017Y-26000000D01*
X130450026Y-43000000D02*
X130450026Y-42000000D01*
X131000016Y-25000000D02*
X131000016Y-26000000D01*
X132000016Y-25000000D02*
X132000016Y-26000000D01*
X132037528Y-43000000D02*
X132037528Y-42500000D01*
X133000016Y-25000000D02*
X133000016Y-28000000D01*
D11*
X133000016Y-25000000D02*
X133000016Y-28000000D01*
D10*
X133625029Y-43000000D02*
X133625029Y-42250000D01*
X134000016Y-25000000D02*
X134000016Y-26000000D01*
X135000016Y-25000000D02*
X135000016Y-26000000D01*
X135212531Y-43000000D02*
X135212531Y-42500000D01*
X136000016Y-25000000D02*
X136000016Y-26000000D01*
X136800032Y-43000000D02*
X136800032Y-40000000D01*
D11*
X136800032Y-43000000D02*
X136800032Y-40000000D01*
D10*
X137000015Y-25000000D02*
X137000015Y-26000000D01*
X138000015Y-25000000D02*
X138000015Y-26500000D01*
X138387526Y-43000000D02*
X138387526Y-42500000D01*
X139000015Y-25000000D02*
X139000015Y-26000000D01*
X139975028Y-43000000D02*
X139975028Y-42250000D01*
X140000015Y-25000000D02*
X140000015Y-26000000D01*
X141000015Y-25000000D02*
X141000015Y-26000000D01*
X141562529Y-43000000D02*
X141562529Y-42500000D01*
X142000015Y-25000000D02*
X142000015Y-26000000D01*
X143000015Y-25000000D02*
X143000015Y-28000000D01*
D11*
X143000015Y-25000000D02*
X143000015Y-28000000D01*
D10*
X143150031Y-43000000D02*
X143150031Y-42000000D01*
X144000015Y-25000000D02*
X144000015Y-26000000D01*
X144737532Y-43000000D02*
X144737532Y-42500000D01*
X145000015Y-25000000D02*
X145000015Y-26000000D01*
X146000015Y-25000000D02*
X146000015Y-26000000D01*
X146325026Y-43000000D02*
X146325026Y-42250000D01*
X147000015Y-25000000D02*
X147000015Y-26000000D01*
X147912528Y-43000000D02*
X147912528Y-42500000D01*
X148000015Y-25000000D02*
X148000015Y-26500000D01*
X149000015Y-25000000D02*
X149000015Y-26000000D01*
X149500022Y-43000000D02*
X149500022Y-41500000D01*
X150000013Y-25000000D02*
X150000013Y-26000000D01*
X151000013Y-25000000D02*
X151000013Y-26000000D01*
X151087523Y-43000000D02*
X151087523Y-42500000D01*
X152000013Y-25000000D02*
X152000013Y-26000000D01*
X152675021Y-43000000D02*
X152675021Y-42250000D01*
X153000013Y-25000000D02*
X153000013Y-28000000D01*
D11*
X153000013Y-25000000D02*
X153000013Y-28000000D01*
D10*
X154000013Y-25000000D02*
X154000013Y-26000000D01*
X154262522Y-43000000D02*
X154262522Y-42500000D01*
X155000013Y-25000000D02*
X155000013Y-26000000D01*
X155850020Y-43000000D02*
X155850020Y-42000000D01*
X156000011Y-25000000D02*
X156000011Y-26000000D01*
X157000011Y-25000000D02*
X157000011Y-26000000D01*
X157437522Y-43000000D02*
X157437522Y-42500000D01*
X158000011Y-25000000D02*
X158000011Y-26500000D01*
X159000011Y-25000000D02*
X159000011Y-26000000D01*
X159025023Y-43000000D02*
X159025023Y-42250000D01*
X160000011Y-25000000D02*
X160000011Y-26000000D01*
X160612517Y-43000000D02*
X160612517Y-42500000D01*
X161000011Y-25000000D02*
X161000011Y-26000000D01*
X162000011Y-25000000D02*
X162000011Y-26000000D01*
X162200019Y-43000000D02*
X162200019Y-40000000D01*
D11*
X162200019Y-43000000D02*
X162200019Y-40000000D01*
D10*
X163000011Y-25000000D02*
X163000011Y-28000000D01*
D11*
X163000011Y-25000000D02*
X163000011Y-28000000D01*
D10*
X163787516Y-43000000D02*
X163787516Y-42500000D01*
X164000011Y-25000000D02*
X164000011Y-26000000D01*
X165000011Y-25000000D02*
X165000011Y-26000000D01*
X165375018Y-43000000D02*
X165375018Y-42250000D01*
X166000011Y-25000000D02*
X166000011Y-26000000D01*
X166962519Y-43000000D02*
X166962519Y-42500000D01*
X167000011Y-25000000D02*
X167000011Y-26000000D01*
X168000011Y-25000000D02*
X168000011Y-26500000D01*
X168550017Y-43000000D02*
X168550017Y-42000000D01*
X169000011Y-25000000D02*
X169000011Y-26000000D01*
X170000011Y-25000000D02*
X170000011Y-26000000D01*
X170137519Y-43000000D02*
X170137519Y-42500000D01*
X171000011Y-25000000D02*
X171000011Y-26000000D01*
X171725016Y-43000000D02*
X171725016Y-42250000D01*
X172000011Y-25000000D02*
X172000011Y-26000000D01*
X173000011Y-25000000D02*
X173000011Y-28000000D01*
D11*
X173000011Y-25000000D02*
X173000011Y-28000000D01*
D10*
X173312518Y-43000000D02*
X173312518Y-42500000D01*
X174000011Y-25000000D02*
X174000011Y-26000000D01*
X174900019Y-43000000D02*
X174900019Y-41500000D01*
X175000011Y-25000000D02*
X175000011Y-26000000D01*
X176000011Y-25000000D02*
X176000011Y-26000000D01*
X176487517Y-43000000D02*
X176487517Y-42500000D01*
X177000007Y-25000000D02*
X177000007Y-26000000D01*
X178000007Y-25000000D02*
X178000007Y-26500000D01*
X178075019Y-43000000D02*
X178075019Y-42250000D01*
X179000007Y-25000000D02*
X179000007Y-26000000D01*
X179662516Y-43000000D02*
X179662516Y-42500000D01*
X180000007Y-25000000D02*
X180000007Y-26000000D01*
X181000007Y-25000000D02*
X181000007Y-26000000D01*
X181250016Y-43000000D02*
X181250016Y-42000000D01*
X182000007Y-25000000D02*
X182000007Y-26000000D01*
X182837516Y-43000000D02*
X182837516Y-42500000D01*
X183000007Y-25000000D02*
X183000007Y-28000000D01*
D11*
X183000007Y-25000000D02*
X183000007Y-28000000D01*
D10*
X184000007Y-25000000D02*
X184000007Y-26000000D01*
X184425015Y-43000000D02*
X184425015Y-42250000D01*
X185000007Y-25000000D02*
X185000007Y-26000000D01*
X186000007Y-25000000D02*
X186000007Y-26000000D01*
X186012517Y-43000000D02*
X186012517Y-42500000D01*
X187000004Y-25000000D02*
X187000004Y-26000000D01*
X187600014Y-43000000D02*
X187600014Y-40000000D01*
D11*
X187600014Y-43000000D02*
X187600014Y-40000000D01*
D10*
X188000000Y-25000000D02*
X188000000Y-26500000D01*
X189000000Y-25000000D02*
X189000000Y-26000000D01*
X189187514Y-43000000D02*
X189187514Y-42500000D01*
X190000000Y-25000000D02*
X190000000Y-26000000D01*
X190775014Y-43000000D02*
X190775014Y-42250000D01*
X191000000Y-25000000D02*
X191000000Y-26000000D01*
X192000000Y-25000000D02*
X192000000Y-26000000D01*
X192362513Y-43000000D02*
X192362513Y-42500000D01*
X193000000Y-25000000D02*
X193000000Y-28000000D01*
D11*
X193000000Y-25000000D02*
X193000000Y-28000000D01*
D10*
X193950015Y-43000000D02*
X193950015Y-42000000D01*
X194000000Y-25000000D02*
X194000000Y-26000000D01*
X195000000Y-25000000D02*
X195000000Y-26000000D01*
X195537514Y-43000000D02*
X195537514Y-42500000D01*
X196000000Y-25000000D02*
X196000000Y-26000000D01*
X197000000Y-25000000D02*
X197000000Y-26000000D01*
X197125014Y-43000000D02*
X197125014Y-42250000D01*
X198000000Y-25000000D02*
X198000000Y-26500000D01*
X198712514Y-43000000D02*
X198712514Y-42500000D01*
X199000000Y-25000000D02*
X199000000Y-26000000D01*
X200000000Y-25000000D02*
X200000000Y-26000000D01*
X200300013Y-43000000D02*
X200300013Y-41500000D01*
X201000000Y-25000000D02*
X201000000Y-26000000D01*
X201887513Y-43000000D02*
X201887513Y-42500000D01*
X202000000Y-25000000D02*
X202000000Y-26000000D01*
X203000000Y-25000000D02*
X203000000Y-28000000D01*
D11*
X203000000Y-25000000D02*
X203000000Y-28000000D01*
D10*
X203475013Y-43000000D02*
X203475013Y-42250000D01*
X204000000Y-25000000D02*
X204000000Y-26000000D01*
X205000000Y-25000000D02*
X205000000Y-26000000D01*
X205062512Y-43000000D02*
X205062512Y-42500000D01*
X206000000Y-25000000D02*
X206000000Y-26000000D01*
X206650012Y-43000000D02*
X206650012Y-42000000D01*
X207000000Y-25000000D02*
X207000000Y-26000000D01*
X208000000Y-25000000D02*
X208000000Y-26500000D01*
X208237512Y-43000000D02*
X208237512Y-42500000D01*
X209000000Y-25000000D02*
X209000000Y-26000000D01*
X209825011Y-43000000D02*
X209825011Y-42250000D01*
X210000000Y-25000000D02*
X210000000Y-26000000D01*
X211000000Y-25000000D02*
X211000000Y-26000000D01*
X211412511Y-43000000D02*
X211412511Y-42500000D01*
X212000000Y-25000000D02*
X212000000Y-26000000D01*
X213000000Y-25000000D02*
X213000000Y-28000000D01*
D11*
X213000000Y-25000000D02*
X213000000Y-28000000D01*
D10*
X213000011Y-43000000D02*
X213000011Y-40000000D01*
D11*
X213000011Y-43000000D02*
X213000011Y-40000000D01*
M02*
